<?xml version="1.0" standalone="no"?>
<!DOCTYPE svg PUBLIC "-//W3C//DTD SVG 1.1//EN" "http://www.w3.org/Graphics/SVG/1.1/DTD/svg11.dtd" >
<svg xmlns="http://www.w3.org/2000/svg" xmlns:xlink="http://www.w3.org/1999/xlink" version="1.1">
<metadata>
Created by FontForge 20160405 at Thu Nov  1 23:32:03 2018
 By www-data
Copyright (c) 2007-2016 Monotype GmbH. All rights reserved.
</metadata>
<defs>
<font id="EurostileNextPro-Bold" horiz-adv-x="428" >
  <font-face 
    font-family="Eurostile Next Pro"
    font-weight="700"
    font-stretch="normal"
    units-per-em="1000"
    panose-1="2 11 8 4 2 2 2 5 2 4"
    ascent="755"
    descent="-245"
    x-height="480"
    cap-height="680"
    bbox="-297 -258 1100 906"
    underline-thickness="50"
    underline-position="-175"
    unicode-range="U+000D-FEFF"
  />
<missing-glyph horiz-adv-x="485" 
d="M0 0v680h485v-680h-485zM47 47h391v585h-391v-585zM211 238q0 34 4.5 55.5t16.5 38t36 37.5q28 28 37 44.5t9 35.5q0 22 -10 40.5t-26.5 29t-35.5 10.5q-31 0 -51.5 -22t-25.5 -68l-48 8q7 66 41 98t87 32q34 0 61 -15.5t42 -43.5t15 -65q0 -32 -12.5 -56.5t-47.5 -56.5
q-23 -21 -32 -33.5t-11.5 -25.5t-2.5 -42v-17h-46v16zM210 111v63h53v-63h-53z" />
    <glyph glyph-name="ff" unicode="ff" horiz-adv-x="686" 
d="M77 368h-62v112h62v36q0 64 17 101.5t55 53.5t102 16q46 0 88 -5v-111q-24 2 -43 2q-26 0 -38.5 -5t-17.5 -18.5t-5 -42.5v-27h108v-112h-108v-368h-158v368zM420 368h-62v112h62v36q0 64 17 101.5t55 53.5t102 16q46 0 88 -5v-111q-24 2 -43 2q-26 0 -38.5 -5
t-17.5 -18.5t-5 -42.5v-27h108v-112h-108v-368h-158v368z" />
    <glyph glyph-name="ffi" unicode="ffi" horiz-adv-x="949" 
d="M77 368h-62v112h62v36q0 64 17 101.5t55 53.5t102 16q46 0 88 -5v-111q-24 2 -43 2q-26 0 -38.5 -5t-17.5 -18.5t-5 -42.5v-27h108v-112h-108v-368h-158v368zM420 368h-62v112h62v36q0 64 17 101.5t55 53.5t102 16q46 0 88 -5v-111q-24 2 -43 2q-26 0 -38.5 -5
t-17.5 -18.5t-5 -42.5v-27h108v-112h-108v-368h-158v368zM738 556v124h159v-124h-159zM738 0v480h159v-480h-159z" />
    <glyph glyph-name="ffl" unicode="ffl" horiz-adv-x="949" 
d="M77 368h-62v112h62v36q0 64 17 101.5t55 53.5t102 16q46 0 88 -5v-111q-24 2 -43 2q-26 0 -38.5 -5t-17.5 -18.5t-5 -42.5v-27h108v-112h-108v-368h-158v368zM420 368h-62v112h62v36q0 64 17 101.5t55 53.5t102 16q46 0 88 -5v-111q-24 2 -43 2q-26 0 -38.5 -5
t-17.5 -18.5t-5 -42.5v-27h108v-112h-108v-368h-158v368zM738 0v680h159v-680h-159z" />
    <glyph glyph-name="f_i" unicode="fi" horiz-adv-x="606" 
d="M77 368h-62v112h62v36q0 64 17 101.5t55 53.5t102 16q46 0 88 -5v-111q-24 2 -43 2q-26 0 -38.5 -5t-17.5 -18.5t-5 -42.5v-27h108v-112h-108v-368h-158v368zM395 556v124h159v-124h-159zM395 0v480h159v-480h-159z" />
    <glyph glyph-name="f_l" unicode="fl" horiz-adv-x="606" 
d="M77 368h-62v112h62v36q0 64 17 101.5t55 53.5t102 16q46 0 88 -5v-111q-24 2 -43 2q-26 0 -38.5 -5t-17.5 -18.5t-5 -42.5v-27h108v-112h-108v-368h-158v368zM395 0v680h159v-680h-159z" />
    <glyph glyph-name=".notdef" horiz-adv-x="485" 
d="M0 0v680h485v-680h-485zM47 47h391v585h-391v-585zM211 238q0 34 4.5 55.5t16.5 38t36 37.5q28 28 37 44.5t9 35.5q0 22 -10 40.5t-26.5 29t-35.5 10.5q-31 0 -51.5 -22t-25.5 -68l-48 8q7 66 41 98t87 32q34 0 61 -15.5t42 -43.5t15 -65q0 -32 -12.5 -56.5t-47.5 -56.5
q-23 -21 -32 -33.5t-11.5 -25.5t-2.5 -42v-17h-46v16zM210 111v63h53v-63h-53z" />
    <glyph glyph-name=".null" horiz-adv-x="0" 
 />
    <glyph glyph-name="nonmarkingreturn" horiz-adv-x="333" 
 />
    <glyph glyph-name="NULL" horiz-adv-x="0" 
 />
    <glyph glyph-name="NULL" horiz-adv-x="0" 
 />
    <glyph glyph-name="CR" unicode="&#xd;" horiz-adv-x="249" 
 />
    <glyph glyph-name="space" unicode=" " horiz-adv-x="249" 
 />
    <glyph glyph-name="exclam" unicode="!" horiz-adv-x="310" 
d="M81 245l-12 435h172l-13 -435h-147zM73 0v165h164v-165h-164z" />
    <glyph glyph-name="quotedbl" unicode="&#x22;" horiz-adv-x="402" 
d="M62 437v271h112v-271h-112zM228 437v271h112v-271h-112z" />
    <glyph glyph-name="numbersign" unicode="#" horiz-adv-x="653" 
d="M100 0l28 179h-74v106h90l19 122h-87v106h104l26 167h117l-26 -167h110l26 167h117l-26 -167h82v-106h-98l-19 -122h96v-106h-113l-27 -179h-118l27 179h-109l-27 -179h-118zM262 285h110l18 122h-110z" />
    <glyph glyph-name="dollar" unicode="$" horiz-adv-x="678" 
d="M533.5 381q53.5 -21 74 -59.5t20.5 -107.5v-19q0 -80 -21.5 -123t-75.5 -61t-157 -19v-73h-67v73q-109 0 -161.5 17.5t-69.5 55t-17 111.5v41h160v-25q0 -29 6.5 -44t25 -21.5t56.5 -7.5v160q-105 14 -157 37t-70.5 62t-18.5 109v16q0 70 22 109.5t74.5 57.5t149.5 18v62
h67v-62q101 -1 151.5 -19t67.5 -55t17 -107v-31h-158v23q0 22 -5.5 35t-22 21t-50.5 9v-148q106 -14 159.5 -35zM227 453.5q6 -11.5 23.5 -17.5t56.5 -12v140q-37 0 -55.5 -6.5t-24.5 -19.5t-6 -37v-13q0 -23 6 -34.5zM467 201q0 24 -7 36.5t-26.5 19.5t-59.5 13v-151
q41 1 60.5 8t26 21.5t6.5 40.5v12z" />
    <glyph glyph-name="percent" unicode="%" horiz-adv-x="822" 
d="M109 359q-29 13 -41 44.5t-12 92.5v36q0 60 12 91.5t41 44.5t85 13h16q56 0 85.5 -13t41.5 -44.5t12 -91.5v-36q0 -61 -12 -92.5t-41.5 -44.5t-85.5 -13h-16q-56 0 -85 13zM226 0l274 680h94l-273 -680h-95zM208 421q16 0 23.5 5.5t10.5 20.5t3 45v44q0 30 -3 44
t-10.5 19.5t-23.5 5.5h-10q-17 0 -24.5 -5.5t-10.5 -19.5t-3 -44v-44q0 -30 3 -45t11 -20.5t24 -5.5h10zM526 12q-29 13 -41 44.5t-12 92.5v36q0 60 12 91.5t41 44.5t85 13h16q56 0 85.5 -13t41.5 -44.5t12 -91.5v-36q0 -61 -12 -92.5t-41.5 -44.5t-85.5 -13h-16
q-56 0 -85 13zM625 74q16 0 23.5 5.5t10.5 20.5t3 45v44q0 30 -3 44t-10.5 19.5t-23.5 5.5h-10q-17 0 -24.5 -5.5t-10.5 -19.5t-3 -44v-44q0 -30 3 -45t11 -20.5t24 -5.5h10z" />
    <glyph glyph-name="ampersand" unicode="&#x26;" horiz-adv-x="776" 
d="M668 -4l-70 53q-12 -22 -38 -34.5t-76 -17.5t-138 -5h-15q-119 0 -173.5 15.5t-72.5 56t-18 127.5v19q0 57 11.5 91t35 51.5t63.5 23.5q-25 24 -38.5 42.5t-19.5 41t-6 55.5v22q0 58 20.5 90.5t69.5 46.5t138 14h17q113 0 162.5 -13.5t66.5 -52t17 -125.5v-19h-148v25
q0 26 -6.5 38.5t-24.5 17.5t-56 5h-14q-33 0 -50 -4t-24 -14.5t-7 -30.5v-8q0 -23 13 -42.5t41 -40.5l174 -134l-1 66v28h133v-48v-147l115 -88zM415 118q30 1 45 5t22 14l-213 163q-25 -6 -33.5 -23t-8.5 -53v-14q0 -43 8.5 -62t31 -25t74.5 -6h7q37 0 67 1z" />
    <glyph glyph-name="quotesingle" unicode="'" horiz-adv-x="236" 
d="M62 437v271h112v-271h-112z" />
    <glyph glyph-name="parenleft" unicode="(" horiz-adv-x="374" 
d="M142.5 13q-47.5 21 -67.5 90.5t-20 225.5v22q0 156 20 225.5t67.5 90.5t149.5 21h16v-127h-13q-37 0 -54 -13t-24 -57t-7 -144v-14q0 -99 7 -143.5t24 -57.5t54 -13h13v-127h-16q-102 0 -149.5 21z" />
    <glyph glyph-name="parenright" unicode=")" horiz-adv-x="374" 
d="M66 119h12q37 0 54.5 13t24.5 57.5t7 144.5v14q0 99 -7 143t-24.5 57t-54.5 13h-12v127h16q102 0 149 -20.5t67.5 -90.5t20.5 -226v-21q0 -156 -20.5 -226t-67.5 -91t-149 -21h-16v127z" />
    <glyph glyph-name="asterisk" unicode="*" horiz-adv-x="468" 
d="M192 576l-13 123h109l-13 -123h-83zM152 513l-108 48l48 83l94 -72zM315 513l-34 59l95 72l48 -83zM92 374l-48 82l108 48l34 -58zM376 374l-95 72l34 58l109 -48zM179 319l13 123h83l13 -123h-109z" />
    <glyph glyph-name="plus" unicode="+" horiz-adv-x="567" 
d="M220 71v172h-164v121h164v167h127v-167h164v-121h-164v-172h-127z" />
    <glyph glyph-name="comma" unicode="," horiz-adv-x="267" 
d="M30 -69q30 0 45 5.5t21 18t6 36.5v9h-51v165h165v-152q0 -68 -16 -104t-55.5 -51t-114.5 -15v88z" />
    <glyph glyph-name="hyphen" unicode="-" horiz-adv-x="422" 
d="M64 176v143h294v-143h-294z" />
    <glyph glyph-name="period" unicode="." horiz-adv-x="267" 
d="M51 0v165h165v-165h-165z" />
    <glyph glyph-name="slash" unicode="/" horiz-adv-x="466" 
d="M39 -8l266 696h122l-266 -696h-122z" />
    <glyph glyph-name="zero" unicode="0" horiz-adv-x="673" 
d="M155 16.5q-58 24.5 -81 86.5t-23 183v108q0 121 23 183t81 86.5t171 24.5h21q113 0 171 -24.5t81 -86.5t23 -183v-108q0 -121 -23 -183t-81 -86.5t-171 -24.5h-21q-113 0 -171 24.5zM343 131q49 0 72.5 10.5t33 41t9.5 93.5v128q0 63 -9.5 93.5t-33 41t-72.5 10.5h-13
q-49 0 -72.5 -10.5t-33 -41t-9.5 -93.5v-128q0 -63 9.5 -93.5t33 -41t72.5 -10.5h13z" />
    <glyph glyph-name="one" unicode="1" horiz-adv-x="520" 
d="M249 0v526h-3l-151 -131l-82 106l207 179h197v-680h-168z" />
    <glyph glyph-name="two" unicode="2" horiz-adv-x="659" 
d="M55 119q0 86 15.5 130.5t66 72.5t160.5 48q63 11 92 22.5t38.5 29t9.5 51.5v16q0 30 -7 44t-29 20.5t-69 6.5h-13q-50 0 -71.5 -6.5t-28 -24.5t-6.5 -60v-19h-157v14q0 97 19 143t72 63.5t165 17.5h13q116 0 175.5 -17t83 -57.5t23.5 -118.5v-22q0 -79 -18 -120
t-65 -64.5t-145 -42.5q-78 -15 -109 -26t-39 -24.5t-8 -43.5v-21h384v-131h-552v119z" />
    <glyph glyph-name="three" unicode="3" horiz-adv-x="664" 
d="M143.5 8q-53.5 16 -72.5 58t-19 133v31h157v-35q0 -35 7 -49t26.5 -18.5t66.5 -4.5h11q57 0 82.5 4.5t34.5 18t9 42.5v21q0 28 -7 43t-24.5 21t-51.5 6h-105v125h106q28 0 43.5 6t21.5 20.5t6 41.5v22q0 27 -8.5 40t-32.5 18.5t-73 5.5h-11q-47 0 -67 -4.5t-27 -19.5
t-7 -49v-29h-155v27q0 87 19.5 129.5t71 59t158.5 16.5h20q118 0 176.5 -15t81.5 -52.5t23 -113.5v-20q0 -48 -9 -75.5t-29.5 -42.5t-58.5 -25v-3q41 -8 63.5 -22t33.5 -42t11 -79v-27q0 -72 -23.5 -109.5t-83 -53.5t-175.5 -16h-20q-116 0 -169.5 16z" />
    <glyph glyph-name="four" unicode="4" horiz-adv-x="668" 
d="M391 0v137h-352v171l291 372h222v-414h82v-129h-82v-137h-161zM178 266h213v288h-3l-210 -284v-4z" />
    <glyph glyph-name="five" unicode="5" horiz-adv-x="655" 
d="M146.5 8.5q-53.5 16.5 -72.5 56.5t-19 120v17h154v-12q0 -29 8.5 -42t32 -17.5t76.5 -4.5h15q47 0 68.5 7.5t28 25.5t6.5 57v19q0 43 -6.5 61t-29 25t-76.5 7h-19q-40 0 -60 -5t-27 -17t-8 -35h-154v409h522v-131h-366v-145h2q11 20 27.5 31t44 16.5t71.5 5.5h27
q87 0 133.5 -17t65.5 -57t19 -116v-52q0 -92 -22 -138.5t-79.5 -65.5t-172.5 -19h-24q-112 0 -165.5 16.5z" />
    <glyph glyph-name="six" unicode="6" horiz-adv-x="660" 
d="M148.5 12.5q-54.5 20.5 -74.5 75.5t-20 172v145q0 126 21.5 184.5t78.5 78.5t179 20h21q108 0 158 -16t67.5 -55t17.5 -122v-17h-154v12q0 29 -6 42t-25.5 18.5t-62.5 5.5h-12q-56 0 -79 -8t-30.5 -32t-7.5 -82v-54h2q16 25 48.5 38t83.5 13h19q102 0 151.5 -15.5
t68.5 -56.5t19 -124v-34q0 -87 -21.5 -130.5t-78 -61t-169.5 -17.5h-23q-117 0 -171.5 20.5zM338 123q52 0 74.5 6.5t29.5 23.5t7 56v15q0 38 -7 54t-29 22t-75 6h-8q-53 0 -75.5 -6t-29.5 -22t-7 -54v-15q0 -40 7 -57t29.5 -23t75.5 -6h8z" />
    <glyph glyph-name="seven" unicode="7" horiz-adv-x="600" 
d="M112 0l266 538v3h-345v139h533v-124l-267 -556h-187z" />
    <glyph glyph-name="eight" unicode="8" horiz-adv-x="660" 
d="M150.5 4q-55.5 12 -78 46.5t-22.5 107.5v22q0 55 10 88.5t34 52t67 25.5v2q-43 7 -66 22.5t-32 45t-9 83.5v22q0 72 21 106.5t76 47.5t169 13h20q114 0 168.5 -13t75.5 -47.5t21 -106.5v-22q0 -53 -9.5 -82.5t-33 -45t-69.5 -23.5v-2q46 -7 71 -25.5t35.5 -51.5t10.5 -89
v-22q0 -73 -22.5 -107.5t-78 -46.5t-169.5 -12h-20q-114 0 -169.5 12zM334 410q53 0 75.5 5t28.5 17.5t6 42.5v22q0 31 -6 44t-28.5 18.5t-75.5 5.5h-8q-53 0 -75.5 -5.5t-29 -18.5t-6.5 -44v-22q0 -30 6.5 -42.5t29 -17.5t75.5 -5h8zM334 120q53 0 76 4.5t30 18t7 44.5v33
q0 29 -7 42t-30 17.5t-76 4.5h-8q-53 0 -76 -4.5t-30 -17.5t-7 -42v-33q0 -31 7 -44.5t30 -18t76 -4.5h8z" />
    <glyph glyph-name="nine" unicode="9" horiz-adv-x="660" 
d="M147 8q-52 16 -70.5 55.5t-18.5 121.5v17h155v-12q0 -28 7 -41t28 -18t65 -5h12q57 0 79.5 7t29.5 30.5t7 82.5v55h-2q-31 -51 -132 -51h-19q-100 0 -150 16t-69.5 57t-19.5 123v33q0 86 21.5 130t78 61.5t169.5 17.5h23q115 0 170 -21t75.5 -76t20.5 -171v-145
q0 -126 -21.5 -184.5t-78 -78.5t-178.5 -20h-22q-108 0 -160 16zM332 375q52 0 74.5 6.5t29.5 23.5t7 56v15q0 38 -7 54t-29 22t-75 6h-8q-53 0 -75.5 -6t-29.5 -22t-7 -54v-15q0 -40 7 -57t29.5 -23t75.5 -6h8z" />
    <glyph glyph-name="colon" unicode=":" horiz-adv-x="279" 
d="M57 315v165h165v-165h-165zM57 0v165h165v-165h-165z" />
    <glyph glyph-name="semicolon" unicode=";" horiz-adv-x="279" 
d="M56 315v165h165v-165h-165zM36 -69q30 0 45 5.5t21 18t6 36.5v9h-51v165h165v-152q0 -68 -16 -104t-55.5 -51t-114.5 -15v88z" />
    <glyph glyph-name="less" unicode="&#x3c;" horiz-adv-x="567" 
d="M511 75l-455 167v117l455 167v-128l-303 -97v-2l303 -95v-129z" />
    <glyph glyph-name="equal" unicode="=" horiz-adv-x="567" 
d="M56 337v121h455v-121h-455zM56 138v121h455v-121h-455z" />
    <glyph glyph-name="greater" unicode="&#x3e;" horiz-adv-x="567" 
d="M56 75v129l303 95v2l-303 97v128l455 -167v-117z" />
    <glyph glyph-name="question" unicode="?" horiz-adv-x="570" 
d="M198 262q0 47 8.5 73.5t29.5 43.5t63 31q39 13 55.5 22.5t22 21t5.5 35.5v7q0 30 -7 44t-25 19.5t-55 5.5h-13q-41 0 -59 -6t-25 -24.5t-7 -60.5v-21h-143v33q0 85 20 127.5t69 58.5t146 16h15q93 0 142 -15t69 -52.5t20 -108.5v-18q0 -58 -9.5 -91.5t-34.5 -55
t-74 -37.5q-32 -11 -44.5 -17t-17 -16t-4.5 -32v-15h-147v32zM191 0v160h164v-160h-164z" />
    <glyph glyph-name="at" unicode="@" horiz-adv-x="838" 
d="M173.5 -86q-68.5 22 -94.5 88t-26 211v94q0 142 26.5 208.5t95.5 90.5t216 24h43q162 0 232 -21t94.5 -87.5t24.5 -221.5v-50q0 -78 -15.5 -118.5t-48 -54.5t-91.5 -14q-40 0 -64.5 6.5t-40 22.5t-25.5 47h-3q-9 -31 -22 -47t-34 -22.5t-57 -6.5h-13q-52 0 -81 15.5
t-42.5 56.5t-13.5 119v37q0 76 14 117t43.5 57t81.5 16h12q35 0 55.5 -6t33.5 -21.5t23 -44.5h2v64h105v-253q0 -26 3.5 -39.5t12 -19t23.5 -5.5q18 0 26.5 5.5t12 22.5t3.5 54v58q0 128 -14 176.5t-62 63t-175 14.5h-43q-115 0 -161 -16t-61 -67.5t-15 -180.5v-52
q0 -122 15.5 -173t62 -67t159.5 -16h43q88 0 130 3.5t55 11t13 22.5v6h115v-10q0 -48 -26.5 -73.5t-92.5 -35.5t-193 -10h-44q-149 0 -217.5 22zM428 180q26 0 38.5 6.5t17.5 24.5t5 57v18q0 39 -5 57t-17.5 24.5t-38.5 6.5h-9q-25 0 -38 -6.5t-18.5 -25t-5.5 -56.5v-18
q0 -38 5.5 -56.5t18.5 -25t38 -6.5h9z" />
    <glyph glyph-name="A" unicode="A" horiz-adv-x="707" 
d="M9 0l222 680h243l224 -680h-185l-38 132h-249l-38 -132h-179zM262 260h175l-84 295h-5z" />
    <glyph glyph-name="B" unicode="B" horiz-adv-x="678" 
d="M55 680h352q86 0 132.5 -15t66.5 -52t20 -108q0 -51 -9 -81t-29.5 -46t-57.5 -24v-3q42 -8 66.5 -25t35.5 -49.5t11 -89.5q0 -74 -21 -114t-65 -56.5t-120 -16.5h-382v680zM398 407q25 0 37.5 5.5t18.5 21.5t6 47t-5.5 47t-18.5 21.5t-38 5.5h-174v-148h174zM400 128
q30 0 45.5 7t21.5 24t6 49t-6.5 49t-22 24t-44.5 7h-176v-160h176z" />
    <glyph glyph-name="C" unicode="C" horiz-adv-x="679" 
d="M154 17.5q-62 25.5 -87 88.5t-25 184v102q0 119 25 181.5t87.5 88.5t182.5 26h19q113 0 172.5 -20.5t83 -67t23.5 -131.5v-32h-169v22q0 32 -9 52t-33 30.5t-69 10.5h-12q-53 0 -78.5 -13t-35 -46t-9.5 -102v-99q0 -71 10.5 -105t35.5 -45.5t75 -11.5h13q43 0 68 9
t36.5 30t11.5 59v26h168v-41q0 -87 -26 -134t-86.5 -67t-170.5 -20h-19q-120 0 -182 25.5z" />
    <glyph glyph-name="D" unicode="D" horiz-adv-x="717" 
d="M55 680h299q136 0 201.5 -20.5t91.5 -78t26 -177.5v-122q0 -123 -23.5 -180.5t-89 -79.5t-206.5 -22h-299v680zM347 136q66 0 97 12.5t42 45.5t11 103v95q0 68 -11 99.5t-42 43.5t-97 12h-117v-411h117z" />
    <glyph glyph-name="E" unicode="E" horiz-adv-x="585" 
d="M55 0v680h490v-133h-316v-137h295v-126h-295v-148h326v-136h-500z" />
    <glyph glyph-name="F" unicode="F" horiz-adv-x="541" 
d="M55 0v680h470v-137h-296v-166h277v-131h-277v-246h-174z" />
    <glyph glyph-name="G" unicode="G" horiz-adv-x="682" 
d="M154 17q-62 25 -87 88.5t-25 186.5v102q0 119 25 181t86.5 87.5t181.5 25.5h19q107 0 167.5 -19.5t87 -63.5t26.5 -123v-23h-169v14q0 30 -9.5 47t-33.5 24.5t-70 7.5h-12q-53 0 -78 -12.5t-34.5 -45.5t-9.5 -103v-99q0 -68 9.5 -101.5t35.5 -47t79 -13.5h13q49 0 74 9
t35 29t10 57v21h-142v126h307v-129q0 -103 -24 -155.5t-84 -74t-177 -21.5h-18q-121 0 -183 25z" />
    <glyph glyph-name="H" unicode="H" horiz-adv-x="700" 
d="M55 0v680h175v-257h240v257h175v-680h-175v271h-240v-271h-175z" />
    <glyph glyph-name="I" unicode="I" horiz-adv-x="285" 
d="M55 0v680h175v-680h-175z" />
    <glyph glyph-name="J" unicode="J" horiz-adv-x="568" 
d="M104 11q-47 19 -63.5 66.5t-16.5 145.5v51h158v-38q0 -49 5.5 -70.5t21 -28.5t51.5 -7h12q31 0 45 6.5t19 24t5 55.5v464h175v-449q0 -102 -19 -151.5t-69.5 -68.5t-153.5 -19h-22q-101 0 -148 19z" />
    <glyph glyph-name="K" unicode="K" horiz-adv-x="671" 
d="M55 0v680h172v-267h54l166 267h200l-219 -328l241 -352h-215l-176 283h-51v-283h-172z" />
    <glyph glyph-name="L" unicode="L" horiz-adv-x="517" 
d="M55 0v680h175v-543h272v-137h-447z" />
    <glyph glyph-name="M" unicode="M" horiz-adv-x="934" 
d="M55 0v680h263l149 -501h3l149 501h260v-680h-164l6 533h-4l-172 -533h-159l-170 533h-4l6 -533h-163z" />
    <glyph glyph-name="N" unicode="N" horiz-adv-x="758" 
d="M55 0v680h257l232 -527h5l-8 527h162v-680h-251l-236 530h-5l5 -530h-161z" />
    <glyph glyph-name="O" unicode="O" horiz-adv-x="713" 
d="M157.5 19q-64.5 27 -90 90t-25.5 180v102q0 117 25.5 180t90 90t187.5 27h23q123 0 187.5 -27t90 -90t25.5 -180v-102q0 -117 -25.5 -180t-90 -90t-187.5 -27h-23q-123 0 -187.5 27zM365 130q53 0 80 13t37.5 47t10.5 102v98q0 68 -10.5 102t-37.5 47t-80 13h-17
q-53 0 -80 -13t-37.5 -47t-10.5 -102v-98q0 -68 10.5 -102t37.5 -47t80 -13h17z" />
    <glyph glyph-name="P" unicode="P" horiz-adv-x="644" 
d="M55 680h295q108 0 163 -18.5t77.5 -66t22.5 -142.5v-41q0 -94 -23 -142.5t-77 -66.5t-155 -18h-132v-185h-171v680zM339 318q44 0 65.5 8.5t29.5 27.5t8 56v45q0 39 -8 58.5t-30 27.5t-66 8h-112v-231h113z" />
    <glyph glyph-name="Q" unicode="Q" horiz-adv-x="723" 
d="M659 -14l-67 55q-35 -26 -89 -37.5t-135 -11.5h-23q-123 0 -187.5 27.5t-90 90.5t-25.5 179v102q0 116 25.5 179t90 90.5t187.5 27.5h23q123 0 187.5 -27.5t89.5 -90.5t25 -179v-102q0 -101 -18 -158l74 -50zM416 133q21 4 35 13l-115 78l69 96l89 -72q2 26 2 44v98
q0 67 -11.5 101.5t-39 48t-80.5 13.5h-17q-53 0 -80.5 -13.5t-38.5 -47.5t-11 -102v-98q0 -68 11 -102t38.5 -47.5t80.5 -13.5h17q30 0 51 4z" />
    <glyph glyph-name="R" unicode="R" horiz-adv-x="668" 
d="M55 680h330q96 0 146 -19.5t69 -62t19 -118.5v-16q0 -81 -22.5 -122t-75.5 -52v-4q42 -8 62.5 -24.5t28.5 -50.5t8 -101v-110h-172v96q0 53 -9.5 77t-35.5 32t-85 8h-92v-213h-171v680zM347 340q41 0 62 8t29.5 28t8.5 60v21q0 40 -8.5 59t-29 26t-63.5 7h-120v-209h121z
" />
    <glyph glyph-name="S" unicode="S" horiz-adv-x="657" 
d="M146 7q-62 15 -82.5 53.5t-20.5 121.5v35h163v-25q0 -29 9.5 -43t35.5 -20t78 -6h19q44 0 65.5 6t29 19.5t7.5 40.5v12q0 27 -9.5 42t-41.5 24.5t-98 13.5q-110 7 -164 28.5t-73 62t-19 115.5v16q0 69 21.5 108.5t75 58t152.5 18.5h31q119 0 177 -17t77.5 -54t19.5 -110
v-31h-162v23q0 23 -7.5 35.5t-30.5 18.5t-68 6h-22q-42 0 -62.5 -5t-28.5 -17t-8 -36v-13q0 -25 9 -38t40 -21t99 -14q111 -10 165.5 -30.5t74 -59t19.5 -111.5v-19q0 -78 -23 -121.5t-75.5 -62.5t-146.5 -19h-27q-137 0 -199 15z" />
    <glyph glyph-name="T" unicode="T" horiz-adv-x="570" 
d="M198 0v544h-186v136h546v-136h-185v-544h-175z" />
    <glyph glyph-name="U" unicode="U" horiz-adv-x="698" 
d="M157.5 12.5q-59.5 20.5 -82 71t-22.5 151.5v445h175v-428q0 -55 8 -79.5t31 -33.5t74 -9h15q52 0 75 9t31 33.5t8 79.5v428h175v-445q0 -101 -22 -151.5t-82 -71t-183 -20.5h-19q-122 0 -181.5 20.5z" />
    <glyph glyph-name="V" unicode="V" horiz-adv-x="678" 
d="M224 0l-215 680h183l149 -539h3l147 539h178l-217 -680h-228z" />
    <glyph glyph-name="W" unicode="W" horiz-adv-x="954" 
d="M160 0l-147 680h175l85 -537h4l106 537h194l107 -537h3l84 537h170l-145 -680h-215l-101 516h-3l-102 -516h-215z" />
    <glyph glyph-name="X" unicode="X" horiz-adv-x="691" 
d="M12 0l199 349l-182 331h199l119 -254l121 254h195l-183 -331l199 -349h-205l-130 270l-131 -270h-201z" />
    <glyph glyph-name="Y" unicode="Y" horiz-adv-x="650" 
d="M237 0v220l-230 460h188l131 -307h3l126 307h188l-231 -460v-220h-175z" />
    <glyph glyph-name="Z" unicode="Z" horiz-adv-x="605" 
d="M36 0v135l326 413v1h-318v131h519v-136l-325 -410v-2h332v-132h-534z" />
    <glyph glyph-name="bracketleft" unicode="[" horiz-adv-x="393" 
d="M71 -8v696h258v-126h-105v-444h105v-126h-258z" />
    <glyph glyph-name="backslash" unicode="\" horiz-adv-x="467" 
d="M305 -8l-266 696h122l267 -696h-123z" />
    <glyph glyph-name="bracketright" unicode="]" horiz-adv-x="393" 
d="M64 -8v126h105v444h-105v126h258v-696h-258z" />
    <glyph glyph-name="asciicircum" unicode="^" horiz-adv-x="614" 
d="M44 302l205 378h114l207 -378h-142l-120 237h-2l-122 -237h-140z" />
    <glyph glyph-name="underscore" unicode="_" horiz-adv-x="395" 
d="M0 -149v77h395v-77h-395z" />
    <glyph glyph-name="grave" unicode="`" 
d="M279 528l-210 95l68 97l180 -140z" />
    <glyph glyph-name="a" unicode="a" horiz-adv-x="547" 
d="M102.5 6q-34.5 14 -48.5 45.5t-14 89.5v22q0 54 17 85t54 44.5t101 13.5h7q51 0 80 -9t44 -29h4v43q0 33 -4.5 47.5t-18.5 20t-46 5.5h-12q-28 0 -43 -3t-20.5 -10t-5.5 -20v-13h-145v10q0 58 19.5 87.5t66 41t136.5 11.5h18q91 0 133 -16t57.5 -59t15.5 -135v-278h-151
v49h-3q-16 -30 -44 -43.5t-82 -13.5h-16q-65 0 -99.5 14zM274 98q33 0 48.5 4t21 14t5.5 29v18q0 20 -5 29.5t-21 13.5t-51 4h-9q-33 0 -49 -4t-21.5 -14t-5.5 -29v-18q0 -20 6 -29.5t22.5 -13.5t50.5 -4h8z" />
    <glyph glyph-name="b" unicode="b" horiz-adv-x="577" 
d="M261 6.5q-32 14.5 -53 52.5h-2v-59h-154v680h159v-255h1q18 34 49.5 48.5t81.5 14.5h15q70 0 108.5 -20.5t55 -69t16.5 -136.5v-41q0 -89 -16.5 -138t-55.5 -70t-110 -21h-9q-54 0 -86 14.5zM300 112q32 0 48.5 8.5t23 31.5t6.5 69v40q0 46 -6.5 69t-23 31.5t-48.5 8.5
h-16q-32 0 -48 -8.5t-23 -31.5t-7 -69v-40q0 -46 7 -69t23 -31.5t48 -8.5h16z" />
    <glyph glyph-name="c" unicode="c" horiz-adv-x="535" 
d="M125.5 12q-47.5 20 -67 67t-19.5 134v55q0 86 20 133t68.5 67t137.5 20h23q82 0 127.5 -17t64 -53t18.5 -97v-23h-145v11q0 34 -14.5 47.5t-51.5 13.5h-17q-31 0 -46 -8.5t-20.5 -29.5t-5.5 -64v-55q0 -42 6 -63t22 -29.5t47 -8.5h18q25 0 38 6t18 19t5 38v10h146v-18
q0 -66 -18.5 -103.5t-64.5 -54.5t-131 -17h-23q-88 0 -135.5 20z" />
    <glyph glyph-name="d" unicode="d" horiz-adv-x="576" 
d="M111 13q-39 21 -55.5 70t-16.5 138v41q0 88 16.5 136.5t54.5 69t107 20.5h16q49 0 81 -14.5t50 -48.5h1v255h159v-680h-154v59h-2q-14 -28 -34 -42.5t-44.5 -19.5t-59.5 -5h-10q-70 0 -109 21zM292 112q32 0 48.5 8.5t23 31.5t6.5 69v40q0 46 -6.5 69t-23 31.5t-48.5 8.5
h-16q-32 0 -48 -8.5t-23 -31.5t-7 -69v-40q0 -46 7 -69t23 -31.5t48 -8.5h16z" />
    <glyph glyph-name="e" unicode="e" horiz-adv-x="541" 
d="M124 11.5q-47 19.5 -66 66.5t-19 135v55q0 88 21.5 135t68 66t129.5 19h21q88 0 135 -18t66.5 -62.5t19.5 -128.5v-76h-308v-22q0 -34 6 -50t22 -22t51 -6h14q31 0 46 4t20.5 13.5t5.5 28.5v9h145v-11q0 -58 -21.5 -91.5t-68 -48.5t-124.5 -15h-28q-89 0 -136 19.5z
M355 295v12q0 32 -6 48t-22.5 23t-50.5 7h-7q-35 0 -51 -7t-21.5 -25t-5.5 -58h164z" />
    <glyph glyph-name="f" unicode="f" horiz-adv-x="343" 
d="M77 368h-62v112h62v36q0 64 17 101.5t55 53.5t102 16q46 0 88 -5v-111q-24 2 -43 2q-26 0 -38.5 -5t-17.5 -18.5t-5 -42.5v-27h108v-112h-108v-368h-158v368z" />
    <glyph glyph-name="g" unicode="g" horiz-adv-x="571" 
d="M134.5 -167q-44.5 11 -63 41t-18.5 91v12h148v-5q0 -14 5 -21.5t19 -11t41 -3.5h18q38 0 53.5 5.5t20.5 22t5 57.5v68h-3q-18 -35 -50.5 -50t-83.5 -15h-9q-68 0 -106 17.5t-55 63t-17 131.5v36q0 84 17 130.5t55 66t105 19.5h11q50 0 83.5 -13.5t53.5 -49.5h1v55h154
v-446q0 -90 -20.5 -134.5t-69.5 -61t-145 -16.5h-17q-88 0 -132.5 11zM289 139q32 0 47.5 8t22 29t6.5 64v29q0 43 -6.5 64t-22 29t-47.5 8h-15q-31 0 -47 -8t-22.5 -29.5t-6.5 -63.5v-29q0 -42 6.5 -63.5t22.5 -29.5t47 -8h15z" />
    <glyph glyph-name="h" unicode="h" horiz-adv-x="582" 
d="M52 680h159v-272h1q19 42 52.5 61t88.5 19h7q69 0 105.5 -17.5t51.5 -59t15 -120.5v-291h-159v273q0 41 -5.5 59.5t-20.5 26t-48 7.5h-8q-33 0 -50 -8.5t-23.5 -28.5t-6.5 -57v-272h-159v680z" />
    <glyph glyph-name="i" unicode="i" horiz-adv-x="263" 
d="M52 556v124h159v-124h-159zM52 0v480h159v-480h-159z" />
    <glyph glyph-name="j" unicode="j" horiz-adv-x="266" 
d="M55 556v124h159v-124h-159zM4 -170v115q9 -1 19 -1q13 0 19.5 4.5t9.5 15t3 31.5v485h159v-508q0 -56 -17.5 -87.5t-51.5 -45t-88 -13.5q-29 0 -53 4z" />
    <glyph glyph-name="k" unicode="k" horiz-adv-x="531" 
d="M52 0v680h158v-380h19l109 180h177l-150 -224l164 -256h-185l-115 208h-19v-208h-158z" />
    <glyph glyph-name="l" unicode="l" horiz-adv-x="263" 
d="M52 0v680h159v-680h-159z" />
    <glyph glyph-name="m" unicode="m" horiz-adv-x="864" 
d="M52 480h157v-72h1q15 38 49 59t88 21h8q63 0 97.5 -20.5t47.5 -68.5h1q34 89 146 89h8q64 0 98.5 -18t48 -59.5t13.5 -119.5v-291h-159v273q0 39 -5 58t-19 27t-43 8h-8q-27 0 -41.5 -8t-20.5 -26t-6 -51v-281h-159v273q0 38 -5 58t-18 27.5t-37 7.5h-8q-32 0 -48 -8
t-21.5 -27t-5.5 -58v-273h-159v480z" />
    <glyph glyph-name="n" unicode="n" horiz-adv-x="582" 
d="M52 480h157v-72h1q19 42 53 61t90 19h7q68 0 105 -17.5t52 -59.5t15 -120v-291h-159v273q0 40 -5.5 59t-20.5 26.5t-48 7.5h-8q-32 0 -49 -8.5t-24 -28.5t-7 -57v-272h-159v480z" />
    <glyph glyph-name="o" unicode="o" horiz-adv-x="562" 
d="M129 12q-49 20 -69.5 67t-20.5 134v55q0 86 20.5 133t69.5 67t140 20h25q90 0 139 -20t69.5 -67t20.5 -133v-55q0 -87 -20.5 -134t-69 -67t-139.5 -20h-25q-91 0 -140 20zM289 112q32 0 48.5 9t22.5 30t6 62v55q0 42 -6 63.5t-22.5 30t-48.5 8.5h-16q-32 0 -48 -8.5
t-22.5 -30t-6.5 -63.5v-55q0 -41 6.5 -62t22.5 -30t48 -9h16z" />
    <glyph glyph-name="p" unicode="p" horiz-adv-x="577" 
d="M52 480h154v-55h2q20 37 53 50t86 13h11q70 0 108.5 -20.5t55 -69t16.5 -136.5v-41q0 -89 -16.5 -138t-55.5 -70t-110 -21h-13q-49 0 -79.5 14t-50.5 53h-2v-229h-159v650zM300 112q32 0 48.5 8.5t23 31.5t6.5 69v40q0 46 -6.5 69t-23 31.5t-48.5 8.5h-16q-32 0 -48 -8.5
t-23 -31.5t-7 -69v-40q0 -46 7 -69t23 -31.5t48 -8.5h16z" />
    <glyph glyph-name="q" unicode="q" horiz-adv-x="576" 
d="M365 59h-2q-20 -39 -51 -53t-79 -14h-13q-70 0 -109 21t-55.5 70t-16.5 138v41q0 88 16.5 136.5t54.5 69t107 20.5h13q52 0 85 -13t54 -50h1v55h154v-650h-159v229zM292 112q32 0 48.5 8.5t23 31.5t6.5 69v40q0 46 -6.5 69t-23 31.5t-48.5 8.5h-16q-32 0 -48 -8.5
t-23 -31.5t-7 -69v-40q0 -46 7 -69t23 -31.5t48 -8.5h16z" />
    <glyph glyph-name="r" unicode="r" horiz-adv-x="476" 
d="M52 480h154v-87h3q10 34 26 54.5t41 30.5t64 10h6q46 0 71 -14.5t35 -47.5t10 -91q0 -37 -2 -68h-135v31q0 23 -4 36t-14.5 19t-30.5 6h-8q-22 0 -34 -8.5t-17.5 -29.5t-5.5 -59v-262h-159v480z" />
    <glyph glyph-name="s" unicode="s" horiz-adv-x="522" 
d="M113.5 5q-45.5 13 -61.5 41t-16 81v22h147v-7q0 -18 5 -27t19 -12.5t43 -3.5h22q28 0 42 3t19.5 11t5.5 25v6q0 18 -6.5 27.5t-31.5 16t-78 9.5q-77 5 -116 19.5t-53.5 43t-14.5 80.5v10q0 52 17 81.5t58.5 43t116.5 13.5h21q93 0 139 -11.5t62.5 -39.5t16.5 -82v-13
h-143v4q0 16 -4.5 24t-18 11.5t-40.5 3.5h-14q-28 0 -41 -3t-17.5 -10t-4.5 -22v-7q0 -13 6 -19.5t24.5 -10.5t58.5 -7q90 -7 134.5 -22t61 -43.5t16.5 -80.5v-16q0 -59 -20 -92t-65.5 -46.5t-127.5 -13.5h-25q-91 0 -136.5 13z" />
    <glyph glyph-name="t" unicode="t" horiz-adv-x="468" 
d="M138.5 7q-35.5 15 -49 55.5t-13.5 122.5v181h-64v114h64v125h156v-125h198v-114h-199v-164q0 -44 3 -62t11 -23t28 -5h7q19 0 26.5 5t10 21.5t2.5 57.5v15h123v-46q0 -71 -14.5 -107t-52 -51t-111.5 -15h-17q-73 0 -108.5 15z" />
    <glyph glyph-name="u" unicode="u" horiz-adv-x="579" 
d="M114.5 10q-36.5 18 -52 61.5t-15.5 122.5v286h159v-272q0 -42 5.5 -61.5t20.5 -27t47 -7.5h8q33 0 50 8.5t24 29t7 59.5v271h159v-480h-157v73h-1q-17 -42 -52 -61.5t-93 -19.5h-7q-66 0 -102.5 18z" />
    <glyph glyph-name="v" unicode="v" horiz-adv-x="525" 
d="M155 0l-148 480h169l89 -360h3l86 360h164l-148 -480h-215z" />
    <glyph glyph-name="w" unicode="w" horiz-adv-x="828" 
d="M139 0l-127 480h168l70 -365h4l76 365h173l79 -365h4l68 365h162l-126 -480h-214l-60 323h-3l-59 -323h-215z" />
    <glyph glyph-name="x" unicode="x" horiz-adv-x="523" 
d="M519 0h-177l-81 186l-84 -186h-173l138 250l-124 230h176l67 -169l74 169h171l-126 -229z" />
    <glyph glyph-name="y" unicode="y" horiz-adv-x="513" 
d="M92 -170v116q13 -2 35 -2q45 0 68 16.5t32 59.5h-86l-134 460h165l83 -351h6l82 351h163l-126 -426q-28 -96 -56 -144t-65.5 -66t-99.5 -18q-23 0 -67 4z" />
    <glyph glyph-name="z" unicode="z" horiz-adv-x="458" 
d="M26 0v116l212 247v2h-200v115h387v-121l-208 -241v-2h219v-116h-410z" />
    <glyph glyph-name="braceleft" unicode="{" horiz-adv-x="391" 
d="M150.5 3q-28.5 11 -43.5 37t-15 71v118q0 36 -12.5 53.5t-43.5 17.5v86q31 0 43.5 17.5t12.5 53.5v112q0 45 15 71t43.5 37t72.5 11h102v-102h-23q-25 0 -38 -5t-18 -15t-5 -27v-79q0 -42 -4 -63t-20.5 -35t-53.5 -18v-2q37 -4 53.5 -18t20.5 -35t4 -63v-85q0 -17 5 -27
t18 -15t38 -5h23v-102h-102q-44 0 -72.5 11z" />
    <glyph glyph-name="bar" unicode="|" horiz-adv-x="314" 
d="M101 -70v820h112v-820h-112z" />
    <glyph glyph-name="braceright" unicode="}" horiz-adv-x="391" 
d="M66 94h23q25 0 38 5t18 15t5 27v85q0 42 4 63t20.5 35t53.5 18v2q-37 4 -53.5 18t-20.5 35t-4 63v79q0 17 -5 27t-18 15t-38 5h-23v102h101q45 0 73.5 -11t43.5 -37t15 -71v-112q0 -36 12.5 -53.5t43.5 -17.5v-86q-31 0 -43.5 -17.5t-12.5 -53.5v-118q0 -45 -15 -71
t-43.5 -37t-73.5 -11h-101v102z" />
    <glyph glyph-name="asciitilde" unicode="~" horiz-adv-x="567" 
d="M59 267q24 57 55.5 85.5t78.5 28.5q23 0 44.5 -6.5t45.5 -18.5q27 -13 45.5 -20t36.5 -7q24 0 36.5 11.5t25.5 37.5l82 -47q-26 -57 -56.5 -85.5t-77.5 -28.5q-24 0 -45.5 6.5t-44.5 18.5q-25 13 -44 20t-39 7q-23 0 -36.5 -11.5t-24.5 -37.5z" />
    <glyph glyph-name="uni00A0" unicode="&#xa0;" horiz-adv-x="249" 
 />
    <glyph glyph-name="exclamdown" unicode="&#xa1;" horiz-adv-x="310" 
d="M72 315v165h164v-165h-164zM69 -200l12 435h147l13 -435h-172z" />
    <glyph glyph-name="cent" unicode="&#xa2;" horiz-adv-x="615" 
d="M281 80q-89 1 -135 20t-64.5 63t-18.5 128v75q0 83 19 127t65 63t134 20v104h66v-104q81 -1 125 -17t62 -51.5t18 -98.5v-23h-140v15q0 22 -5 34t-19 18t-41 6v-260q27 0 41 6.5t19 19t5 33.5v15h140v-26q0 -63 -18 -98.5t-62 -51.5t-125 -17v-112h-66v112zM281 458
q-30 -1 -43.5 -8t-18.5 -25.5t-5 -58.5v-75q0 -40 5 -58.5t18.5 -25.5t43.5 -8v259z" />
    <glyph glyph-name="sterling" unicode="&#xa3;" horiz-adv-x="675" 
d="M55 131q30 2 45.5 13.5t23 37.5t9.5 76h-78v116h79v45q1 114 20.5 170t67 77.5t143.5 21.5h25q91 0 137.5 -15t66.5 -56t20 -122v-14h-155v13q0 27 -5.5 40.5t-20.5 19t-47 5.5h-12q-37 0 -54 -7.5t-23.5 -31.5t-6.5 -77v-69h206v-116h-208q-4 -37 -13.5 -60.5
t-27.5 -37.5t-47 -24v-3h423v-133h-568v131z" />
    <glyph glyph-name="currency" unicode="&#xa4;" horiz-adv-x="609" 
d="M44 113l83 84q-30 43 -30 112q0 62 28 108l-82 82l68 68l83 -83q51 30 111 30q61 0 111 -28l81 81l68 -68l-79 -79q30 -47 30 -111q0 -67 -32 -114l82 -82l-68 -68l-85 84q-48 -28 -108 -28q-57 0 -108 30l-86 -86zM352.5 227.5q20.5 12.5 31.5 34t11 47.5
q0 25 -11.5 46.5t-31.5 34t-46 12.5t-46 -12.5t-31 -33.5t-11 -47q0 -27 11 -48t31 -33.5t46 -12.5t46.5 12.5z" />
    <glyph glyph-name="yen" unicode="&#xa5;" horiz-adv-x="665" 
d="M249 0v185h-177v80h175v5l-39 78h-136v80h94l-132 252h180l118 -306h2l118 306h179l-131 -251h93v-81h-136l-40 -78v-5h176v-80h-177v-185h-167z" />
    <glyph glyph-name="brokenbar" unicode="&#xa6;" horiz-adv-x="314" 
d="M101 427v323h112v-323h-112zM101 -70v329h112v-329h-112z" />
    <glyph glyph-name="section" unicode="&#xa7;" horiz-adv-x="686" 
d="M158.5 -201.5q-54.5 14.5 -72 52t-17.5 122.5v22h161v-10q0 -34 7 -48.5t29 -20t73 -5.5h8q51 0 73.5 5.5t29 19.5t6.5 45v5q0 26 -8 38.5t-30.5 18t-69.5 5.5h-25q-99 0 -154 15.5t-78 50t-23 93.5v14q0 55 20 85.5t69 42.5v2q-50 10 -69.5 45t-19.5 100v10q0 74 21 112
t75 54t160 16h34q119 0 172 -16.5t68 -55t15 -122.5v-21h-158v11q0 35 -6.5 50.5t-25.5 21.5t-63 6h-18q-51 0 -73.5 -5t-29.5 -18t-7 -42v-9q0 -27 8.5 -41t34 -20t77.5 -6h11q104 0 159.5 -14.5t77.5 -48t22 -95.5v-12q0 -62 -22.5 -93t-73.5 -40v-2q37 -9 57.5 -24.5
t29.5 -43.5t9 -77v-10q0 -71 -21.5 -108.5t-76.5 -53t-161 -15.5h-27q-123 0 -177.5 14.5zM349 166q49 0 71 5t29 17.5t7 41.5v10q0 29 -7 42t-29 18t-71 5h-9q-49 0 -71.5 -5t-29.5 -18t-7 -42v-10q0 -29 7 -41.5t29 -17.5t72 -5h9z" />
    <glyph glyph-name="dieresis" unicode="&#xa8;" 
d="M38 556v124h134v-124h-134zM256 556v124h134v-124h-134z" />
    <glyph glyph-name="copyright" unicode="&#xa9;" horiz-adv-x="814" 
d="M172.5 15q-67.5 23 -92.5 91.5t-25 223.5v20q0 155 25 223.5t92.5 91.5t220.5 23h28q153 0 220.5 -23t92.5 -91.5t25 -223.5v-20q0 -155 -25 -223.5t-92.5 -91.5t-220.5 -23h-28q-153 0 -220.5 23zM421 49q132 0 185.5 18t70.5 73.5t17 193.5v12q0 138 -17 193.5
t-70.5 73.5t-185.5 18h-28q-132 0 -185.5 -18t-70.5 -73.5t-17 -193.5v-12q0 -138 17 -193.5t70.5 -73.5t185.5 -18h28zM296.5 150.5q-38.5 13.5 -54 50t-15.5 109.5v61q0 72 15.5 108t54.5 49.5t116 13.5h11q64 0 99 -13t49.5 -42t14.5 -81v-20h-120v14q0 24 -10 33.5
t-38 9.5h-5q-26 0 -38 -5.5t-16 -20t-4 -46.5v-61q0 -33 3.5 -47.5t15 -19t38.5 -4.5h6q20 0 30 4t14 13.5t4 26.5v13h120v-22q0 -54 -15 -83t-50 -41.5t-100 -12.5h-10q-77 0 -115.5 13.5z" />
    <glyph glyph-name="ordfeminine" unicode="&#xaa;" horiz-adv-x="389" 
d="M86.5 383q-21.5 8 -31 26t-9.5 51v19q0 35 11 53t33.5 25t61.5 7h10q35 0 51.5 -5t28.5 -17h2v24q0 20 -3.5 30t-13.5 14t-31 4h-11q-21 0 -29.5 -5.5t-8.5 -19.5v-4h-91v4q0 38 12 57t40.5 26.5t84.5 7.5h16q55 0 82 -10t37.5 -36t10.5 -79v-176h-92v27h-2
q-10 -15 -29.5 -23t-55.5 -8h-12q-40 0 -61.5 8zM196 439q20 0 30.5 2.5t14.5 8.5t4 18v6q0 13 -4.5 19.5t-15 9t-31.5 2.5h-8q-20 0 -29.5 -2.5t-13 -9t-3.5 -19.5v-5q0 -13 3.5 -19t13 -8.5t31.5 -2.5h8z" />
    <glyph glyph-name="guillemotleft" unicode="&#xab;" horiz-adv-x="516" 
d="M148 71l-97 200l97 201l108 -40l-75 -161l75 -160zM353 71l-97 200l97 201l109 -40l-76 -161l76 -160z" />
    <glyph glyph-name="logicalnot" unicode="&#xac;" horiz-adv-x="567" 
d="M384 179v146h-328v117h455v-263h-127z" />
    <glyph glyph-name="uni00AD" unicode="&#xad;" horiz-adv-x="422" 
d="M64 176v143h294v-143h-294z" />
    <glyph glyph-name="registered" unicode="&#xae;" horiz-adv-x="561" 
d="M131.5 281q-45.5 15 -63 56.5t-17.5 130.5v11q0 89 17.5 130.5t63 56.5t140.5 15h16q95 0 140.5 -15t63.5 -56.5t18 -130.5v-11q0 -89 -18 -130.5t-63.5 -56.5t-140.5 -15h-16q-95 0 -140.5 15zM288 311q78 0 112 11t46 42.5t12 103.5v11q0 72 -12 103.5t-46 42.5
t-112 11h-16q-77 0 -111 -11t-46 -42.5t-12 -103.5v-11q0 -72 12 -103.5t46 -42.5t111 -11h16zM182 596h128q31 0 48 -6t24.5 -21.5t7.5 -44.5v-9q0 -24 -7.5 -38t-22.5 -20v-1q19 -5 26 -19t7 -45v-40h-70v33q0 18 -3.5 27t-12.5 12t-28 3h-27v-75h-70v244zM289 478
q18 0 25.5 6.5t7.5 22.5v9q0 18 -7.5 24.5t-26.5 6.5h-36v-69h37z" />
    <glyph glyph-name="macron" unicode="&#xaf;" 
d="M69 571v94h290v-94h-290z" />
    <glyph glyph-name="degree" unicode="&#xb0;" horiz-adv-x="383" 
d="M110 406.5q-36 19.5 -56 55t-20 80.5t20 80.5t56 55.5t81 20q46 0 82 -20t56 -55.5t20 -80.5t-20 -80.5t-56 -55t-82 -19.5q-45 0 -81 19.5zM248.5 485.5q21.5 21.5 21.5 57.5q0 35 -21.5 57.5t-57.5 22.5q-35 0 -56.5 -22.5t-21.5 -57.5q0 -36 21.5 -57.5t56.5 -21.5
q36 0 57.5 21.5z" />
    <glyph glyph-name="plusminus" unicode="&#xb1;" horiz-adv-x="567" 
d="M220 171v149h-164v121h164v149h127v-149h164v-121h-164v-149h-127zM56 0v121h455v-121h-455z" />
    <glyph glyph-name="twosuperior" unicode="&#xb2;" horiz-adv-x="408" 
d="M41 526q0 45 13 70.5t44.5 40.5t92.5 25q35 6 50.5 11.5t20 12.5t4.5 20v14q0 13 -4.5 19.5t-18 9t-42.5 2.5h-6q-25 0 -36 -3.5t-14.5 -12t-3.5 -26.5v-14h-101v17q0 48 11.5 72t44 34.5t98.5 10.5h10q71 0 107 -10t49 -32.5t13 -65.5v-10q0 -41 -10 -63t-41 -36
t-97 -25q-34 -6 -51 -11t-23.5 -12.5t-6.5 -19.5v-10h231v-81h-334v73z" />
    <glyph glyph-name="threesuperior" unicode="&#xb3;" horiz-adv-x="412" 
d="M96 458q-33 9 -45.5 33t-12.5 73v17h100v-18q0 -16 4 -23.5t15.5 -10t37.5 -2.5h6q33 0 47.5 2.5t19 8.5t4.5 20v14q0 13 -3.5 20t-13 10t-27.5 3h-66v70h67q15 0 22.5 3t10.5 9.5t3 19.5v15q0 12 -4.5 18t-18 8.5t-42.5 2.5h-6q-25 0 -36.5 -2.5t-15.5 -9.5t-4 -23v-16
h-98v15q0 48 12.5 72t45 33t97.5 9h12q69 0 103.5 -8t48 -28.5t13.5 -60.5v-9q0 -27 -4.5 -42.5t-14.5 -24t-29 -14.5v-1q30 -6 42.5 -22.5t12.5 -54.5v-14q0 -41 -15 -62.5t-51.5 -30t-104.5 -8.5h-12q-67 0 -100 9z" />
    <glyph glyph-name="acute" unicode="&#xb4;" 
d="M146 528l-38 52l180 140l67 -97z" />
    <glyph glyph-name="mu" unicode="&#xb5;" horiz-adv-x="588" 
d="M52 480h159v-279q0 -38 6.5 -56.5t22 -25.5t47.5 -7h8q33 0 50.5 8t24.5 28.5t7 59.5v272h159v-480h-156v71h-2q-28 -75 -112 -75h-4q-13 0 -27.5 3.5t-21.5 7.5h-2v-177h-159v650z" />
    <glyph glyph-name="paragraph" unicode="&#xb6;" horiz-adv-x="651" 
d="M309 183h-40q-83 0 -128 22.5t-63 71.5t-18 135v41q0 95 20 142t74.5 66t165.5 19h273v-844h-112v758h-61v-758h-111v347z" />
    <glyph glyph-name="periodcentered" unicode="&#xb7;" horiz-adv-x="267" 
d="M51 184v165h165v-165h-165z" />
    <glyph glyph-name="cedilla" unicode="&#xb8;" 
d="M119 -212l-44 50l164 153l80 -89z" />
    <glyph glyph-name="onesuperior" unicode="&#xb9;" horiz-adv-x="329" 
d="M136 453v275h-2l-78 -60l-47 70l112 87h125v-372h-110z" />
    <glyph glyph-name="ordmasculine" unicode="&#xba;" horiz-adv-x="393" 
d="M98.5 390.5q-29.5 12.5 -41.5 41t-12 81.5v34q0 53 12 81t41.5 40t85.5 12h24q57 0 87 -12t42 -40t12 -81v-34q0 -53 -12 -81.5t-42 -41t-87 -12.5h-24q-56 0 -85.5 12.5zM204 455q20 0 29.5 5.5t13 17.5t3.5 35v34q0 23 -3.5 35t-13 17t-29.5 5h-16q-19 0 -29 -5.5
t-13.5 -17t-3.5 -34.5v-34q0 -23 3.5 -35t13.5 -17.5t29 -5.5h16z" />
    <glyph glyph-name="guillemotright" unicode="&#xbb;" horiz-adv-x="516" 
d="M162 72l-108 40l75 161l-75 160l108 40l97 -200zM367 72l-108 40l75 161l-75 160l108 40l97 -200z" />
    <glyph glyph-name="onequarter" unicode="&#xbc;" horiz-adv-x="906" 
d="M136 308v275h-2l-78 -60l-47 70l112 87h125v-372h-110zM217 0l274 680h94l-273 -680h-95zM724 0v75h-218v98l177 199h147v-222h49v-75h-49v-75h-106zM595 150h129v149h-4l-125 -148v-1z" />
    <glyph glyph-name="onehalf" unicode="&#xbd;" horiz-adv-x="881" 
d="M136 308v275h-2l-78 -60l-47 70l112 87h125v-372h-110zM217 0l274 680h94l-273 -680h-95zM514 73q0 45 13 70.5t44.5 40.5t92.5 25q35 6 50.5 11.5t20 12.5t4.5 20v14q0 13 -4.5 19.5t-18 9t-42.5 2.5h-6q-25 0 -36 -3.5t-14.5 -12t-3.5 -26.5v-14h-101v17q0 48 11.5 72
t44 34.5t98.5 10.5h10q71 0 107 -10t49 -32.5t13 -65.5v-10q0 -41 -10 -63t-41 -36t-97 -25q-34 -6 -51 -11t-23.5 -12.5t-6.5 -19.5v-10h231v-81h-334v73z" />
    <glyph glyph-name="threequarters" unicode="&#xbe;" horiz-adv-x="989" 
d="M96 313q-33 9 -45.5 33t-12.5 73v17h100v-18q0 -16 4 -23.5t15.5 -10t37.5 -2.5h6q33 0 47.5 2.5t19 8.5t4.5 20v14q0 13 -3.5 20t-13 10t-27.5 3h-66v70h67q15 0 22.5 3t10.5 9.5t3 19.5v15q0 12 -4.5 18t-18 8.5t-42.5 2.5h-6q-25 0 -36.5 -2.5t-15.5 -9.5t-4 -23v-16
h-98v15q0 48 12.5 72t45 33t97.5 9h12q69 0 103.5 -8t48 -28.5t13.5 -60.5v-9q0 -27 -4.5 -42.5t-14.5 -24t-29 -14.5v-1q30 -6 42.5 -22.5t12.5 -54.5v-14q0 -41 -15 -62.5t-51.5 -30t-104.5 -8.5h-12q-67 0 -100 9zM300 0l274 680h94l-273 -680h-95zM807 0v75h-218v98
l177 199h147v-222h49v-75h-49v-75h-106zM678 150h129v149h-4l-125 -148v-1z" />
    <glyph glyph-name="questiondown" unicode="&#xbf;" horiz-adv-x="570" 
d="M215 320v160h164v-160h-164zM130 -193q-49 15 -69 52.5t-20 108.5v18q0 58 9.5 91.5t34.5 55t74 37.5q32 11 44.5 17t17 16t4.5 32v15h147v-32q0 -47 -8.5 -73.5t-29.5 -43.5t-63 -31q-39 -13 -55.5 -22.5t-22 -21t-5.5 -35.5v-7q0 -30 7 -44t25 -19.5t55 -5.5h13
q41 0 59 6t25 24.5t7 60.5v21h143v-33q0 -85 -20 -127.5t-69 -58.5t-146 -16h-15q-93 0 -142 15z" />
    <glyph glyph-name="Agrave" unicode="&#xc0;" horiz-adv-x="707" 
d="M9 0l222 680h243l224 -680h-185l-38 132h-249l-38 -132h-179zM262 260h175l-84 295h-5zM414 725l-218 68l52 105l197 -117z" />
    <glyph glyph-name="Aacute" unicode="&#xc1;" horiz-adv-x="707" 
d="M9 0l222 680h243l224 -680h-185l-38 132h-249l-38 -132h-179zM262 260h175l-84 295h-5zM280 725l-31 56l197 117l52 -105z" />
    <glyph glyph-name="Acircumflex" unicode="&#xc2;" horiz-adv-x="707" 
d="M9 0l222 680h243l224 -680h-185l-38 132h-249l-38 -132h-179zM262 260h175l-84 295h-5zM239 728l-49 54l161 124l161 -124l-49 -54l-112 65z" />
    <glyph glyph-name="Atilde" unicode="&#xc3;" horiz-adv-x="707" 
d="M9 0l222 680h243l224 -680h-185l-38 132h-249l-38 -132h-179zM262 260h175l-84 295h-5zM202 753q2 56 23.5 88t65.5 32q17 0 31 -5t31 -14t28.5 -14t22.5 -5q15 0 23.5 10.5t9.5 29.5l61 -13q-2 -59 -23.5 -90.5t-67.5 -31.5q-17 0 -31 4.5t-32 14.5q-14 8 -25.5 12.5
t-22.5 4.5q-15 0 -24 -8.5t-11 -28.5z" />
    <glyph glyph-name="Adieresis" unicode="&#xc4;" horiz-adv-x="707" 
d="M9 0l222 680h243l224 -680h-185l-38 132h-249l-38 -132h-179zM262 260h175l-84 295h-5zM173 744v124h134v-124h-134zM393 744v124h134v-124h-134z" />
    <glyph glyph-name="Aring" unicode="&#xc5;" horiz-adv-x="707" 
d="M9 0l222 680h243l224 -680h-185l-38 132h-249l-38 -132h-179zM262 260h175l-84 295h-5zM253 729q-31 24 -31 72v6q0 48 31 71.5t95 23.5h4q64 0 95 -23.5t31 -71.5v-6q0 -48 -31 -72t-95 -24h-4q-64 0 -95 24zM352 766q24 0 36 8.5t12 25.5v6q0 17 -12 25.5t-36 8.5h-4
q-24 0 -36 -8.5t-12 -25.5v-6q0 -17 12 -25.5t36 -8.5h4z" />
    <glyph glyph-name="AE" unicode="&#xc6;" horiz-adv-x="992" 
d="M15 0l274 680h663v-133h-316v-137h295v-126h-295v-148h326v-136h-496v132h-220l-48 -132h-183zM294 260h172v289h-65z" />
    <glyph glyph-name="Ccedilla" unicode="&#xc7;" horiz-adv-x="679" 
d="M154 17.5q-62 25.5 -87 88.5t-25 184v102q0 119 25 181.5t87.5 88.5t182.5 26h19q113 0 172.5 -20.5t83 -67t23.5 -131.5v-32h-169v22q0 32 -9 52t-33 30.5t-69 10.5h-12q-53 0 -78.5 -13t-35 -46t-9.5 -102v-99q0 -71 10.5 -105t35.5 -45.5t75 -11.5h13q43 0 68 9
t36.5 30t11.5 59v26h168v-41q0 -87 -26 -134t-86.5 -67t-170.5 -20h-19q-120 0 -182 25.5zM241 -212l-44 50l164 153l80 -89z" />
    <glyph glyph-name="Egrave" unicode="&#xc8;" horiz-adv-x="585" 
d="M55 0v680h490v-133h-316v-137h295v-126h-295v-148h326v-136h-500zM377 725l-218 68l52 105l197 -117z" />
    <glyph glyph-name="Eacute" unicode="&#xc9;" horiz-adv-x="585" 
d="M55 0v680h490v-133h-316v-137h295v-126h-295v-148h326v-136h-500zM214 725l-31 56l197 117l52 -105z" />
    <glyph glyph-name="Ecircumflex" unicode="&#xca;" horiz-adv-x="585" 
d="M55 0v680h490v-133h-316v-137h295v-126h-295v-148h326v-136h-500zM190 728l-49 54l161 124l161 -124l-49 -54l-112 65z" />
    <glyph glyph-name="Edieresis" unicode="&#xcb;" horiz-adv-x="585" 
d="M55 0v680h490v-133h-316v-137h295v-126h-295v-148h326v-136h-500zM122 744v124h134v-124h-134zM342 744v124h134v-124h-134z" />
    <glyph glyph-name="Igrave" unicode="&#xcc;" horiz-adv-x="285" 
d="M55 0v680h175v-680h-175zM184 725l-218 68l52 105l197 -117z" />
    <glyph glyph-name="Iacute" unicode="&#xcd;" horiz-adv-x="285" 
d="M55 0v680h175v-680h-175zM98 725l-31 56l197 117l52 -105z" />
    <glyph glyph-name="Icircumflex" unicode="&#xce;" horiz-adv-x="285" 
d="M55 0v680h175v-680h-175zM30 728l-49 54l161 124l161 -124l-49 -54l-112 65z" />
    <glyph glyph-name="Idieresis" unicode="&#xcf;" horiz-adv-x="285" 
d="M55 0v680h175v-680h-175zM-35 744v124h134v-124h-134zM185 744v124h134v-124h-134z" />
    <glyph glyph-name="Eth" unicode="&#xd0;" horiz-adv-x="717" 
d="M55 298h-44v97h44v285h299q136 0 201.5 -20.5t91.5 -78t26 -177.5v-122q0 -123 -23.5 -180.5t-89 -79.5t-206.5 -22h-299v298zM347 136q66 0 97 12.5t42 45.5t11 103v95q0 68 -11 99.5t-42 43.5t-97 12h-117v-152h115v-97h-115v-162h117z" />
    <glyph glyph-name="Ntilde" unicode="&#xd1;" horiz-adv-x="758" 
d="M55 0v680h257l232 -527h5l-8 527h162v-680h-251l-236 530h-5l5 -530h-161zM234 753q2 56 23.5 88t65.5 32q17 0 31 -5t31 -14t28.5 -14t22.5 -5q15 0 23.5 10.5t9.5 29.5l61 -13q-2 -59 -23.5 -90.5t-67.5 -31.5q-17 0 -31 4.5t-32 14.5q-14 8 -25.5 12.5t-22.5 4.5
q-15 0 -24 -8.5t-11 -28.5z" />
    <glyph glyph-name="Ograve" unicode="&#xd2;" horiz-adv-x="713" 
d="M157.5 19q-64.5 27 -90 90t-25.5 180v102q0 117 25.5 180t90 90t187.5 27h23q123 0 187.5 -27t90 -90t25.5 -180v-102q0 -117 -25.5 -180t-90 -90t-187.5 -27h-23q-123 0 -187.5 27zM365 130q53 0 80 13t37.5 47t10.5 102v98q0 68 -10.5 102t-37.5 47t-80 13h-17
q-53 0 -80 -13t-37.5 -47t-10.5 -102v-98q0 -68 10.5 -102t37.5 -47t80 -13h17zM436 725l-218 68l52 105l197 -117z" />
    <glyph glyph-name="Oacute" unicode="&#xd3;" horiz-adv-x="713" 
d="M157.5 19q-64.5 27 -90 90t-25.5 180v102q0 117 25.5 180t90 90t187.5 27h23q123 0 187.5 -27t90 -90t25.5 -180v-102q0 -117 -25.5 -180t-90 -90t-187.5 -27h-23q-123 0 -187.5 27zM365 130q53 0 80 13t37.5 47t10.5 102v98q0 68 -10.5 102t-37.5 47t-80 13h-17
q-53 0 -80 -13t-37.5 -47t-10.5 -102v-98q0 -68 10.5 -102t37.5 -47t80 -13h17zM272 725l-31 56l197 117l52 -105z" />
    <glyph glyph-name="Ocircumflex" unicode="&#xd4;" horiz-adv-x="713" 
d="M157.5 19q-64.5 27 -90 90t-25.5 180v102q0 117 25.5 180t90 90t187.5 27h23q123 0 187.5 -27t90 -90t25.5 -180v-102q0 -117 -25.5 -180t-90 -90t-187.5 -27h-23q-123 0 -187.5 27zM365 130q53 0 80 13t37.5 47t10.5 102v98q0 68 -10.5 102t-37.5 47t-80 13h-17
q-53 0 -80 -13t-37.5 -47t-10.5 -102v-98q0 -68 10.5 -102t37.5 -47t80 -13h17zM244 728l-49 54l161 124l161 -124l-49 -54l-112 65z" />
    <glyph glyph-name="Otilde" unicode="&#xd5;" horiz-adv-x="713" 
d="M157.5 19q-64.5 27 -90 90t-25.5 180v102q0 117 25.5 180t90 90t187.5 27h23q123 0 187.5 -27t90 -90t25.5 -180v-102q0 -117 -25.5 -180t-90 -90t-187.5 -27h-23q-123 0 -187.5 27zM365 130q53 0 80 13t37.5 47t10.5 102v98q0 68 -10.5 102t-37.5 47t-80 13h-17
q-53 0 -80 -13t-37.5 -47t-10.5 -102v-98q0 -68 10.5 -102t37.5 -47t80 -13h17zM208 753q2 56 23.5 88t65.5 32q17 0 31 -5t31 -14t28.5 -14t22.5 -5q15 0 23.5 10.5t9.5 29.5l61 -13q-2 -59 -23.5 -90.5t-67.5 -31.5q-17 0 -31 4.5t-32 14.5q-14 8 -25.5 12.5t-22.5 4.5
q-15 0 -24 -8.5t-11 -28.5z" />
    <glyph glyph-name="Odieresis" unicode="&#xd6;" horiz-adv-x="713" 
d="M157.5 19q-64.5 27 -90 90t-25.5 180v102q0 117 25.5 180t90 90t187.5 27h23q123 0 187.5 -27t90 -90t25.5 -180v-102q0 -117 -25.5 -180t-90 -90t-187.5 -27h-23q-123 0 -187.5 27zM365 130q53 0 80 13t37.5 47t10.5 102v98q0 68 -10.5 102t-37.5 47t-80 13h-17
q-53 0 -80 -13t-37.5 -47t-10.5 -102v-98q0 -68 10.5 -102t37.5 -47t80 -13h17zM179 744v124h134v-124h-134zM399 744v124h134v-124h-134z" />
    <glyph glyph-name="multiply" unicode="&#xd7;" horiz-adv-x="567" 
d="M146 68l-86 82l141 145l-137 141l86 82l134 -138l134 137l86 -80l-137 -141l140 -144l-86 -84l-138 141z" />
    <glyph glyph-name="Oslash" unicode="&#xd8;" horiz-adv-x="711" 
d="M628 599q22 -34 31.5 -84.5t9.5 -123.5v-102q0 -117 -25 -180t-89.5 -90t-187.5 -27h-23q-76 0 -128 10t-86 31l-57 -64l-55 49l60 69q-20 33 -28 81.5t-8 120.5v102q0 117 25 180t89.5 90t187.5 27h23q72 0 122.5 -9t84.5 -28l55 62l57 -49zM215 292q0 -38 2 -53
l248 286q-14 16 -38.5 22.5t-62.5 6.5h-17q-55 0 -82.5 -13.5t-38.5 -48t-11 -102.5v-98zM496 390q0 24 -2 54l-250 -288q14 -15 38.5 -21.5t64.5 -6.5h17q55 0 82.5 13.5t38.5 48t11 102.5v98z" />
    <glyph glyph-name="Ugrave" unicode="&#xd9;" horiz-adv-x="698" 
d="M157.5 12.5q-59.5 20.5 -82 71t-22.5 151.5v445h175v-428q0 -55 8 -79.5t31 -33.5t74 -9h15q52 0 75 9t31 33.5t8 79.5v428h175v-445q0 -101 -22 -151.5t-82 -71t-183 -20.5h-19q-122 0 -181.5 20.5zM430 725l-218 68l52 105l197 -117z" />
    <glyph glyph-name="Uacute" unicode="&#xda;" horiz-adv-x="698" 
d="M157.5 12.5q-59.5 20.5 -82 71t-22.5 151.5v445h175v-428q0 -55 8 -79.5t31 -33.5t74 -9h15q52 0 75 9t31 33.5t8 79.5v428h175v-445q0 -101 -22 -151.5t-82 -71t-183 -20.5h-19q-122 0 -181.5 20.5zM254 725l-31 56l197 117l52 -105z" />
    <glyph glyph-name="Ucircumflex" unicode="&#xdb;" horiz-adv-x="698" 
d="M157.5 12.5q-59.5 20.5 -82 71t-22.5 151.5v445h175v-428q0 -55 8 -79.5t31 -33.5t74 -9h15q52 0 75 9t31 33.5t8 79.5v428h175v-445q0 -101 -22 -151.5t-82 -71t-183 -20.5h-19q-122 0 -181.5 20.5zM237 728l-49 54l161 124l161 -124l-49 -54l-112 65z" />
    <glyph glyph-name="Udieresis" unicode="&#xdc;" horiz-adv-x="698" 
d="M157.5 12.5q-59.5 20.5 -82 71t-22.5 151.5v445h175v-428q0 -55 8 -79.5t31 -33.5t74 -9h15q52 0 75 9t31 33.5t8 79.5v428h175v-445q0 -101 -22 -151.5t-82 -71t-183 -20.5h-19q-122 0 -181.5 20.5zM172 744v124h134v-124h-134zM392 744v124h134v-124h-134z" />
    <glyph glyph-name="Yacute" unicode="&#xdd;" horiz-adv-x="650" 
d="M237 0v220l-230 460h188l131 -307h3l126 307h188l-231 -460v-220h-175zM274 725l-31 56l197 117l52 -105z" />
    <glyph glyph-name="Thorn" unicode="&#xde;" horiz-adv-x="645" 
d="M55 680h171v-85h124q108 0 163 -18.5t77.5 -66t22.5 -142.5v-41q0 -94 -23 -142.5t-77 -66.5t-155 -18h-132v-100h-171v680zM339 233q44 0 65.5 8.5t29.5 27.5t8 56v45q0 39 -8 58.5t-30 27.5t-66 8h-112v-231h113z" />
    <glyph glyph-name="germandbls" unicode="&#xdf;" horiz-adv-x="590" 
d="M299.5 -3.5q-27.5 4.5 -45.5 12.5l12 112q12 -5 30 -8.5t36 -3.5q26 0 38.5 8t18 30t5.5 65v52q0 41 -6.5 61t-24 27t-54.5 7h-19v106h13q20 0 31 4t15.5 15t4.5 32v11q0 21 -5 32t-18 15.5t-39 4.5h-22q-25 0 -37.5 -6t-17.5 -22.5t-5 -49.5v-501h-158v501
q0 70 18.5 110t63 58t123.5 18h43q74 0 118.5 -14t65 -44t20.5 -80v-16q0 -50 -19.5 -74.5t-60.5 -33.5v-2q44 -4 71.5 -20.5t41.5 -52.5t14 -98v-54q0 -75 -19 -120t-60.5 -65.5t-110.5 -20.5q-34 0 -61.5 4.5z" />
    <glyph glyph-name="agrave" unicode="&#xe0;" horiz-adv-x="547" 
d="M102.5 6q-34.5 14 -48.5 45.5t-14 89.5v22q0 54 17 85t54 44.5t101 13.5h7q51 0 80 -9t44 -29h4v43q0 33 -4.5 47.5t-18.5 20t-46 5.5h-12q-28 0 -43 -3t-20.5 -10t-5.5 -20v-13h-145v10q0 58 19.5 87.5t66 41t136.5 11.5h18q91 0 133 -16t57.5 -59t15.5 -135v-278h-151
v49h-3q-16 -30 -44 -43.5t-82 -13.5h-16q-65 0 -99.5 14zM274 98q33 0 48.5 4t21 14t5.5 29v18q0 20 -5 29.5t-21 13.5t-51 4h-9q-33 0 -49 -4t-21.5 -14t-5.5 -29v-18q0 -20 6 -29.5t22.5 -13.5t50.5 -4h8zM356 528l-210 95l68 97l180 -140z" />
    <glyph glyph-name="aacute" unicode="&#xe1;" horiz-adv-x="547" 
d="M102.5 6q-34.5 14 -48.5 45.5t-14 89.5v22q0 54 17 85t54 44.5t101 13.5h7q51 0 80 -9t44 -29h4v43q0 33 -4.5 47.5t-18.5 20t-46 5.5h-12q-28 0 -43 -3t-20.5 -10t-5.5 -20v-13h-145v10q0 58 19.5 87.5t66 41t136.5 11.5h18q91 0 133 -16t57.5 -59t15.5 -135v-278h-151
v49h-3q-16 -30 -44 -43.5t-82 -13.5h-16q-65 0 -99.5 14zM274 98q33 0 48.5 4t21 14t5.5 29v18q0 20 -5 29.5t-21 13.5t-51 4h-9q-33 0 -49 -4t-21.5 -14t-5.5 -29v-18q0 -20 6 -29.5t22.5 -13.5t50.5 -4h8zM203 528l-38 52l180 140l67 -97z" />
    <glyph glyph-name="acircumflex" unicode="&#xe2;" horiz-adv-x="547" 
d="M102.5 6q-34.5 14 -48.5 45.5t-14 89.5v22q0 54 17 85t54 44.5t101 13.5h7q51 0 80 -9t44 -29h4v43q0 33 -4.5 47.5t-18.5 20t-46 5.5h-12q-28 0 -43 -3t-20.5 -10t-5.5 -20v-13h-145v10q0 58 19.5 87.5t66 41t136.5 11.5h18q91 0 133 -16t57.5 -59t15.5 -135v-278h-151
v49h-3q-16 -30 -44 -43.5t-82 -13.5h-16q-65 0 -99.5 14zM274 98q33 0 48.5 4t21 14t5.5 29v18q0 20 -5 29.5t-21 13.5t-51 4h-9q-33 0 -49 -4t-21.5 -14t-5.5 -29v-18q0 -20 6 -29.5t22.5 -13.5t50.5 -4h8zM164 536l-49 54l161 125l161 -125l-49 -54l-112 66z" />
    <glyph glyph-name="atilde" unicode="&#xe3;" horiz-adv-x="547" 
d="M102.5 6q-34.5 14 -48.5 45.5t-14 89.5v22q0 54 17 85t54 44.5t101 13.5h7q51 0 80 -9t44 -29h4v43q0 33 -4.5 47.5t-18.5 20t-46 5.5h-12q-28 0 -43 -3t-20.5 -10t-5.5 -20v-13h-145v10q0 58 19.5 87.5t66 41t136.5 11.5h18q91 0 133 -16t57.5 -59t15.5 -135v-278h-151
v49h-3q-16 -30 -44 -43.5t-82 -13.5h-16q-65 0 -99.5 14zM274 98q33 0 48.5 4t21 14t5.5 29v18q0 20 -5 29.5t-21 13.5t-51 4h-9q-33 0 -49 -4t-21.5 -14t-5.5 -29v-18q0 -20 6 -29.5t22.5 -13.5t50.5 -4h8zM123 564q2 56 23.5 88t65.5 32q17 0 31 -5t31 -14t28.5 -14
t22.5 -5q15 0 23.5 10.5t9.5 29.5l61 -13q-2 -59 -23.5 -90.5t-67.5 -31.5q-17 0 -31 4.5t-32 14.5q-14 8 -25.5 12.5t-22.5 4.5q-15 0 -24 -8.5t-11 -28.5z" />
    <glyph glyph-name="adieresis" unicode="&#xe4;" horiz-adv-x="547" 
d="M102.5 6q-34.5 14 -48.5 45.5t-14 89.5v22q0 54 17 85t54 44.5t101 13.5h7q51 0 80 -9t44 -29h4v43q0 33 -4.5 47.5t-18.5 20t-46 5.5h-12q-28 0 -43 -3t-20.5 -10t-5.5 -20v-13h-145v10q0 58 19.5 87.5t66 41t136.5 11.5h18q91 0 133 -16t57.5 -59t15.5 -135v-278h-151
v49h-3q-16 -30 -44 -43.5t-82 -13.5h-16q-65 0 -99.5 14zM274 98q33 0 48.5 4t21 14t5.5 29v18q0 20 -5 29.5t-21 13.5t-51 4h-9q-33 0 -49 -4t-21.5 -14t-5.5 -29v-18q0 -20 6 -29.5t22.5 -13.5t50.5 -4h8zM99 556v124h134v-124h-134zM317 556v124h134v-124h-134z" />
    <glyph glyph-name="aring" unicode="&#xe5;" horiz-adv-x="547" 
d="M102.5 6q-34.5 14 -48.5 45.5t-14 89.5v22q0 54 17 85t54 44.5t101 13.5h7q51 0 80 -9t44 -29h4v43q0 33 -4.5 47.5t-18.5 20t-46 5.5h-12q-28 0 -43 -3t-20.5 -10t-5.5 -20v-13h-145v10q0 58 19.5 87.5t66 41t136.5 11.5h18q91 0 133 -16t57.5 -59t15.5 -135v-278h-151
v49h-3q-16 -30 -44 -43.5t-82 -13.5h-16q-65 0 -99.5 14zM274 98q33 0 48.5 4t21 14t5.5 29v18q0 20 -5 29.5t-21 13.5t-51 4h-9q-33 0 -49 -4t-21.5 -14t-5.5 -29v-18q0 -20 6 -29.5t22.5 -13.5t50.5 -4h8zM180 550q-31 24 -31 72v6q0 48 31 71.5t95 23.5h4q64 0 95 -23.5
t31 -71.5v-6q0 -48 -31 -72t-95 -24h-4q-64 0 -95 24zM279 587q24 0 36 8.5t12 25.5v6q0 17 -12 25.5t-36 8.5h-4q-24 0 -36 -8.5t-12 -25.5v-6q0 -17 12 -25.5t36 -8.5h4z" />
    <glyph glyph-name="ae" unicode="&#xe6;" horiz-adv-x="847" 
d="M102.5 6q-34.5 14 -48.5 45.5t-14 89.5v22q0 54 17 85t54 44.5t101 13.5h13q48 0 75.5 -9t42.5 -29h4v43q0 33 -4.5 47.5t-18.5 20t-46 5.5h-12q-28 0 -43 -3t-20.5 -10t-5.5 -20v-13h-145v10q0 58 19 87.5t64.5 41t132.5 11.5h18q62 0 95 -10.5t47 -34.5h1
q18 22 50 33.5t85 11.5h22q85 0 131.5 -16.5t68 -61.5t21.5 -131v-76h-308v-22q0 -35 6 -51t22 -21.5t51 -5.5h14q31 0 45.5 3.5t20.5 13t6 29.5v9h144v-11q0 -59 -22.5 -93t-66.5 -48t-114 -14h-29q-60 0 -98 8t-61 27.5t-35 54.5h-3q-13 -36 -34.5 -55.5t-51 -27
t-72.5 -7.5h-19q-65 0 -99.5 14zM662 295v14q0 31 -6 47t-22.5 22.5t-50.5 6.5h-8q-34 0 -50 -6.5t-21.5 -25t-5.5 -58.5h164zM274 98q33 0 48.5 4t21 14t5.5 29v18q0 20 -5 29.5t-21 13.5t-51 4h-9q-33 0 -49 -4t-21.5 -14t-5.5 -29v-18q0 -20 6 -29.5t22.5 -13.5t50.5 -4
h8z" />
    <glyph glyph-name="ccedilla" unicode="&#xe7;" horiz-adv-x="535" 
d="M125.5 12q-47.5 20 -67 67t-19.5 134v55q0 86 20 133t68.5 67t137.5 20h23q82 0 127.5 -17t64 -53t18.5 -97v-23h-145v11q0 34 -14.5 47.5t-51.5 13.5h-17q-31 0 -46 -8.5t-20.5 -29.5t-5.5 -64v-55q0 -42 6 -63t22 -29.5t47 -8.5h18q25 0 38 6t18 19t5 38v10h146v-18
q0 -66 -18.5 -103.5t-64.5 -54.5t-131 -17h-23q-88 0 -135.5 20zM167 -212l-44 50l164 153l80 -89z" />
    <glyph glyph-name="egrave" unicode="&#xe8;" horiz-adv-x="541" 
d="M124 11.5q-47 19.5 -66 66.5t-19 135v55q0 88 21.5 135t68 66t129.5 19h21q88 0 135 -18t66.5 -62.5t19.5 -128.5v-76h-308v-22q0 -34 6 -50t22 -22t51 -6h14q31 0 46 4t20.5 13.5t5.5 28.5v9h145v-11q0 -58 -21.5 -91.5t-68 -48.5t-124.5 -15h-28q-89 0 -136 19.5z
M355 295v12q0 32 -6 48t-22.5 23t-50.5 7h-7q-35 0 -51 -7t-21.5 -25t-5.5 -58h164zM353 528l-210 95l68 97l180 -140z" />
    <glyph glyph-name="eacute" unicode="&#xe9;" horiz-adv-x="541" 
d="M124 11.5q-47 19.5 -66 66.5t-19 135v55q0 88 21.5 135t68 66t129.5 19h21q88 0 135 -18t66.5 -62.5t19.5 -128.5v-76h-308v-22q0 -34 6 -50t22 -22t51 -6h14q31 0 46 4t20.5 13.5t5.5 28.5v9h145v-11q0 -58 -21.5 -91.5t-68 -48.5t-124.5 -15h-28q-89 0 -136 19.5z
M355 295v12q0 32 -6 48t-22.5 23t-50.5 7h-7q-35 0 -51 -7t-21.5 -25t-5.5 -58h164zM197 528l-38 52l180 140l67 -97z" />
    <glyph glyph-name="ecircumflex" unicode="&#xea;" horiz-adv-x="541" 
d="M124 11.5q-47 19.5 -66 66.5t-19 135v55q0 88 21.5 135t68 66t129.5 19h21q88 0 135 -18t66.5 -62.5t19.5 -128.5v-76h-308v-22q0 -34 6 -50t22 -22t51 -6h14q31 0 46 4t20.5 13.5t5.5 28.5v9h145v-11q0 -58 -21.5 -91.5t-68 -48.5t-124.5 -15h-28q-89 0 -136 19.5z
M355 295v12q0 32 -6 48t-22.5 23t-50.5 7h-7q-35 0 -51 -7t-21.5 -25t-5.5 -58h164zM161 536l-49 54l161 125l161 -125l-49 -54l-112 66z" />
    <glyph glyph-name="edieresis" unicode="&#xeb;" horiz-adv-x="541" 
d="M124 11.5q-47 19.5 -66 66.5t-19 135v55q0 88 21.5 135t68 66t129.5 19h21q88 0 135 -18t66.5 -62.5t19.5 -128.5v-76h-308v-22q0 -34 6 -50t22 -22t51 -6h14q31 0 46 4t20.5 13.5t5.5 28.5v9h145v-11q0 -58 -21.5 -91.5t-68 -48.5t-124.5 -15h-28q-89 0 -136 19.5z
M355 295v12q0 32 -6 48t-22.5 23t-50.5 7h-7q-35 0 -51 -7t-21.5 -25t-5.5 -58h164zM98 556v124h134v-124h-134zM316 556v124h134v-124h-134z" />
    <glyph glyph-name="igrave" unicode="&#xec;" horiz-adv-x="263" 
d="M52 0v480h159v-480h-159zM164 528l-210 95l68 97l180 -140z" />
    <glyph glyph-name="iacute" unicode="&#xed;" horiz-adv-x="263" 
d="M52 0v480h159v-480h-159zM95 528l-38 52l180 140l67 -97z" />
    <glyph glyph-name="icircumflex" unicode="&#xee;" horiz-adv-x="263" 
d="M52 0v480h159v-480h-159zM19 536l-49 54l161 125l161 -125l-49 -54l-112 66z" />
    <glyph glyph-name="idieresis" unicode="&#xef;" horiz-adv-x="263" 
d="M-39 556v124h134v-124h-134zM168 556v124h134v-124h-134zM52 0v480h159v-480h-159z" />
    <glyph glyph-name="eth" unicode="&#xf0;" horiz-adv-x="558" 
d="M122.5 12q-46.5 20 -65 66t-18.5 133v34q0 80 18 126t57 66t104 20h9q55 0 87 -13.5t47 -41.5h1q-2 50 -30.5 86t-76.5 57l-101 -51l-27 54l50 25q-54 16 -118 20l49 95q122 -9 201 -40l98 50l27 -53l-59 -30q57 -35 88.5 -88t43.5 -123.5t12 -168.5v-13
q0 -93 -18.5 -141.5t-67.5 -68.5t-146 -20h-28q-90 0 -136.5 20zM287 112q33 0 48.5 8t21.5 29t6 65v27q0 44 -6.5 65t-22 28.5t-47.5 7.5h-17q-32 0 -47.5 -7.5t-22 -28.5t-6.5 -65v-27q0 -44 6 -65.5t22 -29t48 -7.5h17z" />
    <glyph glyph-name="ntilde" unicode="&#xf1;" horiz-adv-x="582" 
d="M52 480h157v-72h1q19 42 53 61t90 19h7q68 0 105 -17.5t52 -59.5t15 -120v-291h-159v273q0 40 -5.5 59t-20.5 26.5t-48 7.5h-8q-32 0 -49 -8.5t-24 -28.5t-7 -57v-272h-159v480zM149 564q2 56 23.5 88t65.5 32q17 0 31 -5t31 -14t28.5 -14t22.5 -5q15 0 23.5 10.5
t9.5 29.5l61 -13q-2 -59 -23.5 -90.5t-67.5 -31.5q-17 0 -31 4.5t-32 14.5q-14 8 -25.5 12.5t-22.5 4.5q-15 0 -24 -8.5t-11 -28.5z" />
    <glyph glyph-name="ograve" unicode="&#xf2;" horiz-adv-x="562" 
d="M129 12q-49 20 -69.5 67t-20.5 134v55q0 86 20.5 133t69.5 67t140 20h25q90 0 139 -20t69.5 -67t20.5 -133v-55q0 -87 -20.5 -134t-69 -67t-139.5 -20h-25q-91 0 -140 20zM289 112q32 0 48.5 9t22.5 30t6 62v55q0 42 -6 63.5t-22.5 30t-48.5 8.5h-16q-32 0 -48 -8.5
t-22.5 -30t-6.5 -63.5v-55q0 -41 6.5 -62t22.5 -30t48 -9h16zM365 528l-210 95l68 97l180 -140z" />
    <glyph glyph-name="oacute" unicode="&#xf3;" horiz-adv-x="562" 
d="M129 12q-49 20 -69.5 67t-20.5 134v55q0 86 20.5 133t69.5 67t140 20h25q90 0 139 -20t69.5 -67t20.5 -133v-55q0 -87 -20.5 -134t-69 -67t-139.5 -20h-25q-91 0 -140 20zM289 112q32 0 48.5 9t22.5 30t6 62v55q0 42 -6 63.5t-22.5 30t-48.5 8.5h-16q-32 0 -48 -8.5
t-22.5 -30t-6.5 -63.5v-55q0 -41 6.5 -62t22.5 -30t48 -9h16zM209 528l-38 52l180 140l67 -97z" />
    <glyph glyph-name="ocircumflex" unicode="&#xf4;" horiz-adv-x="562" 
d="M129 12q-49 20 -69.5 67t-20.5 134v55q0 86 20.5 133t69.5 67t140 20h25q90 0 139 -20t69.5 -67t20.5 -133v-55q0 -87 -20.5 -134t-69 -67t-139.5 -20h-25q-91 0 -140 20zM289 112q32 0 48.5 9t22.5 30t6 62v55q0 42 -6 63.5t-22.5 30t-48.5 8.5h-16q-32 0 -48 -8.5
t-22.5 -30t-6.5 -63.5v-55q0 -41 6.5 -62t22.5 -30t48 -9h16zM169 536l-49 54l161 125l161 -125l-49 -54l-112 66z" />
    <glyph glyph-name="otilde" unicode="&#xf5;" horiz-adv-x="562" 
d="M129 12q-49 20 -69.5 67t-20.5 134v55q0 86 20.5 133t69.5 67t140 20h25q90 0 139 -20t69.5 -67t20.5 -133v-55q0 -87 -20.5 -134t-69 -67t-139.5 -20h-25q-91 0 -140 20zM289 112q32 0 48.5 9t22.5 30t6 62v55q0 42 -6 63.5t-22.5 30t-48.5 8.5h-16q-32 0 -48 -8.5
t-22.5 -30t-6.5 -63.5v-55q0 -41 6.5 -62t22.5 -30t48 -9h16zM132 564q2 56 23.5 88t65.5 32q17 0 31 -5t31 -14t28.5 -14t22.5 -5q15 0 23.5 10.5t9.5 29.5l61 -13q-2 -59 -23.5 -90.5t-67.5 -31.5q-17 0 -31 4.5t-32 14.5q-14 8 -25.5 12.5t-22.5 4.5q-15 0 -24 -8.5
t-11 -28.5z" />
    <glyph glyph-name="odieresis" unicode="&#xf6;" horiz-adv-x="562" 
d="M129 12q-49 20 -69.5 67t-20.5 134v55q0 86 20.5 133t69.5 67t140 20h25q90 0 139 -20t69.5 -67t20.5 -133v-55q0 -87 -20.5 -134t-69 -67t-139.5 -20h-25q-91 0 -140 20zM289 112q32 0 48.5 9t22.5 30t6 62v55q0 42 -6 63.5t-22.5 30t-48.5 8.5h-16q-32 0 -48 -8.5
t-22.5 -30t-6.5 -63.5v-55q0 -41 6.5 -62t22.5 -30t48 -9h16zM105 556v124h134v-124h-134zM323 556v124h134v-124h-134z" />
    <glyph glyph-name="divide" unicode="&#xf7;" horiz-adv-x="567" 
d="M246.5 430q-17.5 10 -28 27.5t-10.5 37.5t10.5 37t28 27t37.5 10t37 -10t27.5 -27t10.5 -37t-10.5 -37.5t-27.5 -27.5t-37 -10t-37.5 10zM56 243v121h455v-121h-455zM246.5 44q-17.5 10 -28 27.5t-10.5 37.5t10.5 37t28 27t37.5 10t37 -10t27.5 -27t10.5 -37t-10.5 -37.5
t-27.5 -27.5t-37 -10t-37.5 10z" />
    <glyph glyph-name="oslash" unicode="&#xf8;" horiz-adv-x="560" 
d="M493 416q15 -25 21.5 -61t6.5 -87v-55q0 -88 -20 -135t-68.5 -66.5t-139.5 -19.5h-25q-55 0 -93 6.5t-65 21.5l-45 -46l-42 41l45 46q-15 25 -22 62t-7 90v55q0 87 20.5 133.5t69 66.5t139.5 20h25q55 0 93.5 -7t65.5 -23l42 42l42 -41zM191 207v-18l161 164
q-8 11 -22.5 15.5t-41.5 4.5h-16q-34 0 -50.5 -8.5t-23.5 -30.5t-7 -66v-61zM369 275v11l-157 -162q9 -9 22.5 -12t37.5 -3h16q33 0 50 8.5t24 30.5t7 65v62z" />
    <glyph glyph-name="ugrave" unicode="&#xf9;" horiz-adv-x="579" 
d="M114.5 10q-36.5 18 -52 61.5t-15.5 122.5v286h159v-272q0 -42 5.5 -61.5t20.5 -27t47 -7.5h8q33 0 50 8.5t24 29t7 59.5v271h159v-480h-157v73h-1q-17 -42 -52 -61.5t-93 -19.5h-7q-66 0 -102.5 18zM377 528l-210 95l68 97l180 -140z" />
    <glyph glyph-name="uacute" unicode="&#xfa;" horiz-adv-x="579" 
d="M114.5 10q-36.5 18 -52 61.5t-15.5 122.5v286h159v-272q0 -42 5.5 -61.5t20.5 -27t47 -7.5h8q33 0 50 8.5t24 29t7 59.5v271h159v-480h-157v73h-1q-17 -42 -52 -61.5t-93 -19.5h-7q-66 0 -102.5 18zM208 528l-38 52l180 140l67 -97z" />
    <glyph glyph-name="ucircumflex" unicode="&#xfb;" horiz-adv-x="579" 
d="M114.5 10q-36.5 18 -52 61.5t-15.5 122.5v286h159v-272q0 -42 5.5 -61.5t20.5 -27t47 -7.5h8q33 0 50 8.5t24 29t7 59.5v271h159v-480h-157v73h-1q-17 -42 -52 -61.5t-93 -19.5h-7q-66 0 -102.5 18zM175 536l-49 54l161 125l161 -125l-49 -54l-112 66z" />
    <glyph glyph-name="udieresis" unicode="&#xfc;" horiz-adv-x="579" 
d="M114.5 10q-36.5 18 -52 61.5t-15.5 122.5v286h159v-272q0 -42 5.5 -61.5t20.5 -27t47 -7.5h8q33 0 50 8.5t24 29t7 59.5v271h159v-480h-157v73h-1q-17 -42 -52 -61.5t-93 -19.5h-7q-66 0 -102.5 18zM116 556v124h134v-124h-134zM334 556v124h134v-124h-134z" />
    <glyph glyph-name="yacute" unicode="&#xfd;" horiz-adv-x="513" 
d="M92 -170v116q13 -2 35 -2q45 0 68 16.5t32 59.5h-86l-134 460h165l83 -351h6l82 351h163l-126 -426q-28 -96 -56 -144t-65.5 -66t-99.5 -18q-23 0 -67 4zM214 528l-38 52l180 140l67 -97z" />
    <glyph glyph-name="thorn" unicode="&#xfe;" horiz-adv-x="577" 
d="M52 680h159v-255h1q20 36 51.5 49.5t83.5 13.5h11q70 0 108.5 -20.5t55 -69t16.5 -136.5v-41q0 -89 -16.5 -138t-55.5 -70t-110 -21h-13q-50 0 -80 15t-50 52h-2v-229h-159v850zM300 112q32 0 48.5 8.5t23 31.5t6.5 69v40q0 46 -6.5 69t-23 31.5t-48.5 8.5h-16
q-32 0 -48 -8.5t-23 -31.5t-7 -69v-40q0 -46 7 -69t23 -31.5t48 -8.5h16z" />
    <glyph glyph-name="ydieresis" unicode="&#xff;" horiz-adv-x="513" 
d="M92 -170v116q13 -2 35 -2q45 0 68 16.5t32 59.5h-86l-134 460h165l83 -351h6l82 351h163l-126 -426q-28 -96 -56 -144t-65.5 -66t-99.5 -18q-23 0 -67 4zM83 556v124h134v-124h-134zM301 556v124h134v-124h-134z" />
    <glyph glyph-name="Amacron" unicode="&#x100;" horiz-adv-x="707" 
d="M9 0l222 680h243l224 -680h-185l-38 132h-249l-38 -132h-179zM262 260h175l-84 295h-5zM205 757v94h290v-94h-290z" />
    <glyph glyph-name="amacron" unicode="&#x101;" horiz-adv-x="547" 
d="M102.5 6q-34.5 14 -48.5 45.5t-14 89.5v22q0 54 17 85t54 44.5t101 13.5h7q51 0 80 -9t44 -29h4v43q0 33 -4.5 47.5t-18.5 20t-46 5.5h-12q-28 0 -43 -3t-20.5 -10t-5.5 -20v-13h-145v10q0 58 19.5 87.5t66 41t136.5 11.5h18q91 0 133 -16t57.5 -59t15.5 -135v-278h-151
v49h-3q-16 -30 -44 -43.5t-82 -13.5h-16q-65 0 -99.5 14zM274 98q33 0 48.5 4t21 14t5.5 29v18q0 20 -5 29.5t-21 13.5t-51 4h-9q-33 0 -49 -4t-21.5 -14t-5.5 -29v-18q0 -20 6 -29.5t22.5 -13.5t50.5 -4h8zM128 571v94h290v-94h-290z" />
    <glyph glyph-name="Abreve" unicode="&#x102;" horiz-adv-x="707" 
d="M9 0l222 680h243l224 -680h-185l-38 132h-249l-38 -132h-179zM262 260h175l-84 295h-5zM229 764.5q-44 36.5 -44 107.5h77q5 -30 26 -41.5t62 -11.5q40 0 61 11.5t27 41.5h77q0 -72 -44 -108t-121 -36t-121 36.5z" />
    <glyph glyph-name="abreve" unicode="&#x103;" horiz-adv-x="547" 
d="M102.5 6q-34.5 14 -48.5 45.5t-14 89.5v22q0 54 17 85t54 44.5t101 13.5h7q51 0 80 -9t44 -29h4v43q0 33 -4.5 47.5t-18.5 20t-46 5.5h-12q-28 0 -43 -3t-20.5 -10t-5.5 -20v-13h-145v10q0 58 19.5 87.5t66 41t136.5 11.5h18q91 0 133 -16t57.5 -59t15.5 -135v-278h-151
v49h-3q-16 -30 -44 -43.5t-82 -13.5h-16q-65 0 -99.5 14zM274 98q33 0 48.5 4t21 14t5.5 29v18q0 20 -5 29.5t-21 13.5t-51 4h-9q-33 0 -49 -4t-21.5 -14t-5.5 -29v-18q0 -20 6 -29.5t22.5 -13.5t50.5 -4h8zM152 575.5q-44 36.5 -44 107.5h77q5 -30 26 -41.5t62 -11.5
q40 0 61 11.5t27 41.5h77q0 -72 -44 -108t-121 -36t-121 36.5z" />
    <glyph glyph-name="Aogonek" unicode="&#x104;" horiz-adv-x="707" 
d="M474.5 -185.5q-30.5 20.5 -30.5 62.5q0 35 18 64t51 59l-38 132h-249l-38 -132h-179l222 680h243l224 -680h-92q-22 -19 -37 -43.5t-15 -47.5q0 -18 9.5 -25.5t31.5 -7.5q23 0 53 6v-73q-42 -15 -90 -15q-53 0 -83.5 20.5zM262 260h175l-84 295h-5z" />
    <glyph glyph-name="aogonek" unicode="&#x105;" horiz-adv-x="547" 
d="M308.5 -185.5q-30.5 20.5 -30.5 62.5q0 35 18 64t51 59v49h-3q-16 -30 -44 -43.5t-82 -13.5h-16q-65 0 -99.5 14t-48.5 45.5t-14 89.5v22q0 54 17 85t54 44.5t101 13.5h7q51 0 80 -9t44 -29h4v43q0 33 -4.5 47.5t-18.5 20t-46 5.5h-12q-28 0 -43 -3t-20.5 -10t-5.5 -20
v-13h-145v10q0 58 19.5 87.5t66 41t136.5 11.5h18q91 0 133 -16t57.5 -59t15.5 -135v-278h-58q-22 -19 -37 -43.5t-15 -47.5q0 -18 9.5 -25.5t31.5 -7.5q23 0 53 6v-73q-42 -15 -90 -15q-53 0 -83.5 20.5zM274 98q33 0 48.5 4t21 14t5.5 29v18q0 20 -5 29.5t-21 13.5t-51 4
h-9q-33 0 -49 -4t-21.5 -14t-5.5 -29v-18q0 -20 6 -29.5t22.5 -13.5t50.5 -4h8z" />
    <glyph glyph-name="Cacute" unicode="&#x106;" horiz-adv-x="679" 
d="M154 17.5q-62 25.5 -87 88.5t-25 184v102q0 119 25 181.5t87.5 88.5t182.5 26h19q113 0 172.5 -20.5t83 -67t23.5 -131.5v-32h-169v22q0 32 -9 52t-33 30.5t-69 10.5h-12q-53 0 -78.5 -13t-35 -46t-9.5 -102v-99q0 -71 10.5 -105t35.5 -45.5t75 -11.5h13q43 0 68 9
t36.5 30t11.5 59v26h168v-41q0 -87 -26 -134t-86.5 -67t-170.5 -20h-19q-120 0 -182 25.5zM263 725l-31 56l197 117l52 -105z" />
    <glyph glyph-name="cacute" unicode="&#x107;" horiz-adv-x="535" 
d="M125.5 12q-47.5 20 -67 67t-19.5 134v55q0 86 20 133t68.5 67t137.5 20h23q82 0 127.5 -17t64 -53t18.5 -97v-23h-145v11q0 34 -14.5 47.5t-51.5 13.5h-17q-31 0 -46 -8.5t-20.5 -29.5t-5.5 -64v-55q0 -42 6 -63t22 -29.5t47 -8.5h18q25 0 38 6t18 19t5 38v10h146v-18
q0 -66 -18.5 -103.5t-64.5 -54.5t-131 -17h-23q-88 0 -135.5 20zM210 528l-38 52l180 140l67 -97z" />
    <glyph glyph-name="Ccircumflex" unicode="&#x108;" horiz-adv-x="679" 
d="M154 17.5q-62 25.5 -87 88.5t-25 184v102q0 119 25 181.5t87.5 88.5t182.5 26h19q113 0 172.5 -20.5t83 -67t23.5 -131.5v-32h-169v22q0 32 -9 52t-33 30.5t-69 10.5h-12q-53 0 -78.5 -13t-35 -46t-9.5 -102v-99q0 -71 10.5 -105t35.5 -45.5t75 -11.5h13q43 0 68 9
t36.5 30t11.5 59v26h168v-41q0 -87 -26 -134t-86.5 -67t-170.5 -20h-19q-120 0 -182 25.5zM228 728l-49 54l161 124l161 -124l-49 -54l-112 65z" />
    <glyph glyph-name="ccircumflex" unicode="&#x109;" horiz-adv-x="535" 
d="M125.5 12q-47.5 20 -67 67t-19.5 134v55q0 86 20 133t68.5 67t137.5 20h23q82 0 127.5 -17t64 -53t18.5 -97v-23h-145v11q0 34 -14.5 47.5t-51.5 13.5h-17q-31 0 -46 -8.5t-20.5 -29.5t-5.5 -64v-55q0 -42 6 -63t22 -29.5t47 -8.5h18q25 0 38 6t18 19t5 38v10h146v-18
q0 -66 -18.5 -103.5t-64.5 -54.5t-131 -17h-23q-88 0 -135.5 20zM161 536l-49 54l161 125l161 -125l-49 -54l-112 66z" />
    <glyph glyph-name="Cdotaccent" unicode="&#x10a;" horiz-adv-x="679" 
d="M154 17.5q-62 25.5 -87 88.5t-25 184v102q0 119 25 181.5t87.5 88.5t182.5 26h19q113 0 172.5 -20.5t83 -67t23.5 -131.5v-32h-169v22q0 32 -9 52t-33 30.5t-69 10.5h-12q-53 0 -78.5 -13t-35 -46t-9.5 -102v-99q0 -71 10.5 -105t35.5 -45.5t75 -11.5h13q43 0 68 9
t36.5 30t11.5 59v26h168v-41q0 -87 -26 -134t-86.5 -67t-170.5 -20h-19q-120 0 -182 25.5zM260 744v124h159v-124h-159z" />
    <glyph glyph-name="cdotaccent" unicode="&#x10b;" horiz-adv-x="535" 
d="M125.5 12q-47.5 20 -67 67t-19.5 134v55q0 86 20 133t68.5 67t137.5 20h23q82 0 127.5 -17t64 -53t18.5 -97v-23h-145v11q0 34 -14.5 47.5t-51.5 13.5h-17q-31 0 -46 -8.5t-20.5 -29.5t-5.5 -64v-55q0 -42 6 -63t22 -29.5t47 -8.5h18q25 0 38 6t18 19t5 38v10h146v-18
q0 -66 -18.5 -103.5t-64.5 -54.5t-131 -17h-23q-88 0 -135.5 20zM193 556v124h159v-124h-159z" />
    <glyph glyph-name="Ccaron" unicode="&#x10c;" horiz-adv-x="679" 
d="M154 17.5q-62 25.5 -87 88.5t-25 184v102q0 119 25 181.5t87.5 88.5t182.5 26h19q113 0 172.5 -20.5t83 -67t23.5 -131.5v-32h-169v22q0 32 -9 52t-33 30.5t-69 10.5h-12q-53 0 -78.5 -13t-35 -46t-9.5 -102v-99q0 -71 10.5 -105t35.5 -45.5t75 -11.5h13q43 0 68 9
t36.5 30t11.5 59v26h168v-41q0 -87 -26 -134t-86.5 -67t-170.5 -20h-19q-120 0 -182 25.5zM341 710l-161 124l49 54l112 -66l112 66l49 -54z" />
    <glyph glyph-name="ccaron" unicode="&#x10d;" horiz-adv-x="535" 
d="M125.5 12q-47.5 20 -67 67t-19.5 134v55q0 86 20 133t68.5 67t137.5 20h23q82 0 127.5 -17t64 -53t18.5 -97v-23h-145v11q0 34 -14.5 47.5t-51.5 13.5h-17q-31 0 -46 -8.5t-20.5 -29.5t-5.5 -64v-55q0 -42 6 -63t22 -29.5t47 -8.5h18q25 0 38 6t18 19t5 38v10h146v-18
q0 -66 -18.5 -103.5t-64.5 -54.5t-131 -17h-23q-88 0 -135.5 20zM270 521l-161 125l49 54l112 -66l112 66l49 -54z" />
    <glyph glyph-name="Dcaron" unicode="&#x10e;" horiz-adv-x="717" 
d="M55 680h299q136 0 201.5 -20.5t91.5 -78t26 -177.5v-122q0 -123 -23.5 -180.5t-89 -79.5t-206.5 -22h-299v680zM347 136q66 0 97 12.5t42 45.5t11 103v95q0 68 -11 99.5t-42 43.5t-97 12h-117v-411h117zM352 710l-161 124l49 54l112 -66l112 66l49 -54z" />
    <glyph glyph-name="dcaron" unicode="&#x10f;" horiz-adv-x="576" 
d="M111 13q-39 21 -55.5 70t-16.5 138v41q0 88 16.5 136.5t54.5 69t107 20.5h16q49 0 81 -14.5t50 -48.5h1v255h159v-680h-154v59h-2q-14 -28 -34 -42.5t-44.5 -19.5t-59.5 -5h-10q-70 0 -109 21zM649 515h-87l19 165h118zM292 112q32 0 48.5 8.5t23 31.5t6.5 69v40
q0 46 -6.5 69t-23 31.5t-48.5 8.5h-16q-32 0 -48 -8.5t-23 -31.5t-7 -69v-40q0 -46 7 -69t23 -31.5t48 -8.5h16z" />
    <glyph glyph-name="Dcroat" unicode="&#x110;" horiz-adv-x="717" 
d="M55 298h-44v97h44v285h299q136 0 201.5 -20.5t91.5 -78t26 -177.5v-122q0 -123 -23.5 -180.5t-89 -79.5t-206.5 -22h-299v298zM347 136q66 0 97 12.5t42 45.5t11 103v95q0 68 -11 99.5t-42 43.5t-97 12h-117v-152h115v-97h-115v-162h117z" />
    <glyph glyph-name="dcroat" unicode="&#x111;" horiz-adv-x="576" 
d="M111 13q-39 21 -55.5 70t-16.5 138v41q0 88 16.5 136.5t54.5 69t107 20.5h16q49 0 81 -14.5t50 -48.5h1v107h-145v89h145v59h159v-59h36v-89h-36v-532h-154v59h-2q-14 -28 -34 -42.5t-44.5 -19.5t-59.5 -5h-10q-70 0 -109 21zM292 112q32 0 48.5 8.5t23 31.5t6.5 69v40
q0 46 -6.5 69t-23 31.5t-48.5 8.5h-16q-32 0 -48 -8.5t-23 -31.5t-7 -69v-40q0 -46 7 -69t23 -31.5t48 -8.5h16z" />
    <glyph glyph-name="Emacron" unicode="&#x112;" horiz-adv-x="585" 
d="M55 0v680h490v-133h-316v-137h295v-126h-295v-148h326v-136h-500zM153 757v94h290v-94h-290z" />
    <glyph glyph-name="emacron" unicode="&#x113;" horiz-adv-x="541" 
d="M124 11.5q-47 19.5 -66 66.5t-19 135v55q0 88 21.5 135t68 66t129.5 19h21q88 0 135 -18t66.5 -62.5t19.5 -128.5v-76h-308v-22q0 -34 6 -50t22 -22t51 -6h14q31 0 46 4t20.5 13.5t5.5 28.5v9h145v-11q0 -58 -21.5 -91.5t-68 -48.5t-124.5 -15h-28q-89 0 -136 19.5z
M355 295v12q0 32 -6 48t-22.5 23t-50.5 7h-7q-35 0 -51 -7t-21.5 -25t-5.5 -58h164zM126 571v94h290v-94h-290z" />
    <glyph glyph-name="Ebreve" unicode="&#x114;" horiz-adv-x="585" 
d="M55 0v680h490v-133h-316v-137h295v-126h-295v-148h326v-136h-500zM175 764.5q-44 36.5 -44 107.5h77q5 -30 26 -41.5t62 -11.5q40 0 61 11.5t27 41.5h77q0 -72 -44 -108t-121 -36t-121 36.5z" />
    <glyph glyph-name="ebreve" unicode="&#x115;" horiz-adv-x="541" 
d="M124 11.5q-47 19.5 -66 66.5t-19 135v55q0 88 21.5 135t68 66t129.5 19h21q88 0 135 -18t66.5 -62.5t19.5 -128.5v-76h-308v-22q0 -34 6 -50t22 -22t51 -6h14q31 0 46 4t20.5 13.5t5.5 28.5v9h145v-11q0 -58 -21.5 -91.5t-68 -48.5t-124.5 -15h-28q-89 0 -136 19.5z
M355 295v12q0 32 -6 48t-22.5 23t-50.5 7h-7q-35 0 -51 -7t-21.5 -25t-5.5 -58h164zM149 575.5q-44 36.5 -44 107.5h77q5 -30 26 -41.5t62 -11.5q40 0 61 11.5t27 41.5h77q0 -72 -44 -108t-121 -36t-121 36.5z" />
    <glyph glyph-name="Edotaccent" unicode="&#x116;" horiz-adv-x="585" 
d="M55 0v680h490v-133h-316v-137h295v-126h-295v-148h326v-136h-500zM213 744v124h159v-124h-159z" />
    <glyph glyph-name="edotaccent" unicode="&#x117;" horiz-adv-x="541" 
d="M124 11.5q-47 19.5 -66 66.5t-19 135v55q0 88 21.5 135t68 66t129.5 19h21q88 0 135 -18t66.5 -62.5t19.5 -128.5v-76h-308v-22q0 -34 6 -50t22 -22t51 -6h14q31 0 46 4t20.5 13.5t5.5 28.5v9h145v-11q0 -58 -21.5 -91.5t-68 -48.5t-124.5 -15h-28q-89 0 -136 19.5z
M355 295v12q0 32 -6 48t-22.5 23t-50.5 7h-7q-35 0 -51 -7t-21.5 -25t-5.5 -58h164zM191 556v124h159v-124h-159z" />
    <glyph glyph-name="Eogonek" unicode="&#x118;" horiz-adv-x="585" 
d="M363.5 -185.5q-30.5 20.5 -30.5 62.5q0 37 22 66.5t67 56.5h-367v680h490v-133h-316v-137h295v-126h-295v-148h326v-136h-37q-35 -17 -55 -41.5t-20 -49.5q0 -18 9.5 -25.5t31.5 -7.5q23 0 53 6v-73q-42 -15 -90 -15q-53 0 -83.5 20.5z" />
    <glyph glyph-name="eogonek" unicode="&#x119;" horiz-adv-x="541" 
d="M243.5 -185.5q-30.5 20.5 -30.5 62.5q0 35 19 62.5t59 52.5h-22h-9q-89 0 -136 19.5t-66 66.5t-19 135v55q0 88 21.5 135t68 66t129.5 19h21q88 0 135 -18t66.5 -62.5t19.5 -128.5v-76h-308v-22q0 -34 6 -50t22 -22t51 -6h14q31 0 46 4t20.5 13.5t5.5 28.5v9h145v-11
q0 -62 -25 -96.5t-81 -48.5q-38 -24 -55.5 -48t-17.5 -45q0 -18 9.5 -25.5t30.5 -7.5q24 0 54 6v-73q-42 -15 -90 -15q-53 0 -83.5 20.5zM355 295v12q0 32 -6 48t-22.5 23t-50.5 7h-7q-35 0 -51 -7t-21.5 -25t-5.5 -58h164z" />
    <glyph glyph-name="Ecaron" unicode="&#x11a;" horiz-adv-x="585" 
d="M55 0v680h490v-133h-316v-137h295v-126h-295v-148h326v-136h-500zM299 710l-161 124l49 54l112 -66l112 66l49 -54z" />
    <glyph glyph-name="ecaron" unicode="&#x11b;" horiz-adv-x="541" 
d="M124 11.5q-47 19.5 -66 66.5t-19 135v55q0 88 21.5 135t68 66t129.5 19h21q88 0 135 -18t66.5 -62.5t19.5 -128.5v-76h-308v-22q0 -34 6 -50t22 -22t51 -6h14q31 0 46 4t20.5 13.5t5.5 28.5v9h145v-11q0 -58 -21.5 -91.5t-68 -48.5t-124.5 -15h-28q-89 0 -136 19.5z
M355 295v12q0 32 -6 48t-22.5 23t-50.5 7h-7q-35 0 -51 -7t-21.5 -25t-5.5 -58h164zM273 521l-161 125l49 54l112 -66l112 66l49 -54z" />
    <glyph glyph-name="Gcircumflex" unicode="&#x11c;" horiz-adv-x="682" 
d="M154 17q-62 25 -87 88.5t-25 186.5v102q0 119 25 181t86.5 87.5t181.5 25.5h19q107 0 167.5 -19.5t87 -63.5t26.5 -123v-23h-169v14q0 30 -9.5 47t-33.5 24.5t-70 7.5h-12q-53 0 -78 -12.5t-34.5 -45.5t-9.5 -103v-99q0 -68 9.5 -101.5t35.5 -47t79 -13.5h13q49 0 74 9
t35 29t10 57v21h-142v126h307v-129q0 -103 -24 -155.5t-84 -74t-177 -21.5h-18q-121 0 -183 25zM226 728l-49 54l161 124l161 -124l-49 -54l-112 65z" />
    <glyph glyph-name="gcircumflex" unicode="&#x11d;" horiz-adv-x="571" 
d="M134.5 -167q-44.5 11 -63 41t-18.5 91v12h148v-5q0 -14 5 -21.5t19 -11t41 -3.5h18q38 0 53.5 5.5t20.5 22t5 57.5v68h-3q-18 -35 -50.5 -50t-83.5 -15h-9q-68 0 -106 17.5t-55 63t-17 131.5v36q0 84 17 130.5t55 66t105 19.5h11q50 0 83.5 -13.5t53.5 -49.5h1v55h154
v-446q0 -90 -20.5 -134.5t-69.5 -61t-145 -16.5h-17q-88 0 -132.5 11zM289 139q32 0 47.5 8t22 29t6.5 64v29q0 43 -6.5 64t-22 29t-47.5 8h-15q-31 0 -47 -8t-22.5 -29.5t-6.5 -63.5v-29q0 -42 6.5 -63.5t22.5 -29.5t47 -8h15zM161 536l-49 54l161 125l161 -125l-49 -54
l-112 66z" />
    <glyph glyph-name="Gbreve" unicode="&#x11e;" horiz-adv-x="682" 
d="M154 17q-62 25 -87 88.5t-25 186.5v102q0 119 25 181t86.5 87.5t181.5 25.5h19q107 0 167.5 -19.5t87 -63.5t26.5 -123v-23h-169v14q0 30 -9.5 47t-33.5 24.5t-70 7.5h-12q-53 0 -78 -12.5t-34.5 -45.5t-9.5 -103v-99q0 -68 9.5 -101.5t35.5 -47t79 -13.5h13q49 0 74 9
t35 29t10 57v21h-142v126h307v-129q0 -103 -24 -155.5t-84 -74t-177 -21.5h-18q-121 0 -183 25zM220 764.5q-44 36.5 -44 107.5h77q5 -30 26 -41.5t62 -11.5q40 0 61 11.5t27 41.5h77q0 -72 -44 -108t-121 -36t-121 36.5z" />
    <glyph glyph-name="gbreve" unicode="&#x11f;" horiz-adv-x="571" 
d="M134.5 -167q-44.5 11 -63 41t-18.5 91v12h148v-5q0 -14 5 -21.5t19 -11t41 -3.5h18q38 0 53.5 5.5t20.5 22t5 57.5v68h-3q-18 -35 -50.5 -50t-83.5 -15h-9q-68 0 -106 17.5t-55 63t-17 131.5v36q0 84 17 130.5t55 66t105 19.5h11q50 0 83.5 -13.5t53.5 -49.5h1v55h154
v-446q0 -90 -20.5 -134.5t-69.5 -61t-145 -16.5h-17q-88 0 -132.5 11zM289 139q32 0 47.5 8t22 29t6.5 64v29q0 43 -6.5 64t-22 29t-47.5 8h-15q-31 0 -47 -8t-22.5 -29.5t-6.5 -63.5v-29q0 -42 6.5 -63.5t22.5 -29.5t47 -8h15zM146 575.5q-44 36.5 -44 107.5h77
q5 -30 26 -41.5t62 -11.5q40 0 61 11.5t27 41.5h77q0 -72 -44 -108t-121 -36t-121 36.5z" />
    <glyph glyph-name="Gdotaccent" unicode="&#x120;" horiz-adv-x="682" 
d="M154 17q-62 25 -87 88.5t-25 186.5v102q0 119 25 181t86.5 87.5t181.5 25.5h19q107 0 167.5 -19.5t87 -63.5t26.5 -123v-23h-169v14q0 30 -9.5 47t-33.5 24.5t-70 7.5h-12q-53 0 -78 -12.5t-34.5 -45.5t-9.5 -103v-99q0 -68 9.5 -101.5t35.5 -47t79 -13.5h13q49 0 74 9
t35 29t10 57v21h-142v126h307v-129q0 -103 -24 -155.5t-84 -74t-177 -21.5h-18q-121 0 -183 25zM259 744v124h159v-124h-159z" />
    <glyph glyph-name="gdotaccent" unicode="&#x121;" horiz-adv-x="571" 
d="M134.5 -167q-44.5 11 -63 41t-18.5 91v12h148v-5q0 -14 5 -21.5t19 -11t41 -3.5h18q38 0 53.5 5.5t20.5 22t5 57.5v68h-3q-18 -35 -50.5 -50t-83.5 -15h-9q-68 0 -106 17.5t-55 63t-17 131.5v36q0 84 17 130.5t55 66t105 19.5h11q50 0 83.5 -13.5t53.5 -49.5h1v55h154
v-446q0 -90 -20.5 -134.5t-69.5 -61t-145 -16.5h-17q-88 0 -132.5 11zM289 139q32 0 47.5 8t22 29t6.5 64v29q0 43 -6.5 64t-22 29t-47.5 8h-15q-31 0 -47 -8t-22.5 -29.5t-6.5 -63.5v-29q0 -42 6.5 -63.5t22.5 -29.5t47 -8h15zM191 556v124h159v-124h-159z" />
    <glyph glyph-name="Gcommaaccent" unicode="&#x122;" horiz-adv-x="682" 
d="M154 17q-62 25 -87 88.5t-25 186.5v102q0 119 25 181t86.5 87.5t181.5 25.5h19q107 0 167.5 -19.5t87 -63.5t26.5 -123v-23h-169v14q0 30 -9.5 47t-33.5 24.5t-70 7.5h-12q-53 0 -78 -12.5t-34.5 -45.5t-9.5 -103v-99q0 -68 9.5 -101.5t35.5 -47t79 -13.5h13q49 0 74 9
t35 29t10 57v21h-142v126h307v-129q0 -103 -24 -155.5t-84 -74t-177 -21.5h-18q-121 0 -183 25zM269 -203q33 0 45 9.5t12 34.5v7h-42v103h129v-97q0 -43 -12 -67t-43 -34.5t-89 -10.5v55z" />
    <glyph glyph-name="gcommaaccent" unicode="&#x123;" horiz-adv-x="571" 
d="M134.5 -167q-44.5 11 -63 41t-18.5 91v12h148v-5q0 -14 5 -21.5t19 -11t41 -3.5h18q38 0 53.5 5.5t20.5 22t5 57.5v68h-3q-18 -35 -50.5 -50t-83.5 -15h-9q-68 0 -106 17.5t-55 63t-17 131.5v36q0 84 17 130.5t55 66t105 19.5h11q50 0 83.5 -13.5t53.5 -49.5h1v55h154
v-446q0 -90 -20.5 -134.5t-69.5 -61t-145 -16.5h-17q-88 0 -132.5 11zM289 139q32 0 47.5 8t22 29t6.5 64v29q0 43 -6.5 64t-22 29t-47.5 8h-15q-31 0 -47 -8t-22.5 -29.5t-6.5 -63.5v-29q0 -42 6.5 -63.5t22.5 -29.5t47 -8h15zM197 642q0 43 12 67t43 34.5t89 10.5v-55
q-33 0 -45 -9.5t-12 -34.5v-7h42v-103h-129v97z" />
    <glyph glyph-name="Hcircumflex" unicode="&#x124;" horiz-adv-x="700" 
d="M55 0v680h175v-257h240v257h175v-680h-175v271h-240v-271h-175zM238 728l-49 54l161 124l161 -124l-49 -54l-112 65z" />
    <glyph glyph-name="hcircumflex" unicode="&#x125;" horiz-adv-x="582" 
d="M52 680h159v-272h1q19 42 52.5 61t88.5 19h7q69 0 105.5 -17.5t51.5 -59t15 -120.5v-291h-159v273q0 41 -5.5 59.5t-20.5 26t-48 7.5h-8q-33 0 -50 -8.5t-23.5 -28.5t-6.5 -57v-272h-159v680zM22 728l-49 54l161 124l161 -124l-49 -54l-112 65z" />
    <glyph glyph-name="Hbar" unicode="&#x126;" horiz-adv-x="700" 
d="M55 0v505h-39v91h39v84h175v-84h240v84h175v-84h40v-91h-40v-505h-175v271h-240v-271h-175zM230 423h240v82h-240v-82z" />
    <glyph glyph-name="hbar" unicode="&#x127;" horiz-adv-x="582" 
d="M52 532h-38v89h38v59h159v-59h142v-89h-142v-124h1q19 42 52.5 61t88.5 19h7q69 0 105.5 -17.5t51.5 -59t15 -120.5v-291h-159v273q0 41 -5.5 59.5t-20.5 26t-48 7.5h-8q-33 0 -50 -8.5t-23.5 -28.5t-6.5 -57v-272h-159v532z" />
    <glyph glyph-name="Itilde" unicode="&#x128;" horiz-adv-x="285" 
d="M55 0v680h175v-680h-175zM-5 753q2 56 23.5 88t65.5 32q17 0 31 -5t31 -14t28.5 -14t22.5 -5q15 0 23.5 10.5t9.5 29.5l61 -13q-2 -59 -23.5 -90.5t-67.5 -31.5q-17 0 -31 4.5t-32 14.5q-14 8 -25.5 12.5t-22.5 4.5q-15 0 -24 -8.5t-11 -28.5z" />
    <glyph glyph-name="itilde" unicode="&#x129;" horiz-adv-x="263" 
d="M52 0v480h159v-480h-159zM-19 564q2 56 23.5 88t65.5 32q17 0 31 -5t31 -14t28.5 -14t22.5 -5q15 0 23.5 10.5t9.5 29.5l61 -13q-2 -59 -23.5 -90.5t-67.5 -31.5q-17 0 -31 4.5t-32 14.5q-14 8 -25.5 12.5t-22.5 4.5q-15 0 -24 -8.5t-11 -28.5z" />
    <glyph glyph-name="Imacron" unicode="&#x12a;" horiz-adv-x="285" 
d="M55 0v680h175v-680h-175zM-3 757v94h290v-94h-290z" />
    <glyph glyph-name="imacron" unicode="&#x12b;" horiz-adv-x="263" 
d="M52 0v480h159v-480h-159zM-14 571v94h290v-94h-290z" />
    <glyph glyph-name="Ibreve" unicode="&#x12c;" horiz-adv-x="285" 
d="M21 765.5q-44 36.5 -44 107.5h77q5 -30 26 -41.5t62 -11.5q40 0 61 11.5t27 41.5h77q0 -72 -44 -108t-121 -36t-121 36.5zM55 0v681h175v-681h-175z" />
    <glyph glyph-name="ibreve" unicode="&#x12d;" horiz-adv-x="263" 
d="M10 576.5q-44 36.5 -44 107.5h77q5 -30 26 -41.5t62 -11.5q40 0 61 11.5t27 41.5h77q0 -72 -44 -108t-121 -36t-121 36.5zM52 0v480h159v-480h-159z" />
    <glyph glyph-name="Iogonek" unicode="&#x12e;" horiz-adv-x="285" 
d="M60.5 -185.5q-30.5 20.5 -30.5 62.5q0 36 19 65t55 58h-49v680h175v-680h-30q-25 -19 -42.5 -43.5t-17.5 -47.5q0 -18 9.5 -25.5t31.5 -7.5q23 0 53 6v-73q-42 -15 -90 -15q-53 0 -83.5 20.5z" />
    <glyph glyph-name="iogonek" unicode="&#x12f;" horiz-adv-x="263" 
d="M52 556v124h159v-124h-159zM52 -186.5q-31 19.5 -31 63.5q0 36 19 64.5t58 58.5h-46v480h159v-480h-32q-26 -30 -37 -51.5t-11 -39.5t9.5 -25.5t30.5 -7.5q15 0 31 2.5t20 2.5v-73q-44 -14 -87 -14q-52 0 -83 19.5z" />
    <glyph glyph-name="Idotaccent" unicode="&#x130;" horiz-adv-x="285" 
d="M55 0v680h175v-680h-175zM63 744v124h159v-124h-159z" />
    <glyph glyph-name="dotlessi" unicode="&#x131;" horiz-adv-x="263" 
d="M52 0v480h159v-480h-159z" />
    <glyph glyph-name="IJ" unicode="&#x132;" horiz-adv-x="853" 
d="M55 0v680h175v-680h-175zM389 11q-47 19 -63.5 66.5t-16.5 145.5v51h158v-38q0 -49 5.5 -70.5t21 -28.5t51.5 -7h12q31 0 45 6.5t19 24t5 55.5v464h175v-449q0 -102 -19 -151.5t-69.5 -68.5t-153.5 -19h-22q-101 0 -148 19z" />
    <glyph glyph-name="ij" unicode="&#x133;" horiz-adv-x="529" 
d="M52 556v124h159v-124h-159zM52 0v480h159v-480h-159zM318 556v124h159v-124h-159zM267 -170v115q9 -1 19 -1q13 0 19.5 4.5t9.5 15t3 31.5v485h159v-508q0 -56 -17.5 -87.5t-51.5 -45t-88 -13.5q-29 0 -53 4z" />
    <glyph glyph-name="Jcircumflex" unicode="&#x134;" horiz-adv-x="568" 
d="M104 11q-47 19 -63.5 66.5t-16.5 145.5v51h158v-38q0 -49 5.5 -70.5t21 -28.5t51.5 -7h12q31 0 45 6.5t19 24t5 55.5v464h175v-449q0 -102 -19 -151.5t-69.5 -68.5t-153.5 -19h-22q-101 0 -148 19zM314 728l-49 54l161 124l161 -124l-49 -54l-112 65z" />
    <glyph glyph-name="jcircumflex" unicode="&#x135;" horiz-adv-x="266" 
d="M4 -170v115q9 -1 19 -1q13 0 19.5 4.5t9.5 15t3 31.5v485h159v-508q0 -56 -17.5 -87.5t-51.5 -45t-88 -13.5q-29 0 -53 4zM21 536l-49 54l161 125l161 -125l-49 -54l-112 66z" />
    <glyph glyph-name="Kcommaaccent" unicode="&#x136;" horiz-adv-x="671" 
d="M55 0v680h172v-267h54l166 267h200l-219 -328l241 -352h-215l-176 283h-51v-283h-172zM255 -203q33 0 45 9.5t12 34.5v7h-42v103h129v-97q0 -43 -12 -67t-43 -34.5t-89 -10.5v55z" />
    <glyph glyph-name="kcommaaccent" unicode="&#x137;" horiz-adv-x="531" 
d="M52 0v680h158v-380h19l109 180h177l-150 -224l164 -256h-185l-115 208h-19v-208h-158zM186 -203q33 0 45 9.5t12 34.5v7h-42v103h129v-97q0 -43 -12 -67t-43 -34.5t-89 -10.5v55z" />
    <glyph glyph-name="kgreenlandic" unicode="&#x138;" horiz-adv-x="532" 
d="M52 0v480h158v-180h20l109 180h177l-150 -224l165 -256h-185l-116 208h-20v-208h-158z" />
    <glyph glyph-name="Lacute" unicode="&#x139;" horiz-adv-x="517" 
d="M55 0v680h175v-543h272v-137h-447zM122 725l-31 56l197 117l52 -105z" />
    <glyph glyph-name="lacute" unicode="&#x13a;" horiz-adv-x="263" 
d="M52 0v680h159v-680h-159zM98 725l-31 56l197 117l52 -105z" />
    <glyph glyph-name="Lcommaaccent" unicode="&#x13b;" horiz-adv-x="517" 
d="M55 0v680h175v-543h272v-137h-447zM201 -203q33 0 45 9.5t12 34.5v7h-42v103h129v-97q0 -43 -12 -67t-43 -34.5t-89 -10.5v55z" />
    <glyph glyph-name="lcommaaccent" unicode="&#x13c;" horiz-adv-x="263" 
d="M52 0v680h159v-680h-159zM55 -203q33 0 45 9.5t12 34.5v7h-42v103h129v-97q0 -43 -12 -67t-43 -34.5t-89 -10.5v55z" />
    <glyph glyph-name="Lcaron" unicode="&#x13d;" horiz-adv-x="517" 
d="M55 0v680h175v-543h272v-137h-447zM395 475h-103l19 205h134z" />
    <glyph glyph-name="lcaron" unicode="&#x13e;" horiz-adv-x="263" 
d="M52 0v680h159v-680h-159zM335 515h-87l19 165h118z" />
    <glyph glyph-name="Ldot" unicode="&#x13f;" horiz-adv-x="517" 
d="M55 0v680h175v-543h272v-137h-447zM324 285v165h165v-165h-165z" />
    <glyph glyph-name="ldot" unicode="&#x140;" horiz-adv-x="450" 
d="M52 0v680h159v-680h-159zM274 261v165h165v-165h-165z" />
    <glyph glyph-name="Lslash" unicode="&#x141;" horiz-adv-x="517" 
d="M55 0v255l-51 -23v107l51 23v318h175v-238l135 61v-107l-135 -61v-198h272v-137h-447z" />
    <glyph glyph-name="lslash" unicode="&#x142;" horiz-adv-x="274" 
d="M58 0v252l-39 -24v98l39 24v330h159v-250l41 27v-98l-41 -27v-332h-159z" />
    <glyph glyph-name="Nacute" unicode="&#x143;" horiz-adv-x="758" 
d="M55 0v680h257l232 -527h5l-8 527h162v-680h-251l-236 530h-5l5 -530h-161zM295 725l-31 56l197 117l52 -105z" />
    <glyph glyph-name="nacute" unicode="&#x144;" horiz-adv-x="582" 
d="M52 480h157v-72h1q19 42 53 61t90 19h7q68 0 105 -17.5t52 -59.5t15 -120v-291h-159v273q0 40 -5.5 59t-20.5 26.5t-48 7.5h-8q-32 0 -49 -8.5t-24 -28.5t-7 -57v-272h-159v480zM234 528l-38 52l180 140l67 -97z" />
    <glyph glyph-name="Ncommaaccent" unicode="&#x145;" horiz-adv-x="758" 
d="M55 0v680h257l232 -527h5l-8 527h162v-680h-251l-236 530h-5l5 -530h-161zM311 -203q33 0 45 9.5t12 34.5v7h-42v103h129v-97q0 -43 -12 -67t-43 -34.5t-89 -10.5v55z" />
    <glyph glyph-name="ncommaaccent" unicode="&#x146;" horiz-adv-x="582" 
d="M52 480h157v-72h1q19 42 53 61t90 19h7q68 0 105 -17.5t52 -59.5t15 -120v-291h-159v273q0 40 -5.5 59t-20.5 26.5t-48 7.5h-8q-32 0 -49 -8.5t-24 -28.5t-7 -57v-272h-159v480zM217 -203q33 0 45 9.5t12 34.5v7h-42v103h129v-97q0 -43 -12 -67t-43 -34.5t-89 -10.5v55z
" />
    <glyph glyph-name="Ncaron" unicode="&#x147;" horiz-adv-x="758" 
d="M55 0v680h257l232 -527h5l-8 527h162v-680h-251l-236 530h-5l5 -530h-161zM381 710l-161 124l49 54l112 -66l112 66l49 -54z" />
    <glyph glyph-name="ncaron" unicode="&#x148;" horiz-adv-x="582" 
d="M52 480h157v-72h1q19 42 53 61t90 19h7q68 0 105 -17.5t52 -59.5t15 -120v-291h-159v273q0 40 -5.5 59t-20.5 26.5t-48 7.5h-8q-32 0 -49 -8.5t-24 -28.5t-7 -57v-272h-159v480zM303 521l-161 125l49 54l112 -66l112 66l49 -54z" />
    <glyph glyph-name="napostrophe" unicode="&#x149;" horiz-adv-x="839" 
d="M46 447q24 0 37.5 7.5t18.5 22t5 38.5v10h-47v155h147v-146q0 -62 -13.5 -98t-48 -53t-99.5 -17v81zM309 480h157v-72h1q19 42 53 61t90 19h7q68 0 105 -17.5t52 -59.5t15 -120v-291h-159v273q0 40 -5.5 59t-20.5 26.5t-48 7.5h-8q-32 0 -49 -8.5t-24 -28.5t-7 -57v-272
h-159v480z" />
    <glyph glyph-name="Eng" unicode="&#x14a;" horiz-adv-x="760" 
d="M489 -174v115q9 -1 19 -1q13 0 19.5 4.5t9.5 15t3 31.5v9h-87l-236 530h-5l4 -530h-161v681h258l233 -528h5l-8 528h162v-713q0 -56 -18 -87.5t-53 -45t-91 -13.5q-30 0 -54 4z" />
    <glyph glyph-name="eng" unicode="&#x14b;" horiz-adv-x="584" 
d="M323 -174v115q9 -1 19 -1q13 0 19.5 4.5t9.5 15t3 31.5v283q0 40 -5.5 59t-20.5 26.5t-48 7.5h-8q-32 0 -49 -8.5t-24 -28.5t-7 -57v-273h-160v480h157v-71h2q19 41 53 60.5t90 19.5h7q69 0 105.5 -17.5t52 -60t15.5 -120.5v-323q0 -55 -17.5 -87t-52 -45.5t-88.5 -13.5
q-29 0 -53 4z" />
    <glyph glyph-name="Omacron" unicode="&#x14c;" horiz-adv-x="713" 
d="M157.5 19q-64.5 27 -90 90t-25.5 180v102q0 117 25.5 180t90 90t187.5 27h23q123 0 187.5 -27t90 -90t25.5 -180v-102q0 -117 -25.5 -180t-90 -90t-187.5 -27h-23q-123 0 -187.5 27zM365 130q53 0 80 13t37.5 47t10.5 102v98q0 68 -10.5 102t-37.5 47t-80 13h-17
q-53 0 -80 -13t-37.5 -47t-10.5 -102v-98q0 -68 10.5 -102t37.5 -47t80 -13h17zM211 757v94h290v-94h-290z" />
    <glyph glyph-name="omacron" unicode="&#x14d;" horiz-adv-x="562" 
d="M129 12q-49 20 -69.5 67t-20.5 134v55q0 86 20.5 133t69.5 67t140 20h25q90 0 139 -20t69.5 -67t20.5 -133v-55q0 -87 -20.5 -134t-69 -67t-139.5 -20h-25q-91 0 -140 20zM289 112q32 0 48.5 9t22.5 30t6 62v55q0 42 -6 63.5t-22.5 30t-48.5 8.5h-16q-32 0 -48 -8.5
t-22.5 -30t-6.5 -63.5v-55q0 -41 6.5 -62t22.5 -30t48 -9h16zM136 571v94h290v-94h-290z" />
    <glyph glyph-name="Obreve" unicode="&#x14e;" horiz-adv-x="713" 
d="M157.5 19q-64.5 27 -90 90t-25.5 180v102q0 117 25.5 180t90 90t187.5 27h23q123 0 187.5 -27t90 -90t25.5 -180v-102q0 -117 -25.5 -180t-90 -90t-187.5 -27h-23q-123 0 -187.5 27zM365 130q53 0 80 13t37.5 47t10.5 102v98q0 68 -10.5 102t-37.5 47t-80 13h-17
q-53 0 -80 -13t-37.5 -47t-10.5 -102v-98q0 -68 10.5 -102t37.5 -47t80 -13h17zM235 764.5q-44 36.5 -44 107.5h77q5 -30 26 -41.5t62 -11.5q40 0 61 11.5t27 41.5h77q0 -72 -44 -108t-121 -36t-121 36.5z" />
    <glyph glyph-name="obreve" unicode="&#x14f;" horiz-adv-x="562" 
d="M129 12q-49 20 -69.5 67t-20.5 134v55q0 86 20.5 133t69.5 67t140 20h25q90 0 139 -20t69.5 -67t20.5 -133v-55q0 -87 -20.5 -134t-69 -67t-139.5 -20h-25q-91 0 -140 20zM289 112q32 0 48.5 9t22.5 30t6 62v55q0 42 -6 63.5t-22.5 30t-48.5 8.5h-16q-32 0 -48 -8.5
t-22.5 -30t-6.5 -63.5v-55q0 -41 6.5 -62t22.5 -30t48 -9h16zM160 575.5q-44 36.5 -44 107.5h77q5 -30 26 -41.5t62 -11.5q40 0 61 11.5t27 41.5h77q0 -72 -44 -108t-121 -36t-121 36.5z" />
    <glyph glyph-name="Ohungarumlaut" unicode="&#x150;" horiz-adv-x="713" 
d="M157.5 19q-64.5 27 -90 90t-25.5 180v102q0 117 25.5 180t90 90t187.5 27h23q123 0 187.5 -27t90 -90t25.5 -180v-102q0 -117 -25.5 -180t-90 -90t-187.5 -27h-23q-123 0 -187.5 27zM365 130q53 0 80 13t37.5 47t10.5 102v98q0 68 -10.5 102t-37.5 47t-80 13h-17
q-53 0 -80 -13t-37.5 -47t-10.5 -102v-98q0 -68 10.5 -102t37.5 -47t80 -13h17zM246 714l-40 51l145 132l62 -75zM437 712l-39 52l149 131l61 -74z" />
    <glyph glyph-name="ohungarumlaut" unicode="&#x151;" horiz-adv-x="562" 
d="M129 12q-49 20 -69.5 67t-20.5 134v55q0 86 20.5 133t69.5 67t140 20h25q90 0 139 -20t69.5 -67t20.5 -133v-55q0 -87 -20.5 -134t-69 -67t-139.5 -20h-25q-91 0 -140 20zM289 112q32 0 48.5 9t22.5 30t6 62v55q0 42 -6 63.5t-22.5 30t-48.5 8.5h-16q-32 0 -48 -8.5
t-22.5 -30t-6.5 -63.5v-55q0 -41 6.5 -62t22.5 -30t48 -9h16zM180 529l-42 50l137 138l66 -71zM367 529l-43 50l142 138l66 -71z" />
    <glyph glyph-name="OE" unicode="&#x152;" horiz-adv-x="1016" 
d="M153 19.5q-59 27.5 -85 91.5t-26 179v101q0 114 26 178t84 91.5t160 27.5h17q73 0 112 -14t59 -45h1v51h475v-133h-316v-137h295v-126h-295v-148h326v-136h-485v48h-2q-23 -28 -60.5 -42t-105.5 -14h-17q-104 0 -163 27.5zM365 130q53 0 80 13t37.5 47t10.5 102v98
q0 68 -10.5 102t-37.5 47t-80 13h-17q-53 0 -80 -13t-37.5 -47t-10.5 -102v-98q0 -68 10.5 -102t37.5 -47t80 -13h17z" />
    <glyph glyph-name="oe" unicode="&#x153;" horiz-adv-x="870" 
d="M127 12q-47 20 -67.5 67.5t-20.5 133.5v55q0 86 21 133t69 67t134 20h25q118 0 159 -46h1q15 21 52 33.5t90 12.5h22q84 0 130 -17.5t67 -62t21 -128.5v-77h-308v-22q0 -34 6 -50t22 -22t50 -6h15q30 0 45 4t21 14t6 28v9h144v-11q0 -62 -22 -95.5t-66 -46.5t-118 -13
h-29q-60 0 -95 11t-53 34h-1q-16 -22 -57.5 -33.5t-104.5 -11.5h-25q-86 0 -133 20zM685 295v14q0 31 -6 47t-22.5 22.5t-49.5 6.5h-7q-34 0 -50 -7t-22 -25.5t-6 -57.5h163zM289 112q32 0 48.5 9t22.5 30t6 62v55q0 42 -6 63.5t-22.5 30t-48.5 8.5h-16q-32 0 -48 -8.5
t-22.5 -30t-6.5 -63.5v-55q0 -41 6.5 -62t22.5 -30t48 -9h16z" />
    <glyph glyph-name="Racute" unicode="&#x154;" horiz-adv-x="668" 
d="M55 680h330q96 0 146 -19.5t69 -62t19 -118.5v-16q0 -81 -22.5 -122t-75.5 -52v-4q42 -8 62.5 -24.5t28.5 -50.5t8 -101v-110h-172v96q0 53 -9.5 77t-35.5 32t-85 8h-92v-213h-171v680zM347 340q41 0 62 8t29.5 28t8.5 60v21q0 40 -8.5 59t-29 26t-63.5 7h-120v-209h121z
M245 725l-31 56l197 117l52 -105z" />
    <glyph glyph-name="racute" unicode="&#x155;" horiz-adv-x="476" 
d="M52 480h154v-87h3q10 34 26 54.5t41 30.5t64 10h6q46 0 71 -14.5t35 -47.5t10 -91q0 -37 -2 -68h-135v31q0 23 -4 36t-14.5 19t-30.5 6h-8q-22 0 -34 -8.5t-17.5 -29.5t-5.5 -59v-262h-159v480zM181 528l-38 52l180 140l67 -97z" />
    <glyph glyph-name="Rcommaaccent" unicode="&#x156;" horiz-adv-x="668" 
d="M55 680h330q96 0 146 -19.5t69 -62t19 -118.5v-16q0 -81 -22.5 -122t-75.5 -52v-4q42 -8 62.5 -24.5t28.5 -50.5t8 -101v-110h-172v96q0 53 -9.5 77t-35.5 32t-85 8h-92v-213h-171v680zM347 340q41 0 62 8t29.5 28t8.5 60v21q0 40 -8.5 59t-29 26t-63.5 7h-120v-209h121z
M262 -203q33 0 45 9.5t12 34.5v7h-42v103h129v-97q0 -43 -12 -67t-43 -34.5t-89 -10.5v55z" />
    <glyph glyph-name="rcommaaccent" unicode="&#x157;" horiz-adv-x="476" 
d="M52 480h154v-87h3q10 34 26 54.5t41 30.5t64 10h6q46 0 71 -14.5t35 -47.5t10 -91q0 -37 -2 -68h-135v31q0 23 -4 36t-14.5 19t-30.5 6h-8q-22 0 -34 -8.5t-17.5 -29.5t-5.5 -59v-262h-159v480zM54 -203q33 0 45 9.5t12 34.5v7h-42v103h129v-97q0 -43 -12 -67t-43 -34.5
t-89 -10.5v55z" />
    <glyph glyph-name="Rcaron" unicode="&#x158;" horiz-adv-x="668" 
d="M55 680h330q96 0 146 -19.5t69 -62t19 -118.5v-16q0 -81 -22.5 -122t-75.5 -52v-4q42 -8 62.5 -24.5t28.5 -50.5t8 -101v-110h-172v96q0 53 -9.5 77t-35.5 32t-85 8h-92v-213h-171v680zM347 340q41 0 62 8t29.5 28t8.5 60v21q0 40 -8.5 59t-29 26t-63.5 7h-120v-209h121z
M329 710l-161 124l49 54l112 -66l112 66l49 -54z" />
    <glyph glyph-name="rcaron" unicode="&#x159;" horiz-adv-x="476" 
d="M52 480h154v-87h3q10 34 26 54.5t41 30.5t64 10h6q46 0 71 -14.5t35 -47.5t10 -91q0 -37 -2 -68h-135v31q0 23 -4 36t-14.5 19t-30.5 6h-8q-22 0 -34 -8.5t-17.5 -29.5t-5.5 -59v-262h-159v480zM248 521l-161 125l49 54l112 -66l112 66l49 -54z" />
    <glyph glyph-name="Sacute" unicode="&#x15a;" horiz-adv-x="657" 
d="M146 7q-62 15 -82.5 53.5t-20.5 121.5v35h163v-25q0 -29 9.5 -43t35.5 -20t78 -6h19q44 0 65.5 6t29 19.5t7.5 40.5v12q0 27 -9.5 42t-41.5 24.5t-98 13.5q-110 7 -164 28.5t-73 62t-19 115.5v16q0 69 21.5 108.5t75 58t152.5 18.5h31q119 0 177 -17t77.5 -54t19.5 -110
v-31h-162v23q0 23 -7.5 35.5t-30.5 18.5t-68 6h-22q-42 0 -62.5 -5t-28.5 -17t-8 -36v-13q0 -25 9 -38t40 -21t99 -14q111 -10 165.5 -30.5t74 -59t19.5 -111.5v-19q0 -78 -23 -121.5t-75.5 -62.5t-146.5 -19h-27q-137 0 -199 15zM249 725l-31 56l197 117l52 -105z" />
    <glyph glyph-name="sacute" unicode="&#x15b;" horiz-adv-x="526" 
d="M113.5 5q-45.5 13 -61.5 41t-16 81v22h147v-7q0 -18 5 -27t19 -12.5t43 -3.5h22q28 0 42 3t19.5 11t5.5 25v6q0 18 -6.5 27.5t-31.5 16t-78 9.5q-77 5 -116 19.5t-53.5 43t-14.5 80.5v10q0 52 17 81.5t58.5 43t116.5 13.5h21q93 0 139 -11.5t62.5 -39.5t16.5 -82v-13
h-143v4q0 16 -4.5 24t-18 11.5t-40.5 3.5h-14q-28 0 -41 -3t-17.5 -10t-4.5 -22v-7q0 -13 6 -19.5t24.5 -10.5t58.5 -7q90 -7 134.5 -22t61 -43.5t16.5 -80.5v-16q0 -59 -20 -92t-65.5 -46.5t-127.5 -13.5h-25q-91 0 -136.5 13zM194 528l-38 52l180 140l67 -97z" />
    <glyph glyph-name="Scircumflex" unicode="&#x15c;" horiz-adv-x="657" 
d="M146 7q-62 15 -82.5 53.5t-20.5 121.5v35h163v-25q0 -29 9.5 -43t35.5 -20t78 -6h19q44 0 65.5 6t29 19.5t7.5 40.5v12q0 27 -9.5 42t-41.5 24.5t-98 13.5q-110 7 -164 28.5t-73 62t-19 115.5v16q0 69 21.5 108.5t75 58t152.5 18.5h31q119 0 177 -17t77.5 -54t19.5 -110
v-31h-162v23q0 23 -7.5 35.5t-30.5 18.5t-68 6h-22q-42 0 -62.5 -5t-28.5 -17t-8 -36v-13q0 -25 9 -38t40 -21t99 -14q111 -10 165.5 -30.5t74 -59t19.5 -111.5v-19q0 -78 -23 -121.5t-75.5 -62.5t-146.5 -19h-27q-137 0 -199 15zM215 728l-49 54l161 124l161 -124l-49 -54
l-112 65z" />
    <glyph glyph-name="scircumflex" unicode="&#x15d;" horiz-adv-x="526" 
d="M113.5 5q-45.5 13 -61.5 41t-16 81v22h147v-7q0 -18 5 -27t19 -12.5t43 -3.5h22q28 0 42 3t19.5 11t5.5 25v6q0 18 -6.5 27.5t-31.5 16t-78 9.5q-77 5 -116 19.5t-53.5 43t-14.5 80.5v10q0 52 17 81.5t58.5 43t116.5 13.5h21q93 0 139 -11.5t62.5 -39.5t16.5 -82v-13
h-143v4q0 16 -4.5 24t-18 11.5t-40.5 3.5h-14q-28 0 -41 -3t-17.5 -10t-4.5 -22v-7q0 -13 6 -19.5t24.5 -10.5t58.5 -7q90 -7 134.5 -22t61 -43.5t16.5 -80.5v-16q0 -59 -20 -92t-65.5 -46.5t-127.5 -13.5h-25q-91 0 -136.5 13zM146 536l-49 54l161 125l161 -125l-49 -54
l-112 66z" />
    <glyph glyph-name="Scedilla" unicode="&#x15e;" horiz-adv-x="657" 
d="M146 7q-62 15 -82.5 53.5t-20.5 121.5v35h163v-25q0 -29 9.5 -43t35.5 -20t78 -6h19q44 0 65.5 6t29 19.5t7.5 40.5v12q0 27 -9.5 42t-41.5 24.5t-98 13.5q-110 7 -164 28.5t-73 62t-19 115.5v16q0 69 21.5 108.5t75 58t152.5 18.5h31q119 0 177 -17t77.5 -54t19.5 -110
v-31h-162v23q0 23 -7.5 35.5t-30.5 18.5t-68 6h-22q-42 0 -62.5 -5t-28.5 -17t-8 -36v-13q0 -25 9 -38t40 -21t99 -14q111 -10 165.5 -30.5t74 -59t19.5 -111.5v-19q0 -78 -23 -121.5t-75.5 -62.5t-146.5 -19h-27q-137 0 -199 15zM223 -212l-44 50l164 153l80 -89z" />
    <glyph glyph-name="scedilla" unicode="&#x15f;" horiz-adv-x="526" 
d="M113.5 5q-45.5 13 -61.5 41t-16 81v22h147v-7q0 -18 5 -27t19 -12.5t43 -3.5h22q28 0 42 3t19.5 11t5.5 25v6q0 18 -6.5 27.5t-31.5 16t-78 9.5q-77 5 -116 19.5t-53.5 43t-14.5 80.5v10q0 52 17 81.5t58.5 43t116.5 13.5h21q93 0 139 -11.5t62.5 -39.5t16.5 -82v-13
h-143v4q0 16 -4.5 24t-18 11.5t-40.5 3.5h-14q-28 0 -41 -3t-17.5 -10t-4.5 -22v-7q0 -13 6 -19.5t24.5 -10.5t58.5 -7q90 -7 134.5 -22t61 -43.5t16.5 -80.5v-16q0 -59 -20 -92t-65.5 -46.5t-127.5 -13.5h-25q-91 0 -136.5 13zM163 -212l-44 50l164 153l80 -89z" />
    <glyph glyph-name="Scaron" unicode="&#x160;" horiz-adv-x="657" 
d="M146 7q-62 15 -82.5 53.5t-20.5 121.5v35h163v-25q0 -29 9.5 -43t35.5 -20t78 -6h19q44 0 65.5 6t29 19.5t7.5 40.5v12q0 27 -9.5 42t-41.5 24.5t-98 13.5q-110 7 -164 28.5t-73 62t-19 115.5v16q0 69 21.5 108.5t75 58t152.5 18.5h31q119 0 177 -17t77.5 -54t19.5 -110
v-31h-162v23q0 23 -7.5 35.5t-30.5 18.5t-68 6h-22q-42 0 -62.5 -5t-28.5 -17t-8 -36v-13q0 -25 9 -38t40 -21t99 -14q111 -10 165.5 -30.5t74 -59t19.5 -111.5v-19q0 -78 -23 -121.5t-75.5 -62.5t-146.5 -19h-27q-137 0 -199 15zM325 710l-161 124l49 54l112 -66l112 66
l49 -54z" />
    <glyph glyph-name="scaron" unicode="&#x161;" horiz-adv-x="526" 
d="M113.5 5q-45.5 13 -61.5 41t-16 81v22h147v-7q0 -18 5 -27t19 -12.5t43 -3.5h22q28 0 42 3t19.5 11t5.5 25v6q0 18 -6.5 27.5t-31.5 16t-78 9.5q-77 5 -116 19.5t-53.5 43t-14.5 80.5v10q0 52 17 81.5t58.5 43t116.5 13.5h21q93 0 139 -11.5t62.5 -39.5t16.5 -82v-13
h-143v4q0 16 -4.5 24t-18 11.5t-40.5 3.5h-14q-28 0 -41 -3t-17.5 -10t-4.5 -22v-7q0 -13 6 -19.5t24.5 -10.5t58.5 -7q90 -7 134.5 -22t61 -43.5t16.5 -80.5v-16q0 -59 -20 -92t-65.5 -46.5t-127.5 -13.5h-25q-91 0 -136.5 13zM260 521l-161 125l49 54l112 -66l112 66
l49 -54z" />
    <glyph glyph-name="uni0162" unicode="&#x162;" horiz-adv-x="570" 
d="M198 0v544h-186v136h546v-136h-185v-544h-175zM208 -203q33 0 45 9.5t12 34.5v7h-42v103h129v-97q0 -43 -12 -67t-43 -34.5t-89 -10.5v55z" />
    <glyph glyph-name="uni0163" unicode="&#x163;" horiz-adv-x="464" 
d="M138.5 7q-35.5 15 -49 55.5t-13.5 122.5v181h-64v114h64v125h156v-125h198v-114h-199v-164q0 -44 3 -62t11 -23t28 -5h7q19 0 26.5 5t10 21.5t2.5 57.5v15h123v-46q0 -71 -14.5 -107t-52 -51t-111.5 -15h-17q-73 0 -108.5 15zM182 -203q33 0 45 9.5t12 34.5v7h-42v103
h129v-97q0 -43 -12 -67t-43 -34.5t-89 -10.5v55z" />
    <glyph glyph-name="Tcaron" unicode="&#x164;" horiz-adv-x="570" 
d="M198 0v544h-186v136h546v-136h-185v-544h-175zM285 710l-161 124l49 54l112 -66l112 66l49 -54z" />
    <glyph glyph-name="tcaron" unicode="&#x165;" horiz-adv-x="464" 
d="M371 515h-87l19 165h118zM138.5 7q-35.5 15 -49 55.5t-13.5 122.5v181h-64v114h64v125h156v-125h198v-114h-199v-164q0 -44 3 -62t11 -23t28 -5h7q19 0 26.5 5t10 21.5t2.5 57.5v15h123v-46q0 -71 -14.5 -107t-52 -51t-111.5 -15h-17q-73 0 -108.5 15z" />
    <glyph glyph-name="Tbar" unicode="&#x166;" horiz-adv-x="570" 
d="M198 0v362h-131v94h131v88h-186v136h546v-136h-185v-88h137v-94h-137v-362h-175z" />
    <glyph glyph-name="tbar" unicode="&#x167;" horiz-adv-x="464" 
d="M442 211v-46q0 -71 -14.5 -107t-52 -51t-111.5 -15h-17q-73 0 -108.5 15t-49 55.5t-13.5 122.5v74h-51v66h51v41h-64v114h64v125h156v-125h198v-114h-199v-41h108v-66h-108v-57q0 -44 3 -62t11 -23t28 -5h7q19 0 26.5 5t10 21.5t2.5 57.5v15h123z" />
    <glyph glyph-name="Utilde" unicode="&#x168;" horiz-adv-x="698" 
d="M157.5 12.5q-59.5 20.5 -82 71t-22.5 151.5v445h175v-428q0 -55 8 -79.5t31 -33.5t74 -9h15q52 0 75 9t31 33.5t8 79.5v428h175v-445q0 -101 -22 -151.5t-82 -71t-183 -20.5h-19q-122 0 -181.5 20.5zM201 753q2 56 23.5 88t65.5 32q17 0 31 -5t31 -14t28.5 -14t22.5 -5
q15 0 23.5 10.5t9.5 29.5l61 -13q-2 -59 -23.5 -90.5t-67.5 -31.5q-17 0 -31 4.5t-32 14.5q-14 8 -25.5 12.5t-22.5 4.5q-15 0 -24 -8.5t-11 -28.5z" />
    <glyph glyph-name="utilde" unicode="&#x169;" horiz-adv-x="579" 
d="M114.5 10q-36.5 18 -52 61.5t-15.5 122.5v286h159v-272q0 -42 5.5 -61.5t20.5 -27t47 -7.5h8q33 0 50 8.5t24 29t7 59.5v271h159v-480h-157v73h-1q-17 -42 -52 -61.5t-93 -19.5h-7q-66 0 -102.5 18zM139 564q2 56 23.5 88t65.5 32q17 0 31 -5t31 -14t28.5 -14t22.5 -5
q15 0 23.5 10.5t9.5 29.5l61 -13q-2 -59 -23.5 -90.5t-67.5 -31.5q-17 0 -31 4.5t-32 14.5q-14 8 -25.5 12.5t-22.5 4.5q-15 0 -24 -8.5t-11 -28.5z" />
    <glyph glyph-name="Umacron" unicode="&#x16a;" horiz-adv-x="698" 
d="M157.5 12.5q-59.5 20.5 -82 71t-22.5 151.5v445h175v-428q0 -55 8 -79.5t31 -33.5t74 -9h15q52 0 75 9t31 33.5t8 79.5v428h175v-445q0 -101 -22 -151.5t-82 -71t-183 -20.5h-19q-122 0 -181.5 20.5zM204 757v94h290v-94h-290z" />
    <glyph glyph-name="umacron" unicode="&#x16b;" horiz-adv-x="579" 
d="M114.5 10q-36.5 18 -52 61.5t-15.5 122.5v286h159v-272q0 -42 5.5 -61.5t20.5 -27t47 -7.5h8q33 0 50 8.5t24 29t7 59.5v271h159v-480h-157v73h-1q-17 -42 -52 -61.5t-93 -19.5h-7q-66 0 -102.5 18zM143 571v94h290v-94h-290z" />
    <glyph glyph-name="Ubreve" unicode="&#x16c;" horiz-adv-x="698" 
d="M157.5 12.5q-59.5 20.5 -82 71t-22.5 151.5v445h175v-428q0 -55 8 -79.5t31 -33.5t74 -9h15q52 0 75 9t31 33.5t8 79.5v428h175v-445q0 -101 -22 -151.5t-82 -71t-183 -20.5h-19q-122 0 -181.5 20.5zM228 764.5q-44 36.5 -44 107.5h77q5 -30 26 -41.5t62 -11.5
q40 0 61 11.5t27 41.5h77q0 -72 -44 -108t-121 -36t-121 36.5z" />
    <glyph glyph-name="ubreve" unicode="&#x16d;" horiz-adv-x="579" 
d="M114.5 10q-36.5 18 -52 61.5t-15.5 122.5v286h159v-272q0 -42 5.5 -61.5t20.5 -27t47 -7.5h8q33 0 50 8.5t24 29t7 59.5v271h159v-480h-157v73h-1q-17 -42 -52 -61.5t-93 -19.5h-7q-66 0 -102.5 18zM166 575.5q-44 36.5 -44 107.5h77q5 -30 26 -41.5t62 -11.5
q40 0 61 11.5t27 41.5h77q0 -72 -44 -108t-121 -36t-121 36.5z" />
    <glyph glyph-name="Uring" unicode="&#x16e;" horiz-adv-x="698" 
d="M157.5 12.5q-59.5 20.5 -82 71t-22.5 151.5v445h175v-428q0 -55 8 -79.5t31 -33.5t74 -9h15q52 0 75 9t31 33.5t8 79.5v428h175v-445q0 -101 -22 -151.5t-82 -71t-183 -20.5h-19q-122 0 -181.5 20.5zM252 729q-31 24 -31 72v6q0 48 31 71.5t95 23.5h4q64 0 95 -23.5
t31 -71.5v-6q0 -48 -31 -72t-95 -24h-4q-64 0 -95 24zM351 766q24 0 36 8.5t12 25.5v6q0 17 -12 25.5t-36 8.5h-4q-24 0 -36 -8.5t-12 -25.5v-6q0 -17 12 -25.5t36 -8.5h4z" />
    <glyph glyph-name="uring" unicode="&#x16f;" horiz-adv-x="579" 
d="M114.5 10q-36.5 18 -52 61.5t-15.5 122.5v286h159v-272q0 -42 5.5 -61.5t20.5 -27t47 -7.5h8q33 0 50 8.5t24 29t7 59.5v271h159v-480h-157v73h-1q-17 -42 -52 -61.5t-93 -19.5h-7q-66 0 -102.5 18zM190 550q-31 24 -31 72v6q0 48 31 71.5t95 23.5h4q64 0 95 -23.5
t31 -71.5v-6q0 -48 -31 -72t-95 -24h-4q-64 0 -95 24zM289 587q24 0 36 8.5t12 25.5v6q0 17 -12 25.5t-36 8.5h-4q-24 0 -36 -8.5t-12 -25.5v-6q0 -17 12 -25.5t36 -8.5h4z" />
    <glyph glyph-name="Uhungarumlaut" unicode="&#x170;" horiz-adv-x="698" 
d="M157.5 12.5q-59.5 20.5 -82 71t-22.5 151.5v445h175v-428q0 -55 8 -79.5t31 -33.5t74 -9h15q52 0 75 9t31 33.5t8 79.5v428h175v-445q0 -101 -22 -151.5t-82 -71t-183 -20.5h-19q-122 0 -181.5 20.5zM233 714l-40 51l145 132l62 -75zM424 712l-39 52l149 131l61 -74z" />
    <glyph glyph-name="uhungarumlaut" unicode="&#x171;" horiz-adv-x="579" 
d="M114.5 10q-36.5 18 -52 61.5t-15.5 122.5v286h159v-272q0 -42 5.5 -61.5t20.5 -27t47 -7.5h8q33 0 50 8.5t24 29t7 59.5v271h159v-480h-157v73h-1q-17 -42 -52 -61.5t-93 -19.5h-7q-66 0 -102.5 18zM186 529l-42 50l137 138l66 -71zM373 529l-43 50l142 138l66 -71z" />
    <glyph glyph-name="Uogonek" unicode="&#x172;" horiz-adv-x="698" 
d="M645 680v-445q0 -84 -14.5 -131.5t-52 -72.5t-110.5 -34q-26 -26 -38 -47t-12 -41q0 -18 9.5 -25.5t30.5 -7.5q24 0 54 6v-73q-43 -15 -91 -15q-54 0 -83.5 20.5t-29.5 62.5q0 33 15.5 59.5t50.5 55.5h-16h-19q-122 0 -181.5 20.5t-82 71t-22.5 151.5v445h175v-428
q0 -55 8 -79.5t31 -33.5t74 -9h15q52 0 75 9t31 33.5t8 79.5v428h175z" />
    <glyph glyph-name="uogonek" unicode="&#x173;" horiz-adv-x="579" 
d="M331.5 -185.5q-30.5 20.5 -30.5 62.5q0 35 18 64t51 59v73h-1q-17 -42 -52 -61.5t-93 -19.5h-7q-66 0 -102.5 18t-52 61.5t-15.5 122.5v286h159v-272q0 -42 5.5 -61.5t20.5 -27t47 -7.5h8q33 0 50 8.5t24 29t7 59.5v271h159v-480h-64q-22 -19 -37 -43.5t-15 -47.5
q0 -18 9.5 -25.5t31.5 -7.5q23 0 53 6v-73q-42 -15 -90 -15q-53 0 -83.5 20.5z" />
    <glyph glyph-name="Wcircumflex" unicode="&#x174;" horiz-adv-x="954" 
d="M160 0l-147 680h175l85 -537h4l106 537h194l107 -537h3l84 537h170l-145 -680h-215l-101 516h-3l-102 -516h-215zM367 728l-49 54l161 124l161 -124l-49 -54l-112 65z" />
    <glyph glyph-name="wcircumflex" unicode="&#x175;" horiz-adv-x="828" 
d="M139 0l-127 480h168l70 -365h4l76 365h173l79 -365h4l68 365h162l-126 -480h-214l-60 323h-3l-59 -323h-215zM301 536l-49 54l161 125l161 -125l-49 -54l-112 66z" />
    <glyph glyph-name="Ycircumflex" unicode="&#x176;" horiz-adv-x="650" 
d="M237 0v220l-230 460h188l131 -307h3l126 307h188l-231 -460v-220h-175zM216 728l-49 54l161 124l161 -124l-49 -54l-112 65z" />
    <glyph glyph-name="ycircumflex" unicode="&#x177;" horiz-adv-x="513" 
d="M92 -170v116q13 -2 35 -2q45 0 68 16.5t32 59.5h-86l-134 460h165l83 -351h6l82 351h163l-126 -426q-28 -96 -56 -144t-65.5 -66t-99.5 -18q-23 0 -67 4zM146 536l-49 54l161 125l161 -125l-49 -54l-112 66z" />
    <glyph glyph-name="Ydieresis" unicode="&#x178;" horiz-adv-x="650" 
d="M237 0v220l-230 460h188l131 -307h3l126 307h188l-231 -460v-220h-175zM151 744v124h134v-124h-134zM371 744v124h134v-124h-134z" />
    <glyph glyph-name="Zacute" unicode="&#x179;" horiz-adv-x="605" 
d="M36 0v135l326 413v1h-318v131h519v-136l-325 -410v-2h332v-132h-534zM234 725l-31 56l197 117l52 -105z" />
    <glyph glyph-name="zacute" unicode="&#x17a;" horiz-adv-x="458" 
d="M26 0v116l212 247v2h-200v115h387v-121l-208 -241v-2h219v-116h-410zM160 528l-38 52l180 140l67 -97z" />
    <glyph glyph-name="Zdotaccent" unicode="&#x17b;" horiz-adv-x="605" 
d="M36 0v135l326 413v1h-318v131h519v-136l-325 -410v-2h332v-132h-534zM225 744v124h159v-124h-159z" />
    <glyph glyph-name="zdotaccent" unicode="&#x17c;" horiz-adv-x="458" 
d="M26 0v116l212 247v2h-200v115h387v-121l-208 -241v-2h219v-116h-410zM149 556v124h159v-124h-159z" />
    <glyph glyph-name="Zcaron" unicode="&#x17d;" horiz-adv-x="605" 
d="M36 0v135l326 413v1h-318v131h519v-136l-325 -410v-2h332v-132h-534zM307 710l-161 124l49 54l112 -66l112 66l49 -54z" />
    <glyph glyph-name="zcaron" unicode="&#x17e;" horiz-adv-x="458" 
d="M26 0v116l212 247v2h-200v115h387v-121l-208 -241v-2h219v-116h-410zM231 521l-161 125l49 54l112 -66l112 66l49 -54z" />
    <glyph glyph-name="florin" unicode="&#x192;" horiz-adv-x="700" 
d="M94 -164q-31 3 -50 8v122q15 -4 36.5 -8.5t41.5 -4.5q38 0 60.5 10t36.5 38t22 82l27 175h-147v122h166l15 92q13 79 43.5 126.5t78.5 68t116 20.5q31 0 57.5 -3t55.5 -9v-122q-48 12 -86 12q-36 0 -57.5 -11.5t-35 -40t-22.5 -83.5l-8 -50h170v-122h-188l-32 -213
q-11 -69 -36 -115.5t-74.5 -71.5t-129.5 -25q-29 0 -60 3z" />
    <glyph glyph-name="Scommaaccent" unicode="&#x218;" horiz-adv-x="657" 
d="M146 7q-62 15 -82.5 53.5t-20.5 121.5v35h163v-25q0 -29 9.5 -43t35.5 -20t78 -6h19q44 0 65.5 6t29 19.5t7.5 40.5v12q0 27 -9.5 42t-41.5 24.5t-98 13.5q-110 7 -164 28.5t-73 62t-19 115.5v16q0 69 21.5 108.5t75 58t152.5 18.5h31q119 0 177 -17t77.5 -54t19.5 -110
v-31h-162v23q0 23 -7.5 35.5t-30.5 18.5t-68 6h-22q-42 0 -62.5 -5t-28.5 -17t-8 -36v-13q0 -25 9 -38t40 -21t99 -14q111 -10 165.5 -30.5t74 -59t19.5 -111.5v-19q0 -78 -23 -121.5t-75.5 -62.5t-146.5 -19h-27q-137 0 -199 15zM256 -203q33 0 45 9.5t12 34.5v7h-42v103
h129v-97q0 -43 -12 -67t-43 -34.5t-89 -10.5v55z" />
    <glyph glyph-name="scommaaccent" unicode="&#x219;" horiz-adv-x="526" 
d="M113.5 5q-45.5 13 -61.5 41t-16 81v22h147v-7q0 -18 5 -27t19 -12.5t43 -3.5h22q28 0 42 3t19.5 11t5.5 25v6q0 18 -6.5 27.5t-31.5 16t-78 9.5q-77 5 -116 19.5t-53.5 43t-14.5 80.5v10q0 52 17 81.5t58.5 43t116.5 13.5h21q93 0 139 -11.5t62.5 -39.5t16.5 -82v-13
h-143v4q0 16 -4.5 24t-18 11.5t-40.5 3.5h-14q-28 0 -41 -3t-17.5 -10t-4.5 -22v-7q0 -13 6 -19.5t24.5 -10.5t58.5 -7q90 -7 134.5 -22t61 -43.5t16.5 -80.5v-16q0 -59 -20 -92t-65.5 -46.5t-127.5 -13.5h-25q-91 0 -136.5 13zM196 -203q33 0 45 9.5t12 34.5v7h-42v103h129
v-97q0 -43 -12 -67t-43 -34.5t-89 -10.5v55z" />
    <glyph glyph-name="uni021A" unicode="&#x21a;" horiz-adv-x="570" 
d="M198 0v544h-186v136h546v-136h-185v-544h-175zM208 -203q33 0 45 9.5t12 34.5v7h-42v103h129v-97q0 -43 -12 -67t-43 -34.5t-89 -10.5v55z" />
    <glyph glyph-name="uni021B" unicode="&#x21b;" horiz-adv-x="464" 
d="M138.5 7q-35.5 15 -49 55.5t-13.5 122.5v181h-64v114h64v125h156v-125h198v-114h-199v-164q0 -44 3 -62t11 -23t28 -5h7q19 0 26.5 5t10 21.5t2.5 57.5v15h123v-46q0 -71 -14.5 -107t-52 -51t-111.5 -15h-17q-73 0 -108.5 15zM182 -203q33 0 45 9.5t12 34.5v7h-42v103
h129v-97q0 -43 -12 -67t-43 -34.5t-89 -10.5v55z" />
    <glyph glyph-name="dotlessj" unicode="&#x237;" horiz-adv-x="266" 
d="M4 -170v115q9 -1 19 -1q13 0 19.5 4.5t9.5 15t3 31.5v485h159v-508q0 -56 -17.5 -87.5t-51.5 -45t-88 -13.5q-29 0 -53 4z" />
    <glyph glyph-name="circumflex" unicode="&#x2c6;" 
d="M102 536l-49 54l161 125l161 -125l-49 -54l-112 66z" />
    <glyph glyph-name="caron" unicode="&#x2c7;" 
d="M214 521l-161 125l49 54l112 -66l112 66l49 -54z" />
    <glyph glyph-name="uni02C9" unicode="&#x2c9;" 
d="M69 757v94h290v-94h-290z" />
    <glyph glyph-name="breve" unicode="&#x2d8;" 
d="M93 575.5q-44 36.5 -44 107.5h77q5 -30 26 -41.5t62 -11.5q40 0 61 11.5t27 41.5h77q0 -72 -44 -108t-121 -36t-121 36.5z" />
    <glyph glyph-name="dotaccent" unicode="&#x2d9;" 
d="M134 556v124h159v-124h-159z" />
    <glyph glyph-name="ring" unicode="&#x2da;" 
d="M117 550q-31 24 -31 72v6q0 48 31 71.5t95 23.5h4q64 0 95 -23.5t31 -71.5v-6q0 -48 -31 -72t-95 -24h-4q-64 0 -95 24zM216 587q24 0 36 8.5t12 25.5v6q0 17 -12 25.5t-36 8.5h-4q-24 0 -36 -8.5t-12 -25.5v-6q0 -17 12 -25.5t36 -8.5h4z" />
    <glyph glyph-name="ogonek" unicode="&#x2db;" 
d="M133.5 -187q-31.5 19 -31.5 64q0 38 21.5 66.5t67.5 56.5h79q-33 -31 -45.5 -51.5t-12.5 -39.5q0 -18 9.5 -25.5t30.5 -7.5q24 0 54 6v-73q-42 -15 -90 -15q-51 0 -82.5 19z" />
    <glyph glyph-name="tilde" unicode="&#x2dc;" 
d="M66 564q2 56 23.5 88t65.5 32q17 0 31 -5t31 -14t28.5 -14t22.5 -5q15 0 23.5 10.5t9.5 29.5l61 -13q-2 -59 -23.5 -90.5t-67.5 -31.5q-17 0 -31 4.5t-32 14.5q-14 8 -25.5 12.5t-22.5 4.5q-15 0 -24 -8.5t-11 -28.5z" />
    <glyph glyph-name="hungarumlaut" unicode="&#x2dd;" 
d="M70 529l-42 50l137 138l66 -71zM257 529l-43 50l142 138l66 -71z" />
    <glyph glyph-name="uni0326.alt" unicode="&#x313;" horiz-adv-x="0" 
d="M-276 642q0 43 12 67t43 34.5t89 10.5v-55q-33 0 -45 -9.5t-12 -34.5v-7h42v-103h-129v97z" />
    <glyph glyph-name="commaaccent" unicode="&#x326;" horiz-adv-x="0" 
d="M-297 -203q33 0 45 9.5t12 34.5v7h-42v103h129v-97q0 -43 -12 -67t-43 -34.5t-89 -10.5v55z" />
    <glyph glyph-name="uni0394" unicode="&#x394;" horiz-adv-x="653" 
d="M19 0v135l194 545h225l195 -545v-135h-614zM199 137h247l-121 401h-5z" />
    <glyph glyph-name="uni03A9" unicode="&#x3a9;" horiz-adv-x="737" 
d="M41 136h140v26q-50 10 -78 29.5t-40 52.5t-12 86v112q0 101 22 151.5t86 73t197 22.5h24q133 0 197 -22.5t86 -73t22 -151.5v-112q0 -53 -12 -86t-40 -52.5t-78 -29.5v-26h140v-136h-293v240h11q41 0 60.5 6.5t26.5 23t7 51.5v126q0 45 -8.5 66.5t-35.5 30.5t-86 9h-18
q-59 0 -86 -9t-35.5 -30.5t-8.5 -66.5v-126q0 -35 7 -51.5t26.5 -23t60.5 -6.5h11v-240h-293v136z" />
    <glyph glyph-name="uni03BC" unicode="&#x3bc;" horiz-adv-x="588" 
d="M52 480h159v-279q0 -38 6.5 -56.5t22 -25.5t47.5 -7h8q33 0 50.5 8t24.5 28.5t7 59.5v272h159v-480h-156v71h-2q-28 -75 -112 -75h-4q-13 0 -27.5 3.5t-21.5 7.5h-2v-177h-159v650z" />
    <glyph glyph-name="pi" unicode="&#x3c0;" horiz-adv-x="605" 
d="M427 7q-32 14 -47 48t-15 94v209h-129v-358h-159v358h-55v122h561v-122h-59v-196q0 -25 8 -34t28 -9q6 0 13.5 1.5t9.5 1.5v-122q-29 -7 -70 -7q-54 0 -86 14z" />
    <glyph glyph-name="Wgrave" unicode="&#x1e80;" horiz-adv-x="954" 
d="M546 726l-218 68l52 105l197 -117zM160 0l-147 681h175l85 -538h4l106 538h195l107 -538h3l84 538h170l-145 -681h-215l-102 517h-3l-102 -517h-215z" />
    <glyph glyph-name="wgrave" unicode="&#x1e81;" horiz-adv-x="828" 
d="M461 529l-210 95l68 97l180 -140zM139 0l-127 480h168l70 -365h4l76 365h174l79 -365h4l68 365h162l-126 -480h-215l-60 323h-3l-59 -323h-215z" />
    <glyph glyph-name="Wacute" unicode="&#x1e82;" horiz-adv-x="954" 
d="M413 726l-31 56l197 117l52 -105zM160 0l-147 681h175l85 -538h4l106 538h195l107 -538h3l84 538h170l-145 -681h-215l-102 517h-3l-102 -517h-215z" />
    <glyph glyph-name="wacute" unicode="&#x1e83;" horiz-adv-x="828" 
d="M356 529l-38 52l180 140l67 -97zM139 0l-127 480h168l70 -365h4l76 365h174l79 -365h4l68 365h162l-126 -480h-215l-60 323h-3l-59 -323h-215z" />
    <glyph glyph-name="Wdieresis" unicode="&#x1e84;" horiz-adv-x="954" 
d="M299 745v124h134v-124h-134zM519 745v124h134v-124h-134zM160 0l-147 681h175l85 -538h4l106 538h195l107 -538h3l84 538h170l-145 -681h-215l-102 517h-3l-102 -517h-215z" />
    <glyph glyph-name="wdieresis" unicode="&#x1e85;" horiz-adv-x="828" 
d="M240 557v124h134v-124h-134zM458 557v124h134v-124h-134zM139 0l-127 480h168l70 -365h4l76 365h174l79 -365h4l68 365h162l-126 -480h-215l-60 323h-3l-59 -323h-215z" />
    <glyph glyph-name="Germandbls" unicode="&#x1e9e;" horiz-adv-x="695" 
d="M586 351.5q38 -18.5 56 -56.5t18 -101q0 -76 -22 -119.5t-70.5 -62t-132.5 -18.5h-31q-30 0 -82 6v136q21 -5 71 -5h23q30 0 45.5 7t22 23.5t6.5 47.5t-8.5 47.5t-27 22.5t-52.5 6h-80v144l155 76q-3 18 -15.5 28t-35 14t-60.5 4h-15q-51 0 -77.5 -6.5t-38 -24
t-11.5 -52.5v-468h-171v453q0 93 24 143t86 71.5t180 21.5h26q100 0 158.5 -20.5t84.5 -62t26 -108.5v-38l-152 -86q62 -4 100 -22.5z" />
    <glyph glyph-name="Ygrave" unicode="&#x1ef2;" horiz-adv-x="650" 
d="M374 726l-218 68l52 105l197 -117zM237 0v220l-230 461h188l131 -308h3l126 308h189l-232 -461v-220h-175z" />
    <glyph glyph-name="ygrave" unicode="&#x1ef3;" horiz-adv-x="513" 
d="M298 529l-210 95l68 97l180 -140zM92 -170v116q13 -2 35 -2q45 0 68 16.5t32 59.5h-86l-134 460h165l83 -351h6l82 351h164l-127 -426q-28 -96 -56 -144t-65.5 -66t-99.5 -18q-23 0 -67 4z" />
    <glyph glyph-name="uni2011" unicode="&#x2011;" horiz-adv-x="422" 
d="M64 176v143h294v-143h-294z" />
    <glyph glyph-name="endash" unicode="&#x2013;" horiz-adv-x="604" 
d="M0 203v100h604v-100h-604z" />
    <glyph glyph-name="emdash" unicode="&#x2014;" horiz-adv-x="911" 
d="M28 203v100h855v-100h-855z" />
    <glyph glyph-name="quoteleft" unicode="&#x2018;" horiz-adv-x="257" 
d="M52 512q0 62 13.5 98t48 53t99.5 17v-81q-24 0 -37.5 -7.5t-18.5 -22t-5 -38.5v-10h47v-155h-147v146z" />
    <glyph glyph-name="quoteright" unicode="&#x2019;" horiz-adv-x="257" 
d="M46 447q24 0 37.5 7.5t18.5 22t5 38.5v10h-47v155h147v-146q0 -62 -13.5 -98t-48 -53t-99.5 -17v81z" />
    <glyph glyph-name="quotesinglbase" unicode="&#x201a;" horiz-adv-x="257" 
d="M44 -78q24 0 37.5 7.5t18.5 22t5 38.5v10h-47v155h147v-146q0 -62 -13.5 -98t-48 -53t-99.5 -17v81z" />
    <glyph glyph-name="quotedblleft" unicode="&#x201c;" horiz-adv-x="478" 
d="M52 512q0 62 13.5 98t48 53t99.5 17v-81q-24 0 -37.5 -7.5t-18.5 -22t-5 -38.5v-10h47v-155h-147v146zM273 512q0 62 13.5 98t48 53t99.5 17v-81q-24 0 -37.5 -7.5t-18.5 -22t-5 -38.5v-10h47v-155h-147v146z" />
    <glyph glyph-name="quotedblright" unicode="&#x201d;" horiz-adv-x="478" 
d="M46 447q24 0 37.5 7.5t18.5 22t5 38.5v10h-47v155h147v-146q0 -62 -13.5 -98t-48 -53t-99.5 -17v81zM267 447q24 0 37.5 7.5t18.5 22t5 38.5v10h-47v155h147v-146q0 -62 -13.5 -98t-48 -53t-99.5 -17v81z" />
    <glyph glyph-name="quotedblbase" unicode="&#x201e;" horiz-adv-x="478" 
d="M44 -78q24 0 37.5 7.5t18.5 22t5 38.5v10h-47v155h147v-146q0 -62 -13.5 -98t-48 -53t-99.5 -17v81zM265 -78q24 0 37.5 7.5t18.5 22t5 38.5v10h-47v155h147v-146q0 -62 -13.5 -98t-48 -53t-99.5 -17v81z" />
    <glyph glyph-name="dagger" unicode="&#x2020;" horiz-adv-x="595" 
d="M232 -90v466h-158v121h158v183h130v-183h159v-121h-159v-466h-130z" />
    <glyph glyph-name="daggerdbl" unicode="&#x2021;" horiz-adv-x="575" 
d="M222 -90v153h-148v115h148v237h-148v115h148v150h130v-150h149v-115h-149v-237h149v-115h-149v-153h-130z" />
    <glyph glyph-name="bullet" unicode="&#x2022;" horiz-adv-x="506" 
d="M179 213q-34 20 -54 54t-20 74t20 74t54 54t74 20t74 -20t54 -54t20 -74t-20 -74t-54 -54t-74 -20t-74 20z" />
    <glyph glyph-name="ellipsis" unicode="&#x2026;" horiz-adv-x="801" 
d="M51 0v165h165v-165h-165zM318 0v165h165v-165h-165zM585 0v165h165v-165h-165z" />
    <glyph glyph-name="perthousand" unicode="&#x2030;" horiz-adv-x="1156" 
d="M109 359q-29 13 -41 44.5t-12 92.5v36q0 60 12 91.5t41 44.5t85 13h16q56 0 85.5 -13t41.5 -44.5t12 -91.5v-36q0 -61 -12 -92.5t-41.5 -44.5t-85.5 -13h-16q-56 0 -85 13zM226 0l274 680h94l-273 -680h-95zM208 421q16 0 23.5 5.5t10.5 20.5t3 45v44q0 30 -3 44
t-10.5 19.5t-23.5 5.5h-10q-17 0 -24.5 -5.5t-10.5 -19.5t-3 -44v-44q0 -30 3 -45t11 -20.5t24 -5.5h10zM526 12q-29 13 -41 44.5t-12 92.5v36q0 60 12 91.5t41 44.5t85 13h16q56 0 85.5 -13t41.5 -44.5t12 -91.5v-36q0 -61 -12 -92.5t-41.5 -44.5t-85.5 -13h-16
q-56 0 -85 13zM860 12q-29 13 -41 44.5t-12 92.5v36q0 60 12 91.5t41 44.5t85 13h16q56 0 85.5 -13t41.5 -44.5t12 -91.5v-36q0 -61 -12 -92.5t-41.5 -44.5t-85.5 -13h-16q-56 0 -85 13zM625 74q16 0 23.5 5.5t10.5 20.5t3 45v44q0 30 -3 44t-10.5 19.5t-23.5 5.5h-10
q-17 0 -24.5 -5.5t-10.5 -19.5t-3 -44v-44q0 -30 3 -45t11 -20.5t24 -5.5h10zM959 74q16 0 23.5 5.5t10.5 20.5t3 45v44q0 30 -3 44t-10.5 19.5t-23.5 5.5h-10q-17 0 -24.5 -5.5t-10.5 -19.5t-3 -44v-44q0 -30 3 -45t11 -20.5t24 -5.5h10z" />
    <glyph glyph-name="guilsinglleft" unicode="&#x2039;" horiz-adv-x="307" 
d="M145 71l-97 200l97 201l108 -40l-75 -161l75 -160z" />
    <glyph glyph-name="guilsinglright" unicode="&#x203a;" horiz-adv-x="307" 
d="M162 72l-108 40l75 161l-75 160l108 40l97 -200z" />
    <glyph glyph-name="fraction" unicode="&#x2044;" horiz-adv-x="144" 
d="M-112 0l274 680h94l-273 -680h-95z" />
    <glyph glyph-name="zero.superior" unicode="&#x2070;" horiz-adv-x="422" 
d="M96.5 463.5q-34.5 14.5 -47.5 49t-13 102.5v52q0 64 13 98t48 49t105 15h18q70 0 105 -15t48 -49t13 -98v-52q0 -68 -13 -102.5t-48 -49t-105 -14.5h-18q-71 0 -105.5 14.5zM218 531q27 0 40.5 7t18.5 23t5 48v60q0 33 -5 49t-18.5 23t-40.5 7h-14q-27 0 -40.5 -7
t-18.5 -23t-5 -49v-60q0 -32 5 -48t18.5 -23t40.5 -7h14z" />
    <glyph glyph-name="four.superior" unicode="&#x2074;" horiz-adv-x="433" 
d="M251 453v75h-218v98l177 199h147v-222h49v-75h-49v-75h-106zM122 603h129v149h-4l-125 -148v-1z" />
    <glyph glyph-name="five.superior" unicode="&#x2075;" horiz-adv-x="410" 
d="M97.5 458q-32.5 9 -44.5 31t-12 66v13h96v-8q0 -13 4.5 -19.5t16.5 -9.5t35 -3h15q30 0 43 3t17 11t4 28v13q0 21 -4 30.5t-16.5 12.5t-42.5 3h-16q-22 0 -32 -2.5t-13.5 -7.5t-4.5 -15h-98v221h321v-81h-222v-65h1q9 13 28 19t54 6h15q54 0 82 -9.5t39.5 -33.5t11.5 -71
v-19q0 -49 -13.5 -74.5t-48 -36.5t-101.5 -11h-16q-66 0 -98.5 9z" />
    <glyph glyph-name="six.superior" unicode="&#x2076;" horiz-adv-x="413" 
d="M95 461q-33 12 -45 43.5t-12 95.5v78q0 65 13 96.5t47 43t105 11.5h19q62 0 93 -8.5t42.5 -30t11.5 -64.5v-11h-99v7q0 13 -4 19.5t-15 9t-33 2.5h-14q-29 0 -41.5 -4.5t-16.5 -16.5t-4 -40v-24h2q8 12 26.5 18t49.5 6h16q58 0 88 -9.5t41.5 -31.5t11.5 -63v-19
q0 -50 -13 -75t-46.5 -35t-101.5 -10h-19q-69 0 -102 12zM214 527q29 0 41 3t15.5 11t3.5 27v9q0 19 -3.5 27t-16 11t-40.5 3h-13q-28 0 -40.5 -3t-16 -11t-3.5 -27v-9q0 -19 3.5 -27t15.5 -11t41 -3h13z" />
    <glyph glyph-name="seven.superior" unicode="&#x2077;" horiz-adv-x="391" 
d="M79 453l149 284v2h-195v86h321v-74l-156 -298h-119z" />
    <glyph glyph-name="eight.superior" unicode="&#x2078;" horiz-adv-x="404" 
d="M92.5 457q-32.5 8 -44.5 28t-12 59v15q0 36 11 55t38 27v1q-26 8 -37 26t-11 55v14q0 38 11.5 57t44 27t98.5 8h21q66 0 98.5 -8t44.5 -27t12 -57v-14q0 -37 -11 -55t-37 -26v-1q27 -8 38.5 -27.5t11.5 -54.5v-15q0 -39 -12 -59t-45 -28t-100 -8h-20q-67 0 -99.5 8z
M210 678q26 0 37 2.5t14.5 9t3.5 21.5v11q0 15 -3.5 21.5t-14.5 9t-37 2.5h-16q-26 0 -37 -2.5t-14.5 -9t-3.5 -21.5v-11q0 -15 3.5 -21.5t14.5 -9t37 -2.5h16zM211 524q26 0 37.5 2.5t15 9t3.5 21.5v18q0 15 -3.5 21.5t-14.5 8.5t-38 2h-17q-27 0 -38 -2t-14.5 -8.5
t-3.5 -21.5v-18q0 -15 3.5 -21.5t14.5 -9t38 -2.5h17z" />
    <glyph glyph-name="nine.superior" unicode="&#x2079;" horiz-adv-x="413" 
d="M93.5 457.5q-31.5 8.5 -43 29.5t-11.5 65v11h100v-7q0 -13 3.5 -19.5t15.5 -9t37 -2.5h13q30 0 42.5 4t16.5 16t4 41v24h-1q-10 -12 -28 -18t-48 -6h-17q-58 0 -88 9.5t-41.5 32t-11.5 65.5v19q0 48 13 72.5t47 34.5t102 10h19q68 0 101 -12t45.5 -43t12.5 -94v-78
q0 -66 -13 -97.5t-47.5 -43.5t-106.5 -12h-19q-65 0 -96.5 8.5zM212 660q28 0 40.5 3t16 11t3.5 27v9q0 19 -4 27t-16 11t-40 3h-13q-28 0 -40 -3t-16 -11t-4 -27v-9q0 -19 4 -27t16 -11t40 -3h13z" />
    <glyph glyph-name="uni207A" unicode="&#x207a;" horiz-adv-x="341" 
d="M129 494v89h-91v74h91v87h83v-87h90v-74h-90v-89h-83z" />
    <glyph glyph-name="uni207B" unicode="&#x207b;" horiz-adv-x="341" 
d="M38 583v74h264v-74h-264z" />
    <glyph glyph-name="uni207C" unicode="&#x207c;" horiz-adv-x="341" 
d="M38 636v72h264v-72h-264zM38 526v72h264v-72h-264z" />
    <glyph glyph-name="uni207D" unicode="&#x207d;" horiz-adv-x="230" 
d="M91 462q-28 11 -40.5 49t-12.5 123v12q0 85 12.5 123t40.5 49t89 11h10v-73h-8q-19 0 -28 -7t-12.5 -30.5t-3.5 -75.5v-7q0 -52 3.5 -75t12.5 -30t28 -7h8v-73h-10q-61 0 -89 11z" />
    <glyph glyph-name="uni207E" unicode="&#x207e;" horiz-adv-x="229" 
d="M36 524h7q19 0 28 7t13 30t4 75v8q0 52 -4 75t-13 30t-28 7h-7v73h9q61 0 89.5 -11t40.5 -49t12 -123v-12q0 -84 -12 -122t-40.5 -49.5t-89.5 -11.5h-9v73z" />
    <glyph glyph-name="n.superior" unicode="&#x207f;" horiz-adv-x="491" 
d="M52 826h126v-55h1q16 32 43.5 46.5t73.5 14.5h5q56 0 85.5 -13.5t42 -46t12.5 -93.5v-225h-129v212q0 31 -4 46t-16.5 20.5t-38.5 5.5h-7q-26 0 -40.5 -6.5t-20 -22t-5.5 -44.5v-211h-128v372z" />
    <glyph glyph-name="zero.inferior" unicode="&#x2080;" horiz-adv-x="422" 
d="M96.5 -143.5q-34.5 14.5 -47.5 49t-13 102.5v52q0 64 13 98t48 49t105 15h18q70 0 105 -15t48 -49t13 -98v-52q0 -68 -13 -102.5t-48 -49t-105 -14.5h-18q-71 0 -105.5 14.5zM218 -76q27 0 40.5 7t18.5 23t5 48v60q0 33 -5 49t-18.5 23t-40.5 7h-14q-27 0 -40.5 -7
t-18.5 -23t-5 -49v-60q0 -32 5 -48t18.5 -23t40.5 -7h14z" />
    <glyph glyph-name="one.inferior" unicode="&#x2081;" horiz-adv-x="329" 
d="M136 -154v275h-2l-78 -60l-47 70l112 87h125v-372h-110z" />
    <glyph glyph-name="two.inferior" unicode="&#x2082;" horiz-adv-x="408" 
d="M41 -81q0 45 13 70.5t44.5 40.5t92.5 25q35 6 50.5 11.5t20 12.5t4.5 20v14q0 13 -4.5 19.5t-18 9t-42.5 2.5h-6q-25 0 -36 -3.5t-14.5 -12t-3.5 -26.5v-14h-101v17q0 48 11.5 72t44 34.5t98.5 10.5h10q71 0 107 -10t49 -32.5t13 -65.5v-10q0 -41 -10 -63t-41 -36
t-97 -25q-34 -6 -51 -11t-23.5 -12.5t-6.5 -19.5v-10h231v-81h-334v73z" />
    <glyph glyph-name="three.inferior" unicode="&#x2083;" horiz-adv-x="412" 
d="M96 -149q-33 9 -45.5 33t-12.5 73v17h100v-18q0 -16 4 -23.5t15.5 -10t37.5 -2.5h6q33 0 47.5 2.5t19 8.5t4.5 20v14q0 13 -3.5 20t-13 10t-27.5 3h-66v70h67q15 0 22.5 3t10.5 9.5t3 19.5v15q0 12 -4.5 18t-18 8.5t-42.5 2.5h-6q-25 0 -36.5 -2.5t-15.5 -9.5t-4 -23v-16
h-98v15q0 48 12.5 72t45 33t97.5 9h12q69 0 103.5 -8t48 -28.5t13.5 -60.5v-9q0 -27 -4.5 -42.5t-14.5 -24t-29 -14.5v-1q30 -6 42.5 -22.5t12.5 -54.5v-14q0 -41 -15 -62.5t-51.5 -30t-104.5 -8.5h-12q-67 0 -100 9z" />
    <glyph glyph-name="four.inferior" unicode="&#x2084;" horiz-adv-x="433" 
d="M251 -154v75h-218v98l177 199h147v-222h49v-75h-49v-75h-106zM122 -4h129v149h-4l-125 -148v-1z" />
    <glyph glyph-name="five.inferior" unicode="&#x2085;" horiz-adv-x="410" 
d="M97.5 -149q-32.5 9 -44.5 31t-12 66v13h96v-8q0 -13 4.5 -19.5t16.5 -9.5t35 -3h15q30 0 43 3t17 11t4 28v13q0 21 -4 30.5t-16.5 12.5t-42.5 3h-16q-22 0 -32 -2.5t-13.5 -7.5t-4.5 -15h-98v221h321v-81h-222v-65h1q9 13 28 19t54 6h15q54 0 82 -9.5t39.5 -33.5
t11.5 -71v-19q0 -49 -13.5 -74.5t-48 -36.5t-101.5 -11h-16q-66 0 -98.5 9z" />
    <glyph glyph-name="six.inferior" unicode="&#x2086;" horiz-adv-x="413" 
d="M95 -146q-33 12 -45 43.5t-12 95.5v78q0 65 13 96.5t47 43t105 11.5h19q62 0 93 -8.5t42.5 -30t11.5 -64.5v-11h-99v7q0 13 -4 19.5t-15 9t-33 2.5h-14q-29 0 -41.5 -4.5t-16.5 -16.5t-4 -40v-24h2q8 12 26.5 18t49.5 6h16q58 0 88 -9.5t41.5 -31.5t11.5 -63v-19
q0 -50 -13 -75t-46.5 -35t-101.5 -10h-19q-69 0 -102 12zM214 -80q29 0 41 3t15.5 11t3.5 27v9q0 19 -3.5 27t-16 11t-40.5 3h-13q-28 0 -40.5 -3t-16 -11t-3.5 -27v-9q0 -19 3.5 -27t15.5 -11t41 -3h13z" />
    <glyph glyph-name="seven.inferior" unicode="&#x2087;" horiz-adv-x="391" 
d="M79 -154l149 284v2h-195v86h321v-74l-156 -298h-119z" />
    <glyph glyph-name="eight.inferior" unicode="&#x2088;" horiz-adv-x="404" 
d="M92.5 -150q-32.5 8 -44.5 28t-12 59v15q0 36 11 55t38 27v1q-26 8 -37 26t-11 55v14q0 38 11.5 57t44 27t98.5 8h21q66 0 98.5 -8t44.5 -27t12 -57v-14q0 -37 -11 -55t-37 -26v-1q27 -8 38.5 -27.5t11.5 -54.5v-15q0 -39 -12 -59t-45 -28t-100 -8h-20q-67 0 -99.5 8z
M210 71q26 0 37 2.5t14.5 9t3.5 21.5v11q0 15 -3.5 21.5t-14.5 9t-37 2.5h-16q-26 0 -37 -2.5t-14.5 -9t-3.5 -21.5v-11q0 -15 3.5 -21.5t14.5 -9t37 -2.5h16zM211 -83q26 0 37.5 2.5t15 9t3.5 21.5v18q0 15 -3.5 21.5t-14.5 8.5t-38 2h-17q-27 0 -38 -2t-14.5 -8.5
t-3.5 -21.5v-18q0 -15 3.5 -21.5t14.5 -9t38 -2.5h17z" />
    <glyph glyph-name="nine.inferior" unicode="&#x2089;" horiz-adv-x="413" 
d="M93.5 -149.5q-31.5 8.5 -43 29.5t-11.5 65v11h100v-7q0 -13 3.5 -19.5t15.5 -9t37 -2.5h13q30 0 42.5 4t16.5 16t4 41v24h-1q-10 -12 -28 -18t-48 -6h-17q-58 0 -88 9.5t-41.5 32t-11.5 65.5v19q0 48 13 72.5t47 34.5t102 10h19q68 0 101 -12t45.5 -43t12.5 -94v-78
q0 -66 -13 -97.5t-47.5 -43.5t-106.5 -12h-19q-65 0 -96.5 8.5zM212 53q28 0 40.5 3t16 11t3.5 27v9q0 19 -4 27t-16 11t-40 3h-13q-28 0 -40 -3t-16 -11t-4 -27v-9q0 -19 4 -27t16 -11t40 -3h13z" />
    <glyph glyph-name="uni208A" unicode="&#x208a;" horiz-adv-x="341" 
d="M129 -115v90h-91v73h91v88h83v-88h90v-73h-90v-90h-83z" />
    <glyph glyph-name="uni208B" unicode="&#x208b;" horiz-adv-x="341" 
d="M38 -25v73h264v-73h-264z" />
    <glyph glyph-name="uni208C" unicode="&#x208c;" horiz-adv-x="341" 
d="M38 28v72h264v-72h-264zM38 -83v73h264v-73h-264z" />
    <glyph glyph-name="uni208D" unicode="&#x208d;" horiz-adv-x="230" 
d="M91 -146q-28 11 -40.5 49t-12.5 123v12q0 85 12.5 123t40.5 49t89 11h10v-73h-8q-19 0 -28 -7t-12.5 -30.5t-3.5 -75.5v-7q0 -52 3.5 -75t12.5 -30t28 -7h8v-73h-10q-61 0 -89 11z" />
    <glyph glyph-name="uni208E" unicode="&#x208e;" horiz-adv-x="229" 
d="M36 -84h7q19 0 28 7t13 30t4 75v8q0 52 -4 75t-13 30t-28 7h-7v73h9q61 0 89.5 -11t40.5 -49t12 -123v-12q0 -85 -12 -123t-40.5 -49t-89.5 -11h-9v73z" />
    <glyph glyph-name="Euro" unicode="&#x20ac;" horiz-adv-x="738" 
d="M227 13.5q-57 21.5 -78.5 75.5t-24.5 166h-75v67h75v43h-75v66h76q3 110 25 163t78.5 73.5t172.5 20.5h18q107 0 160.5 -16t73 -51.5t19.5 -104.5v-18h-163v8q0 20 -6.5 31.5t-26 16.5t-57.5 5h-13q-48 0 -69 -8t-29.5 -34t-10.5 -86h240v-66h-241v-43h241v-67h-241
q2 -61 10 -87.5t29.5 -35t69.5 -8.5h13q41 0 61.5 5t28 16.5t7.5 32.5v13h162v-22q0 -68 -21 -105t-76.5 -54.5t-161.5 -17.5h-16q-118 0 -175 21.5z" />
    <glyph glyph-name="uni20B9" unicode="&#x20b9;" horiz-adv-x="554" 
d="M456 494h73l-29 -100h-44q-2 -60 -24 -95t-69 -51t-128 -19l240 -223v-6h-233l-205 215v118h164q33 0 52 5t28.5 18t10.5 38h-255v100h255q-2 26 -10.5 38.5t-27.5 17t-56 4.5h-161v126h525l-37 -126h-91q21 -21 22 -60z" />
    <glyph glyph-name="uni20BA" unicode="&#x20ba;" horiz-adv-x="669" 
d="M638 328v-58q0 -122 -20.5 -177t-78.5 -74t-187 -19h-270v301l-71 -12v80l71 12v72l-71 -12v80l71 12v148h172v-118l196 33v-80l-196 -33v-72l196 33v-80l-196 -33v-196h93q60 0 86 9t34.5 35t8.5 88v61h162z" />
    <glyph glyph-name="uni2113" unicode="&#x2113;" horiz-adv-x="580" 
d="M254 252v-71q0 -31 5 -46t20 -21t46 -6h12q24 0 37 4t19 15t6 33v52h145v-55q0 -66 -22 -102t-65.5 -49.5t-115.5 -13.5h-31q-92 0 -141 17.5t-68 55t-19 103.5v15l-72 -38v130l72 35v146q0 91 17 139.5t67.5 70.5t151.5 22h23q80 0 124.5 -17.5t62.5 -53t18 -93.5v-27
q0 -41 -9 -68t-33 -49t-69 -43zM278 558q-14 -8 -19 -25t-5 -48v-106l101 49q18 9 26.5 17.5t11.5 19.5t3 30v18q0 21 -5 32.5t-17 16t-33 4.5h-23q-26 0 -40 -8z" />
    <glyph glyph-name="trademark" unicode="&#x2122;" horiz-adv-x="794" 
d="M118 350v250h-82v80h265v-80h-83v-250h-100zM345 350v330h137l63 -222h2l63 222h134v-330h-95l1 221h-2l-68 -221h-71l-69 222h-3l3 -222h-95z" />
    <glyph glyph-name="Omega" unicode="&#x2126;" horiz-adv-x="737" 
d="M41 136h140v26q-50 10 -78 29.5t-40 52.5t-12 86v112q0 101 22 151.5t86 73t197 22.5h24q133 0 197 -22.5t86 -73t22 -151.5v-112q0 -53 -12 -86t-40 -52.5t-78 -29.5v-26h140v-136h-293v240h11q41 0 60.5 6.5t26.5 23t7 51.5v126q0 45 -8.5 66.5t-35.5 30.5t-86 9h-18
q-59 0 -86 -9t-35.5 -30.5t-8.5 -66.5v-126q0 -35 7 -51.5t26.5 -23t60.5 -6.5h11v-240h-293v136z" />
    <glyph glyph-name="estimated" unicode="&#x212e;" horiz-adv-x="861" 
d="M634.5 639q86.5 -49 132.5 -131.5t46 -180.5h-611q-5 0 -9 -4t-4 -9v-166q0 -16 3 -25.5t12 -18.5q93 -91 227 -91q72 0 135 30t103 79h69q-25 -35 -67 -65t-103 -49.5t-137 -19.5q-114 0 -201.5 45t-135 124t-47.5 179q0 99 46.5 179.5t133.5 126.5t204 46t203.5 -49z
M204 569q-9 -9 -12 -17.5t-3 -23.5v-167q0 -6 3.5 -9t9.5 -3h455q13 0 13 12v167q0 15 -3 23.5t-12 17.5q-49 48 -106 70.5t-118 22.5q-134 0 -227 -93z" />
    <glyph glyph-name="partialdiff" unicode="&#x2202;" horiz-adv-x="570" 
d="M148 19q-50 27 -76 79t-26 124q0 65 25.5 117t73.5 81.5t113 29.5q45 0 79 -15t52 -42h3q0 18 -1 26q-5 52 -23 93t-47 64t-67 23q-32 0 -63.5 -13t-57.5 -35l-50 102q30 29 77 48.5t103 19.5q85 0 144 -41t89.5 -119t30.5 -190q0 -183 -64.5 -281t-193.5 -98
q-71 0 -121 27zM352 154.5q27 42.5 32 121.5q-21 31 -44.5 46.5t-54.5 15.5q-47 0 -71.5 -28.5t-24.5 -85.5q0 -53 25 -82.5t65 -29.5q46 0 73 42.5z" />
    <glyph glyph-name="Delta" unicode="&#x2206;" horiz-adv-x="653" 
d="M19 0v135l194 545h225l195 -545v-135h-614zM199 137h247l-121 401h-5z" />
    <glyph glyph-name="product" unicode="&#x220f;" horiz-adv-x="751" 
d="M101 -215v859h-57v142h663v-142h-57v-859h-159v859h-231v-859h-159z" />
    <glyph glyph-name="summation" unicode="&#x2211;" horiz-adv-x="613" 
d="M44 -214v110l253 422l-243 358v110h500v-142h-289v-2l205 -324l-229 -385v-2h328v-145h-525z" />
    <glyph glyph-name="minus" unicode="&#x2212;" horiz-adv-x="567" 
d="M56 243v121h455v-121h-455z" />
    <glyph glyph-name="uni2215" unicode="&#x2215;" horiz-adv-x="144" 
d="M-112 0l274 680h94l-273 -680h-95z" />
    <glyph glyph-name="uni2219" unicode="&#x2219;" horiz-adv-x="267" 
d="M51 184v165h165v-165h-165z" />
    <glyph glyph-name="radical" unicode="&#x221a;" horiz-adv-x="631" 
d="M244 -215l-128 340l-55 -18l-34 89l168 63l114 -325h2l166 853h128l-208 -1002h-153z" />
    <glyph glyph-name="infinity" unicode="&#x221e;" horiz-adv-x="807" 
d="M122.5 118.5q-40.5 22.5 -62 63.5t-21.5 94q0 51 21.5 91.5t62 63.5t93.5 23q57 0 101.5 -27.5t85.5 -76.5q42 50 86 77t101 27q54 0 94.5 -23t62 -63t21.5 -91q0 -52 -21 -93t-61 -64.5t-94 -23.5q-58 0 -103.5 25t-85.5 72q-43 -49 -84.5 -73t-100.5 -24
q-55 0 -95.5 22.5zM625 226.5q17 17.5 17 47.5t-17 49t-48 19q-27 0 -51.5 -19t-51.5 -50q25 -30 49.5 -47t53.5 -17q31 0 48 17.5zM283 226.5q25 17.5 50 46.5q-29 32 -53.5 50t-52.5 18q-29 0 -45.5 -19t-16.5 -48q0 -30 17 -47.5t48 -17.5q28 0 53 17.5z" />
    <glyph glyph-name="integral" unicode="&#x222b;" horiz-adv-x="498" 
d="M71.5 -215q-19.5 2 -26.5 4v116q17 -3 41 -3q33 0 51 17t26 68t8 154v244q0 157 20 243.5t67.5 123.5t133.5 37q18 0 37 -2t26 -4v-116q-16 3 -41 3q-33 0 -51 -17t-26 -68t-8 -154v-244q0 -158 -20 -244t-67 -123t-133 -37q-18 0 -37.5 2z" />
    <glyph glyph-name="approxequal" unicode="&#x2248;" horiz-adv-x="567" 
d="M93.5 428.5q32.5 39.5 94.5 39.5q22 0 46 -6.5t50 -17.5q28 -11 49 -17t42 -6q20 0 30.5 11.5t12.5 34.5h93q-5 -80 -37 -120t-96 -40q-38 0 -92 23q-27 11 -49.5 17.5t-44.5 6.5q-20 0 -30.5 -11.5t-12.5 -34.5h-93q5 81 37.5 120.5zM93.5 225.5q32.5 39.5 94.5 39.5
q40 0 96 -23q30 -12 50 -18t41 -6q20 0 30.5 12t12.5 35h93q-5 -80 -37 -120.5t-96 -40.5q-38 0 -92 23q-27 11 -49.5 17.5t-44.5 6.5q-20 0 -30.5 -11.5t-12.5 -34.5h-93q5 81 37.5 120.5z" />
    <glyph glyph-name="notequal" unicode="&#x2260;" horiz-adv-x="567" 
d="M194 5l-88 41l44 92h-94v120h152l39 80h-191v120h249l65 134l88 -41l-45 -93h98v-120h-156l-40 -80h196v-120h-254z" />
    <glyph glyph-name="lessequal" unicode="&#x2264;" horiz-adv-x="567" 
d="M511 147l-455 166v117l455 167v-128l-303 -96v-3l303 -95v-128zM56 0v121h455v-121h-455z" />
    <glyph glyph-name="greaterequal" unicode="&#x2265;" horiz-adv-x="567" 
d="M56 147v128l302 95v3l-302 96v128l454 -167v-117zM56 0v121h454v-121h-454z" />
    <glyph glyph-name="lozenge" unicode="&#x25ca;" horiz-adv-x="505" 
d="M203 0l-163 346l163 334h99l163 -334l-163 -346h-99zM254 118h1l94 228l-96 213h-2l-95 -213z" />
    <glyph glyph-name="fi" unicode="&#xfb01;" horiz-adv-x="606" 
d="M77 368h-62v112h62v36q0 64 17 101.5t55 53.5t102 16q46 0 88 -5v-111q-24 2 -43 2q-26 0 -38.5 -5t-17.5 -18.5t-5 -42.5v-27h108v-112h-108v-368h-158v368zM395 556v124h159v-124h-159zM395 0v480h159v-480h-159z" />
    <glyph glyph-name="fl" unicode="&#xfb02;" horiz-adv-x="606" 
d="M77 368h-62v112h62v36q0 64 17 101.5t55 53.5t102 16q46 0 88 -5v-111q-24 2 -43 2q-26 0 -38.5 -5t-17.5 -18.5t-5 -42.5v-27h108v-112h-108v-368h-158v368zM395 0v680h159v-680h-159z" />
    <glyph glyph-name="uniFEFF" unicode="&#xfeff;" horiz-adv-x="0" 
 />
    <glyph glyph-name="hcircumflex.sc" horiz-adv-x="605" 
d="M53 0v528h159v-195h181v195h159v-528h-159v207h-181v-207h-159zM190 578l-49 54l161 125l161 -125l-49 -54l-112 66z" />
    <glyph glyph-name="iogonek.sc" horiz-adv-x="265" 
d="M52 -186.5q-31 19.5 -31 63.5q0 36 19 64.5t58 58.5h-45v528h159v-528h-33q-26 -30 -37 -51.5t-11 -39.5t9.5 -25.5t30.5 -7.5q16 0 51 5v-73q-44 -14 -87 -14q-52 0 -83 19.5z" />
    <glyph glyph-name="a.sc" horiz-adv-x="596" 
d="M8 0l185 528h209l186 -528h-166l-29 100h-194l-29 -100h-162zM232 209h128l-62 210h-3z" />
    <glyph glyph-name="aacute.sc" horiz-adv-x="596" 
d="M8 0l185 528h209l186 -528h-166l-29 100h-194l-29 -100h-162zM232 209h128l-62 210h-3zM251 570l-37 52l179 140l67 -99z" />
    <glyph glyph-name="abreve.sc" horiz-adv-x="596" 
d="M8 0l185 528h209l186 -528h-166l-29 100h-194l-29 -100h-162zM232 209h128l-62 210h-3zM177 618q-44 37 -44 107h77q5 -30 26 -41.5t62 -11.5q40 0 61 11.5t27 41.5h77q0 -72 -44 -108t-121 -36t-121 37z" />
    <glyph glyph-name="acircumflex.sc" horiz-adv-x="596" 
d="M8 0l185 528h209l186 -528h-166l-29 100h-194l-29 -100h-162zM232 209h128l-62 210h-3zM186 578l-49 54l161 125l161 -125l-49 -54l-112 66z" />
    <glyph glyph-name="adieresis.sc" horiz-adv-x="596" 
d="M8 0l185 528h209l186 -528h-166l-29 100h-194l-29 -100h-162zM232 209h128l-62 210h-3zM122 598v124h134v-124h-134zM340 598v124h134v-124h-134z" />
    <glyph glyph-name="agrave.sc" horiz-adv-x="596" 
d="M8 0l185 528h209l186 -528h-166l-29 100h-194l-29 -100h-162zM232 209h128l-62 210h-3zM337 570l-209 93l66 99l180 -140z" />
    <glyph glyph-name="amacron.sc" horiz-adv-x="596" 
d="M8 0l185 528h209l186 -528h-166l-29 100h-194l-29 -100h-162zM232 209h128l-62 210h-3zM153 614v94h290v-94h-290z" />
    <glyph glyph-name="aogonek.sc" horiz-adv-x="596" 
d="M383.5 -185.5q-30.5 20.5 -30.5 62.5q0 35 18 64t51 59l-29 100h-194l-29 -100h-162l185 528h209l186 -528h-70q-26 -19 -40.5 -43t-14.5 -48q0 -18 9.5 -25.5t31.5 -7.5q23 0 53 6v-73q-42 -15 -90 -15q-53 0 -83.5 20.5zM232 209h128l-62 210h-3z" />
    <glyph glyph-name="aring.sc" horiz-adv-x="596" 
d="M8 0l185 528h209l186 -528h-166l-29 100h-194l-29 -100h-162zM232 209h128l-62 210h-3zM201 590q-31 24 -31 72v6q0 48 31 71.5t95 23.5h4q64 0 95 -23.5t31 -71.5v-6q0 -48 -31 -72t-95 -24h-4q-64 0 -95 24zM300 627q24 0 36 8.5t12 25.5v6q0 17 -12 25.5t-36 8.5h-4
q-24 0 -36 -8.5t-12 -25.5v-6q0 -17 12 -25.5t36 -8.5h4z" />
    <glyph glyph-name="atilde.sc" horiz-adv-x="596" 
d="M8 0l185 528h209l186 -528h-166l-29 100h-194l-29 -100h-162zM232 209h128l-62 210h-3zM148 606q2 56 23.5 88t65.5 32q17 0 31 -5t31 -14t28.5 -14t22.5 -5q15 0 23.5 10.5t9.5 29.5l61 -13q-2 -59 -23.5 -90.5t-67.5 -31.5q-17 0 -31 4.5t-32 14.5q-14 8 -25.5 12.5
t-22.5 4.5q-15 0 -24 -8.5t-11 -28.5z" />
    <glyph glyph-name="ae.sc" horiz-adv-x="854" 
d="M6 0l261 528h547v-113h-256v-92h238v-107h-238v-101h264v-115h-419v100h-185l-45 -100h-167zM269 209h134v207h-40z" />
    <glyph glyph-name="b.sc" horiz-adv-x="577" 
d="M53 528h303q68 0 105.5 -13t53.5 -43t16 -85q0 -51 -14 -76t-49 -37v-2q40 -12 58 -40t18 -86q0 -56 -17 -87.5t-54 -45t-102 -13.5h-318v528zM336 317q18 0 27.5 4.5t13.5 16t4 33.5q0 21 -4 32t-13.5 15.5t-27.5 4.5h-129v-106h129zM338 106q22 0 33.5 5.5t16 17.5
t4.5 34q0 32 -12 45t-42 13h-131v-115h131z" />
    <glyph glyph-name="c.sc" horiz-adv-x="585" 
d="M136 12q-52 20 -72.5 70.5t-20.5 149.5v69q0 95 20.5 144.5t72 70t152.5 20.5h17q94 0 144.5 -17t70.5 -54t20 -103v-30h-153v19q0 25 -7 39t-24 20.5t-48 6.5h-11q-40 0 -59.5 -8.5t-27 -31t-7.5 -68.5v-83q0 -48 7.5 -71.5t26.5 -32.5t59 -9h10q33 0 51 6.5t25.5 20.5
t7.5 39v25h153v-37q0 -70 -20.5 -107t-70.5 -52.5t-145 -15.5h-18q-101 0 -153 20z" />
    <glyph glyph-name="cacute.sc" horiz-adv-x="585" 
d="M136 12q-52 20 -72.5 70.5t-20.5 149.5v69q0 95 20.5 144.5t72 70t152.5 20.5h17q94 0 144.5 -17t70.5 -54t20 -103v-30h-153v19q0 25 -7 39t-24 20.5t-48 6.5h-11q-40 0 -59.5 -8.5t-27 -31t-7.5 -68.5v-83q0 -48 7.5 -71.5t26.5 -32.5t59 -9h10q33 0 51 6.5t25.5 20.5
t7.5 39v25h153v-37q0 -70 -20.5 -107t-70.5 -52.5t-145 -15.5h-18q-101 0 -153 20zM239 570l-37 52l179 140l67 -99z" />
    <glyph glyph-name="ccaron.sc" horiz-adv-x="585" 
d="M136 12q-52 20 -72.5 70.5t-20.5 149.5v69q0 95 20.5 144.5t72 70t152.5 20.5h17q94 0 144.5 -17t70.5 -54t20 -103v-30h-153v19q0 25 -7 39t-24 20.5t-48 6.5h-11q-40 0 -59.5 -8.5t-27 -31t-7.5 -68.5v-83q0 -48 7.5 -71.5t26.5 -32.5t59 -9h10q33 0 51 6.5t25.5 20.5
t7.5 39v25h153v-37q0 -70 -20.5 -107t-70.5 -52.5t-145 -15.5h-18q-101 0 -153 20zM295 563l-161 125l49 54l112 -66l112 66l49 -54z" />
    <glyph glyph-name="ccedilla.sc" horiz-adv-x="585" 
d="M136 12q-52 20 -72.5 70.5t-20.5 149.5v69q0 95 20.5 144.5t72 70t152.5 20.5h17q94 0 144.5 -17t70.5 -54t20 -103v-30h-153v19q0 25 -7 39t-24 20.5t-48 6.5h-11q-40 0 -59.5 -8.5t-27 -31t-7.5 -68.5v-83q0 -48 7.5 -71.5t26.5 -32.5t59 -9h10q33 0 51 6.5t25.5 20.5
t7.5 39v25h153v-37q0 -70 -20.5 -107t-70.5 -52.5t-145 -15.5h-18q-101 0 -153 20zM190 -212l-44 50l164 153l80 -89z" />
    <glyph glyph-name="ccircumflex.sc" horiz-adv-x="585" 
d="M136 12q-52 20 -72.5 70.5t-20.5 149.5v69q0 95 20.5 144.5t72 70t152.5 20.5h17q94 0 144.5 -17t70.5 -54t20 -103v-30h-153v19q0 25 -7 39t-24 20.5t-48 6.5h-11q-40 0 -59.5 -8.5t-27 -31t-7.5 -68.5v-83q0 -48 7.5 -71.5t26.5 -32.5t59 -9h10q33 0 51 6.5t25.5 20.5
t7.5 39v25h153v-37q0 -70 -20.5 -107t-70.5 -52.5t-145 -15.5h-18q-101 0 -153 20zM183 578l-49 54l161 125l161 -125l-49 -54l-112 66z" />
    <glyph glyph-name="cdotaccent.sc" horiz-adv-x="585" 
d="M136 12q-52 20 -72.5 70.5t-20.5 149.5v69q0 95 20.5 144.5t72 70t152.5 20.5h17q94 0 144.5 -17t70.5 -54t20 -103v-30h-153v19q0 25 -7 39t-24 20.5t-48 6.5h-11q-40 0 -59.5 -8.5t-27 -31t-7.5 -68.5v-83q0 -48 7.5 -71.5t26.5 -32.5t59 -9h10q33 0 51 6.5t25.5 20.5
t7.5 39v25h153v-37q0 -70 -20.5 -107t-70.5 -52.5t-145 -15.5h-18q-101 0 -153 20zM213 598v124h159v-124h-159z" />
    <glyph glyph-name="d.sc" horiz-adv-x="613" 
d="M53 528h257q112 0 166.5 -19t74.5 -67t20 -145v-61q0 -100 -18 -148t-72.5 -68t-170.5 -20h-257v528zM300 118q50 0 73 8.5t31 30.5t8 69v83q0 44 -8 65t-31 29.5t-73 8.5h-88v-294h88z" />
    <glyph glyph-name="eth.sc" horiz-adv-x="613" 
d="M53 223h-43v87h43v218h257q112 0 166.5 -19t74.5 -67t20 -145v-61q0 -100 -18 -148t-72.5 -68t-170.5 -20h-257v223zM300 118q50 0 73 8.5t31 30.5t8 69v83q0 44 -8 65t-31 29.5t-73 8.5h-88v-102h82v-87h-82v-105h88z" />
    <glyph glyph-name="dcaron.sc" horiz-adv-x="613" 
d="M53 528h257q112 0 166.5 -19t74.5 -67t20 -145v-61q0 -100 -18 -148t-72.5 -68t-170.5 -20h-257v528zM300 118q50 0 73 8.5t31 30.5t8 69v83q0 44 -8 65t-31 29.5t-73 8.5h-88v-294h88zM299 563l-161 125l49 54l112 -66l112 66l49 -54z" />
    <glyph glyph-name="dcroat.sc" horiz-adv-x="613" 
d="M53 223h-43v87h43v218h257q112 0 166.5 -19t74.5 -67t20 -145v-61q0 -100 -18 -148t-72.5 -68t-170.5 -20h-257v223zM300 118q50 0 73 8.5t31 30.5t8 69v83q0 44 -8 65t-31 29.5t-73 8.5h-88v-102h82v-87h-82v-105h88z" />
    <glyph glyph-name="e.sc" horiz-adv-x="507" 
d="M53 0v528h414v-113h-256v-92h238v-107h-238v-101h264v-115h-422z" />
    <glyph glyph-name="eacute.sc" horiz-adv-x="507" 
d="M53 0v528h414v-113h-256v-92h238v-107h-238v-101h264v-115h-422zM181 570l-37 52l179 140l67 -99z" />
    <glyph glyph-name="ebreve.sc" horiz-adv-x="507" 
d="M53 0v528h414v-113h-256v-92h238v-107h-238v-101h264v-115h-422zM138 618q-44 37 -44 107h77q5 -30 26 -41.5t62 -11.5q40 0 61 11.5t27 41.5h77q0 -72 -44 -108t-121 -36t-121 37z" />
    <glyph glyph-name="ecaron.sc" horiz-adv-x="507" 
d="M53 0v528h414v-113h-256v-92h238v-107h-238v-101h264v-115h-422zM260 563l-161 125l49 54l112 -66l112 66l49 -54z" />
    <glyph glyph-name="ecircumflex.sc" horiz-adv-x="507" 
d="M53 0v528h414v-113h-256v-92h238v-107h-238v-101h264v-115h-422zM149 578l-49 54l161 125l161 -125l-49 -54l-112 66z" />
    <glyph glyph-name="edieresis.sc" horiz-adv-x="507" 
d="M53 0v528h414v-113h-256v-92h238v-107h-238v-101h264v-115h-422zM82 598v124h134v-124h-134zM300 598v124h134v-124h-134z" />
    <glyph glyph-name="edotaccent.sc" horiz-adv-x="507" 
d="M53 0v528h414v-113h-256v-92h238v-107h-238v-101h264v-115h-422zM179 598v124h159v-124h-159z" />
    <glyph glyph-name="egrave.sc" horiz-adv-x="507" 
d="M53 0v528h414v-113h-256v-92h238v-107h-238v-101h264v-115h-422zM331 570l-209 93l66 99l180 -140z" />
    <glyph glyph-name="emacron.sc" horiz-adv-x="507" 
d="M53 0v528h414v-113h-256v-92h238v-107h-238v-101h264v-115h-422zM114 614v94h290v-94h-290z" />
    <glyph glyph-name="eogonek.sc" horiz-adv-x="507" 
d="M280.5 -185.5q-30.5 20.5 -30.5 62.5q0 37 22 66.5t67 56.5h-286v528h414v-113h-256v-92h238v-107h-238v-101h264v-115h-39q-35 -17 -55.5 -41.5t-20.5 -49.5q0 -18 10 -25.5t31 -7.5q23 0 53 6v-73q-43 -15 -90 -15q-53 0 -83.5 20.5z" />
    <glyph glyph-name="f.sc" horiz-adv-x="473" 
d="M53 0v528h396v-116h-238v-114h223v-111h-223v-187h-158z" />
    <glyph glyph-name="g.sc" horiz-adv-x="588" 
d="M135.5 13q-52.5 21 -72.5 71t-20 149v68q0 95 20.5 144.5t73.5 70t157 20.5h16q90 0 140 -16.5t70.5 -51.5t20.5 -94v-21h-153v10q0 20 -6 31.5t-23.5 18t-50.5 6.5h-11q-40 0 -60 -9t-28 -32t-8 -69v-82q0 -49 8 -73.5t28 -33.5t61 -9h11q37 0 56 5t26.5 17t7.5 37v20
h-103v102h249v-105q0 -81 -19 -122t-68.5 -57t-147.5 -16h-16q-106 0 -158.5 21z" />
    <glyph glyph-name="gbreve.sc" horiz-adv-x="588" 
d="M135.5 13q-52.5 21 -72.5 71t-20 149v68q0 95 20.5 144.5t73.5 70t157 20.5h16q90 0 140 -16.5t70.5 -51.5t20.5 -94v-21h-153v10q0 20 -6 31.5t-23.5 18t-50.5 6.5h-11q-40 0 -60 -9t-28 -32t-8 -69v-82q0 -49 8 -73.5t28 -33.5t61 -9h11q37 0 56 5t26.5 17t7.5 37v20
h-103v102h249v-105q0 -81 -19 -122t-68.5 -57t-147.5 -16h-16q-106 0 -158.5 21zM173 618q-44 37 -44 107h77q5 -30 26 -41.5t62 -11.5q40 0 61 11.5t27 41.5h77q0 -72 -44 -108t-121 -36t-121 37z" />
    <glyph glyph-name="gcircumflex.sc" horiz-adv-x="588" 
d="M135.5 13q-52.5 21 -72.5 71t-20 149v68q0 95 20.5 144.5t73.5 70t157 20.5h16q90 0 140 -16.5t70.5 -51.5t20.5 -94v-21h-153v10q0 20 -6 31.5t-23.5 18t-50.5 6.5h-11q-40 0 -60 -9t-28 -32t-8 -69v-82q0 -49 8 -73.5t28 -33.5t61 -9h11q37 0 56 5t26.5 17t7.5 37v20
h-103v102h249v-105q0 -81 -19 -122t-68.5 -57t-147.5 -16h-16q-106 0 -158.5 21zM182 578l-49 54l161 125l161 -125l-49 -54l-112 66z" />
    <glyph glyph-name="uni0123.sc" horiz-adv-x="588" 
d="M135.5 13q-52.5 21 -72.5 71t-20 149v68q0 95 20.5 144.5t73.5 70t157 20.5h16q90 0 140 -16.5t70.5 -51.5t20.5 -94v-21h-153v10q0 20 -6 31.5t-23.5 18t-50.5 6.5h-11q-40 0 -60 -9t-28 -32t-8 -69v-82q0 -49 8 -73.5t28 -33.5t61 -9h11q37 0 56 5t26.5 17t7.5 37v20
h-103v102h249v-105q0 -81 -19 -122t-68.5 -57t-147.5 -16h-16q-106 0 -158.5 21zM222 -203q33 0 45 9.5t12 34.5v7h-42v103h129v-97q0 -43 -12 -67t-43 -34.5t-89 -10.5v55z" />
    <glyph glyph-name="gdotaccent.sc" horiz-adv-x="588" 
d="M135.5 13q-52.5 21 -72.5 71t-20 149v68q0 95 20.5 144.5t73.5 70t157 20.5h16q90 0 140 -16.5t70.5 -51.5t20.5 -94v-21h-153v10q0 20 -6 31.5t-23.5 18t-50.5 6.5h-11q-40 0 -60 -9t-28 -32t-8 -69v-82q0 -49 8 -73.5t28 -33.5t61 -9h11q37 0 56 5t26.5 17t7.5 37v20
h-103v102h249v-105q0 -81 -19 -122t-68.5 -57t-147.5 -16h-16q-106 0 -158.5 21zM215 598v124h159v-124h-159z" />
    <glyph glyph-name="h.sc" horiz-adv-x="605" 
d="M53 0v528h159v-195h181v195h159v-528h-159v207h-181v-207h-159z" />
    <glyph glyph-name="hbar.sc" horiz-adv-x="605" 
d="M53 0v388h-34v80h34v60h159v-60h181v60h159v-60h33v-80h-33v-388h-159v207h-181v-207h-159zM212 333h181v55h-181v-55z" />
    <glyph glyph-name="i.sc" horiz-adv-x="265" 
d="M53 0v528h159v-528h-159z" />
    <glyph glyph-name="iacute.sc" horiz-adv-x="265" 
d="M53 0v528h159v-528h-159zM100 570l-37 52l179 140l67 -99z" />
    <glyph glyph-name="ibreve.sc" horiz-adv-x="265" 
d="M12 619q-44 37 -44 107h77q5 -30 26 -41.5t62 -11.5q40 0 61 11.5t27 41.5h77q0 -72 -44 -108t-121 -36t-121 37zM53 0v529h159v-529h-159z" />
    <glyph glyph-name="icircumflex.sc" horiz-adv-x="265" 
d="M53 0v528h159v-528h-159zM20 578l-49 54l161 125l161 -125l-49 -54l-112 66z" />
    <glyph glyph-name="idieresis.sc" horiz-adv-x="265" 
d="M53 0v528h159v-528h-159zM-44 598v124h134v-124h-134zM174 598v124h134v-124h-134z" />
    <glyph glyph-name="i.sc.loclTRK" horiz-adv-x="265" 
d="M53 0v528h159v-528h-159zM53 598v124h159v-124h-159z" />
    <glyph glyph-name="igrave.sc" horiz-adv-x="265" 
d="M53 0v528h159v-528h-159zM169 570l-209 93l66 99l180 -140z" />
    <glyph glyph-name="ij.sc" horiz-adv-x="765" 
d="M53 0v528h159v-528h-159zM364 7.5q-41 14.5 -55.5 50.5t-14.5 108v55h144v-36q0 -32 4.5 -46.5t16 -19.5t36.5 -5h10q21 0 31.5 4.5t14.5 16t4 35.5v358h159v-350q0 -78 -17 -116.5t-60 -53.5t-131 -15h-18q-83 0 -124 14.5z" />
    <glyph glyph-name="imacron.sc" horiz-adv-x="265" 
d="M53 0v528h159v-528h-159zM-13 614v94h290v-94h-290z" />
    <glyph glyph-name="itilde.sc" horiz-adv-x="265" 
d="M53 0v528h159v-528h-159zM-16 606q2 56 23.5 88t65.5 32q17 0 31 -5t31 -14t28.5 -14t22.5 -5q15 0 23.5 10.5t9.5 29.5l61 -13q-2 -59 -23.5 -90.5t-67.5 -31.5q-17 0 -31 4.5t-32 14.5q-14 8 -25.5 12.5t-22.5 4.5q-15 0 -24 -8.5t-11 -28.5z" />
    <glyph glyph-name="j.sc" horiz-adv-x="500" 
d="M99 7.5q-41 14.5 -55.5 50.5t-14.5 108v55h144v-36q0 -32 4.5 -46.5t16 -19.5t36.5 -5h10q21 0 31.5 4.5t14.5 16t4 35.5v358h159v-350q0 -78 -17 -116.5t-60 -53.5t-131 -15h-18q-83 0 -124 14.5z" />
    <glyph glyph-name="jcircumflex.sc" horiz-adv-x="500" 
d="M99 7.5q-41 14.5 -55.5 50.5t-14.5 108v55h144v-36q0 -32 4.5 -46.5t16 -19.5t36.5 -5h10q21 0 31.5 4.5t14.5 16t4 35.5v358h159v-350q0 -78 -17 -116.5t-60 -53.5t-131 -15h-18q-83 0 -124 14.5zM256 578l-49 54l161 125l161 -125l-49 -54l-112 66z" />
    <glyph glyph-name="k.sc" horiz-adv-x="581" 
d="M53 0v528h156v-201h34l131 201h182l-180 -254l198 -274h-195l-138 215h-32v-215h-156z" />
    <glyph glyph-name="uni0137.sc" horiz-adv-x="581" 
d="M53 0v528h156v-201h34l131 201h182l-180 -254l198 -274h-195l-138 215h-32v-215h-156zM211 -203q33 0 45 9.5t12 34.5v7h-42v103h129v-97q0 -43 -12 -67t-43 -34.5t-89 -10.5v55z" />
    <glyph glyph-name="l.sc" horiz-adv-x="444" 
d="M53 0v528h159v-408h218v-120h-377z" />
    <glyph glyph-name="lacute.sc" horiz-adv-x="444" 
d="M53 0v528h159v-408h218v-120h-377zM149 570l-37 52l179 140l67 -99z" />
    <glyph glyph-name="lcaron.sc" horiz-adv-x="444" 
d="M53 0v528h159v-408h218v-120h-377zM351 363h-87l19 165h118z" />
    <glyph glyph-name="uni013C.sc" horiz-adv-x="444" 
d="M53 0v528h159v-408h218v-120h-377zM157 -203q33 0 45 9.5t12 34.5v7h-42v103h129v-97q0 -43 -12 -67t-43 -34.5t-89 -10.5v55z" />
    <glyph glyph-name="ldot.sc" horiz-adv-x="458" 
d="M53 0v528h159v-408h218v-120h-377zM278 241v165h165v-165h-165z" />
    <glyph glyph-name="lslash.sc" horiz-adv-x="444" 
d="M53 0v204l-43 -17v92l43 18v231h159v-169l105 42v-92l-105 -43v-146h218v-120h-377z" />
    <glyph glyph-name="m.sc" horiz-adv-x="792" 
d="M53 0v528h226l117 -386h2l123 386h218v-528h-149l5 388h-2l-129 -388h-139l-126 388h-3l5 -388h-148z" />
    <glyph glyph-name="n.sc" horiz-adv-x="647" 
d="M53 0v528h223l173 -400h3l-4 400h146v-528h-220l-177 397h-2l4 -397h-146z" />
    <glyph glyph-name="nacute.sc" horiz-adv-x="647" 
d="M53 0v528h223l173 -400h3l-4 400h146v-528h-220l-177 397h-2l4 -397h-146zM237 570l-37 52l179 140l67 -99z" />
    <glyph glyph-name="ncaron.sc" horiz-adv-x="647" 
d="M53 0v528h223l173 -400h3l-4 400h146v-528h-220l-177 397h-2l4 -397h-146zM324 563l-161 125l49 54l112 -66l112 66l49 -54z" />
    <glyph glyph-name="uni0146.sc" horiz-adv-x="647" 
d="M53 0v528h223l173 -400h3l-4 400h146v-528h-220l-177 397h-2l4 -397h-146zM253 -203q33 0 45 9.5t12 34.5v7h-42v103h129v-97q0 -43 -12 -67t-43 -34.5t-89 -10.5v55z" />
    <glyph glyph-name="eng.sc" horiz-adv-x="649" 
d="M387 -174v115q9 -1 20 -1q13 0 19.5 4.5t9.5 15t3 31.5v9h-64l-177 398h-3l4 -398h-146v529h224l173 -401h3l-4 401h147v-561q0 -56 -17 -87.5t-51 -45t-88 -13.5q-29 0 -53 4z" />
    <glyph glyph-name="ntilde.sc" horiz-adv-x="647" 
d="M53 0v528h223l173 -400h3l-4 400h146v-528h-220l-177 397h-2l4 -397h-146zM176 606q2 56 23.5 88t65.5 32q17 0 31 -5t31 -14t28.5 -14t22.5 -5q15 0 23.5 10.5t9.5 29.5l61 -13q-2 -59 -23.5 -90.5t-67.5 -31.5q-17 0 -31 4.5t-32 14.5q-14 8 -25.5 12.5t-22.5 4.5
q-15 0 -24 -8.5t-11 -28.5z" />
    <glyph glyph-name="o.sc" horiz-adv-x="611" 
d="M140.5 13.5q-53.5 21.5 -75.5 71t-22 142.5v74q0 93 22 142.5t75.5 71t155.5 21.5h19q101 0 155 -21.5t76 -71t22 -142.5v-74q0 -93 -22 -142.5t-76 -71t-155 -21.5h-19q-102 0 -155.5 21.5zM312 114q39 0 59 10.5t28 35.5t8 74v63q0 49 -8 74t-28 35.5t-59 10.5h-13
q-39 0 -59 -10.5t-28 -35.5t-8 -74v-63q0 -49 8 -74t28 -35.5t59 -10.5h13z" />
    <glyph glyph-name="oacute.sc" horiz-adv-x="611" 
d="M140.5 13.5q-53.5 21.5 -75.5 71t-22 142.5v74q0 93 22 142.5t75.5 71t155.5 21.5h19q101 0 155 -21.5t76 -71t22 -142.5v-74q0 -93 -22 -142.5t-76 -71t-155 -21.5h-19q-102 0 -155.5 21.5zM312 114q39 0 59 10.5t28 35.5t8 74v63q0 49 -8 74t-28 35.5t-59 10.5h-13
q-39 0 -59 -10.5t-28 -35.5t-8 -74v-63q0 -49 8 -74t28 -35.5t59 -10.5h13zM225 570l-37 52l179 140l67 -99z" />
    <glyph glyph-name="obreve.sc" horiz-adv-x="611" 
d="M140.5 13.5q-53.5 21.5 -75.5 71t-22 142.5v74q0 93 22 142.5t75.5 71t155.5 21.5h19q101 0 155 -21.5t76 -71t22 -142.5v-74q0 -93 -22 -142.5t-76 -71t-155 -21.5h-19q-102 0 -155.5 21.5zM312 114q39 0 59 10.5t28 35.5t8 74v63q0 49 -8 74t-28 35.5t-59 10.5h-13
q-39 0 -59 -10.5t-28 -35.5t-8 -74v-63q0 -49 8 -74t28 -35.5t59 -10.5h13zM184 618q-44 37 -44 107h77q5 -30 26 -41.5t62 -11.5q40 0 61 11.5t27 41.5h77q0 -72 -44 -108t-121 -36t-121 37z" />
    <glyph glyph-name="ocircumflex.sc" horiz-adv-x="611" 
d="M140.5 13.5q-53.5 21.5 -75.5 71t-22 142.5v74q0 93 22 142.5t75.5 71t155.5 21.5h19q101 0 155 -21.5t76 -71t22 -142.5v-74q0 -93 -22 -142.5t-76 -71t-155 -21.5h-19q-102 0 -155.5 21.5zM312 114q39 0 59 10.5t28 35.5t8 74v63q0 49 -8 74t-28 35.5t-59 10.5h-13
q-39 0 -59 -10.5t-28 -35.5t-8 -74v-63q0 -49 8 -74t28 -35.5t59 -10.5h13zM193 578l-49 54l161 125l161 -125l-49 -54l-112 66z" />
    <glyph glyph-name="odieresis.sc" horiz-adv-x="611" 
d="M140.5 13.5q-53.5 21.5 -75.5 71t-22 142.5v74q0 93 22 142.5t75.5 71t155.5 21.5h19q101 0 155 -21.5t76 -71t22 -142.5v-74q0 -93 -22 -142.5t-76 -71t-155 -21.5h-19q-102 0 -155.5 21.5zM312 114q39 0 59 10.5t28 35.5t8 74v63q0 49 -8 74t-28 35.5t-59 10.5h-13
q-39 0 -59 -10.5t-28 -35.5t-8 -74v-63q0 -49 8 -74t28 -35.5t59 -10.5h13zM129 598v124h134v-124h-134zM347 598v124h134v-124h-134z" />
    <glyph glyph-name="ograve.sc" horiz-adv-x="611" 
d="M140.5 13.5q-53.5 21.5 -75.5 71t-22 142.5v74q0 93 22 142.5t75.5 71t155.5 21.5h19q101 0 155 -21.5t76 -71t22 -142.5v-74q0 -93 -22 -142.5t-76 -71t-155 -21.5h-19q-102 0 -155.5 21.5zM312 114q39 0 59 10.5t28 35.5t8 74v63q0 49 -8 74t-28 35.5t-59 10.5h-13
q-39 0 -59 -10.5t-28 -35.5t-8 -74v-63q0 -49 8 -74t28 -35.5t59 -10.5h13zM385 570l-209 93l66 99l180 -140z" />
    <glyph glyph-name="ohungarumlaut.sc" horiz-adv-x="611" 
d="M140.5 13.5q-53.5 21.5 -75.5 71t-22 142.5v74q0 93 22 142.5t75.5 71t155.5 21.5h19q101 0 155 -21.5t76 -71t22 -142.5v-74q0 -93 -22 -142.5t-76 -71t-155 -21.5h-19q-102 0 -155.5 21.5zM312 114q39 0 59 10.5t28 35.5t8 74v63q0 49 -8 74t-28 35.5t-59 10.5h-13
q-39 0 -59 -10.5t-28 -35.5t-8 -74v-63q0 -49 8 -74t28 -35.5t59 -10.5h13zM206 571l-42 50l137 138l66 -71zM393 571l-43 50l142 138l66 -71z" />
    <glyph glyph-name="omacron.sc" horiz-adv-x="611" 
d="M140.5 13.5q-53.5 21.5 -75.5 71t-22 142.5v74q0 93 22 142.5t75.5 71t155.5 21.5h19q101 0 155 -21.5t76 -71t22 -142.5v-74q0 -93 -22 -142.5t-76 -71t-155 -21.5h-19q-102 0 -155.5 21.5zM312 114q39 0 59 10.5t28 35.5t8 74v63q0 49 -8 74t-28 35.5t-59 10.5h-13
q-39 0 -59 -10.5t-28 -35.5t-8 -74v-63q0 -49 8 -74t28 -35.5t59 -10.5h13zM160 614v94h290v-94h-290z" />
    <glyph glyph-name="oslash.sc" horiz-adv-x="609" 
d="M535 459q16 -27 23.5 -65.5t7.5 -92.5v-74q0 -93 -22 -142.5t-75.5 -71t-154.5 -21.5h-19q-65 0 -109 8t-74 27l-49 -49l-42 44l49 50q-14 26 -20.5 64t-6.5 91v74q0 93 21.5 142.5t75.5 71t155 21.5h19q62 0 105.5 -8t72.5 -25l46 45l42 -44zM199 226v-24l188 196
q-9 12 -25.5 16.5t-50.5 4.5h-13q-41 0 -61.5 -10.5t-29 -36t-8.5 -75.5v-71zM410 313v21l-191 -200q11 -12 30 -17t49 -5h13q41 0 61.5 10.5t29 36t8.5 75.5v79z" />
    <glyph glyph-name="oslashacute.sc" horiz-adv-x="609" 
d="M535 459q16 -27 23.5 -65.5t7.5 -92.5v-74q0 -93 -22 -142.5t-75.5 -71t-154.5 -21.5h-19q-65 0 -109 8t-74 27l-49 -49l-42 44l49 50q-14 26 -20.5 64t-6.5 91v74q0 93 21.5 142.5t75.5 71t155 21.5h19q62 0 105.5 -8t72.5 -25l46 45l42 -44zM199 226v-24l188 196
q-9 12 -25.5 16.5t-50.5 4.5h-13q-41 0 -61.5 -10.5t-29 -36t-8.5 -75.5v-71zM410 313v21l-191 -200q11 -12 30 -17t49 -5h13q41 0 61.5 10.5t29 36t8.5 75.5v79zM225 570l-37 52l179 140l67 -99z" />
    <glyph glyph-name="otilde.sc" horiz-adv-x="611" 
d="M140.5 13.5q-53.5 21.5 -75.5 71t-22 142.5v74q0 93 22 142.5t75.5 71t155.5 21.5h19q101 0 155 -21.5t76 -71t22 -142.5v-74q0 -93 -22 -142.5t-76 -71t-155 -21.5h-19q-102 0 -155.5 21.5zM312 114q39 0 59 10.5t28 35.5t8 74v63q0 49 -8 74t-28 35.5t-59 10.5h-13
q-39 0 -59 -10.5t-28 -35.5t-8 -74v-63q0 -49 8 -74t28 -35.5t59 -10.5h13zM157 606q2 56 23.5 88t65.5 32q17 0 31 -5t31 -14t28.5 -14t22.5 -5q15 0 23.5 10.5t9.5 29.5l61 -13q-2 -59 -23.5 -90.5t-67.5 -31.5q-17 0 -31 4.5t-32 14.5q-14 8 -25.5 12.5t-22.5 4.5
q-15 0 -24 -8.5t-11 -28.5z" />
    <glyph glyph-name="oe.sc" horiz-adv-x="852" 
d="M125.5 12q-45.5 20 -64 70.5t-18.5 150.5v68q0 94 19.5 144t65.5 70.5t132 20.5h16q51 0 81 -10t47 -31h1v33h407v-113h-256v-92h238v-107h-238v-101h264v-115h-415v35h-1q-16 -21 -51 -32t-79 -11h-15q-88 0 -133.5 20zM310 114q39 0 59 10.5t28 35.5t8 74v63
q0 49 -8 74t-28 35.5t-59 10.5h-14q-39 0 -59 -10.5t-28 -35.5t-8 -74v-63q0 -49 8 -74t28 -35.5t59 -10.5h14z" />
    <glyph glyph-name="p.sc" horiz-adv-x="558" 
d="M53 528h247q93 0 139.5 -14.5t65 -51.5t18.5 -112v-30q0 -73 -19 -111t-65 -53t-133 -15h-97v-141h-156v528zM291 253q35 0 51 6.5t21 21t5 44.5v19q0 32 -5.5 46.5t-21.5 20.5t-51 6h-81v-164h82z" />
    <glyph glyph-name="thorn.sc" horiz-adv-x="559" 
d="M53 528h156v-66h90q94 0 140.5 -14.5t65 -51.5t18.5 -112v-30q0 -73 -19 -110.5t-65 -53t-134 -15.5h-96v-75h-156v528zM291 187q35 0 51 6.5t21 21t5 44.5v19q0 32 -5.5 46.5t-21.5 20.5t-51 6h-81v-164h82z" />
    <glyph glyph-name="q.sc" horiz-adv-x="616" 
d="M553 -13l-53 43q-28 -20 -73 -29t-112 -9h-19q-102 0 -155.5 21.5t-75.5 71t-22 142.5v74q0 93 22 142.5t75.5 71t155.5 21.5h19q101 0 154.5 -21.5t75 -71t21.5 -142.5v-74q0 -74 -13 -120l56 -33zM370 121l-85 52l59 79l67 -49v16v78q0 50 -8.5 75.5t-29 36t-61.5 10.5
h-13q-41 0 -61.5 -10.5t-29 -36t-8.5 -75.5v-63q0 -49 8.5 -74.5t29.5 -36.5t61 -11h13q40 0 58 9z" />
    <glyph glyph-name="r.sc" horiz-adv-x="571" 
d="M53 528h275q83 0 125.5 -13.5t59 -46t16.5 -94.5v-19q0 -55 -15.5 -85.5t-50.5 -43.5v-2q27 -5 41 -19t19.5 -40.5t5.5 -74.5v-90h-157v81q0 38 -7 55t-26.5 23t-64.5 6h-65v-165h-156v528zM297 271q32 0 47.5 5.5t21.5 18.5t6 40v17q0 28 -6 41.5t-21.5 18.5t-48.5 5
h-87v-146h88z" />
    <glyph glyph-name="racute.sc" horiz-adv-x="571" 
d="M53 528h275q83 0 125.5 -13.5t59 -46t16.5 -94.5v-19q0 -55 -15.5 -85.5t-50.5 -43.5v-2q27 -5 41 -19t19.5 -40.5t5.5 -74.5v-90h-157v81q0 38 -7 55t-26.5 23t-64.5 6h-65v-165h-156v528zM297 271q32 0 47.5 5.5t21.5 18.5t6 40v17q0 28 -6 41.5t-21.5 18.5t-48.5 5
h-87v-146h88zM218 570l-37 52l179 140l67 -99z" />
    <glyph glyph-name="rcaron.sc" horiz-adv-x="571" 
d="M53 528h275q83 0 125.5 -13.5t59 -46t16.5 -94.5v-19q0 -55 -15.5 -85.5t-50.5 -43.5v-2q27 -5 41 -19t19.5 -40.5t5.5 -74.5v-90h-157v81q0 38 -7 55t-26.5 23t-64.5 6h-65v-165h-156v528zM297 271q32 0 47.5 5.5t21.5 18.5t6 40v17q0 28 -6 41.5t-21.5 18.5t-48.5 5
h-87v-146h88zM288 563l-161 125l49 54l112 -66l112 66l49 -54z" />
    <glyph glyph-name="uni0157.sc" horiz-adv-x="571" 
d="M53 528h275q83 0 125.5 -13.5t59 -46t16.5 -94.5v-19q0 -55 -15.5 -85.5t-50.5 -43.5v-2q27 -5 41 -19t19.5 -40.5t5.5 -74.5v-90h-157v81q0 38 -7 55t-26.5 23t-64.5 6h-65v-165h-156v528zM297 271q32 0 47.5 5.5t21.5 18.5t6 40v17q0 28 -6 41.5t-21.5 18.5t-48.5 5
h-87v-146h88zM215 -203q33 0 45 9.5t12 34.5v7h-42v103h129v-97q0 -43 -12 -67t-43 -34.5t-89 -10.5v55z" />
    <glyph glyph-name="s.sc" horiz-adv-x="558" 
d="M125.5 6.5q-49.5 13.5 -67 45.5t-17.5 94v25h151v-19q0 -19 6 -28t23.5 -13t52.5 -4h16q37 0 53.5 4t21.5 13t5 29v7q0 18 -7.5 27.5t-31.5 16t-75 11.5q-92 9 -136.5 25t-60.5 46t-16 88v15q0 55 19 86.5t64.5 46t127.5 14.5h25q96 0 145 -13.5t66 -43t17 -84.5v-27
h-147v19q0 14 -5 21.5t-20 11.5t-45 4h-17q-35 0 -52 -3.5t-22.5 -11t-5.5 -22.5v-10q0 -17 7 -25t30.5 -14t75.5 -10q91 -8 136.5 -24t62.5 -46.5t17 -86.5v-17q0 -63 -18.5 -97t-66 -49t-138.5 -15h-23q-101 0 -150.5 13.5z" />
    <glyph glyph-name="sacute.sc" horiz-adv-x="558" 
d="M125.5 6.5q-49.5 13.5 -67 45.5t-17.5 94v25h151v-19q0 -19 6 -28t23.5 -13t52.5 -4h16q37 0 53.5 4t21.5 13t5 29v7q0 18 -7.5 27.5t-31.5 16t-75 11.5q-92 9 -136.5 25t-60.5 46t-16 88v15q0 55 19 86.5t64.5 46t127.5 14.5h25q96 0 145 -13.5t66 -43t17 -84.5v-27
h-147v19q0 14 -5 21.5t-20 11.5t-45 4h-17q-35 0 -52 -3.5t-22.5 -11t-5.5 -22.5v-10q0 -17 7 -25t30.5 -14t75.5 -10q91 -8 136.5 -24t62.5 -46.5t17 -86.5v-17q0 -63 -18.5 -97t-66 -49t-138.5 -15h-23q-101 0 -150.5 13.5zM205 570l-37 52l179 140l67 -99z" />
    <glyph glyph-name="scaron.sc" horiz-adv-x="558" 
d="M125.5 6.5q-49.5 13.5 -67 45.5t-17.5 94v25h151v-19q0 -19 6 -28t23.5 -13t52.5 -4h16q37 0 53.5 4t21.5 13t5 29v7q0 18 -7.5 27.5t-31.5 16t-75 11.5q-92 9 -136.5 25t-60.5 46t-16 88v15q0 55 19 86.5t64.5 46t127.5 14.5h25q96 0 145 -13.5t66 -43t17 -84.5v-27
h-147v19q0 14 -5 21.5t-20 11.5t-45 4h-17q-35 0 -52 -3.5t-22.5 -11t-5.5 -22.5v-10q0 -17 7 -25t30.5 -14t75.5 -10q91 -8 136.5 -24t62.5 -46.5t17 -86.5v-17q0 -63 -18.5 -97t-66 -49t-138.5 -15h-23q-101 0 -150.5 13.5zM279 563l-161 125l49 54l112 -66l112 66l49 -54
z" />
    <glyph glyph-name="scedilla.sc" horiz-adv-x="558" 
d="M125.5 6.5q-49.5 13.5 -67 45.5t-17.5 94v25h151v-19q0 -19 6 -28t23.5 -13t52.5 -4h16q37 0 53.5 4t21.5 13t5 29v7q0 18 -7.5 27.5t-31.5 16t-75 11.5q-92 9 -136.5 25t-60.5 46t-16 88v15q0 55 19 86.5t64.5 46t127.5 14.5h25q96 0 145 -13.5t66 -43t17 -84.5v-27
h-147v19q0 14 -5 21.5t-20 11.5t-45 4h-17q-35 0 -52 -3.5t-22.5 -11t-5.5 -22.5v-10q0 -17 7 -25t30.5 -14t75.5 -10q91 -8 136.5 -24t62.5 -46.5t17 -86.5v-17q0 -63 -18.5 -97t-66 -49t-138.5 -15h-23q-101 0 -150.5 13.5zM176 -212l-44 50l164 153l80 -89z" />
    <glyph glyph-name="scircumflex.sc" horiz-adv-x="558" 
d="M125.5 6.5q-49.5 13.5 -67 45.5t-17.5 94v25h151v-19q0 -19 6 -28t23.5 -13t52.5 -4h16q37 0 53.5 4t21.5 13t5 29v7q0 18 -7.5 27.5t-31.5 16t-75 11.5q-92 9 -136.5 25t-60.5 46t-16 88v15q0 55 19 86.5t64.5 46t127.5 14.5h25q96 0 145 -13.5t66 -43t17 -84.5v-27
h-147v19q0 14 -5 21.5t-20 11.5t-45 4h-17q-35 0 -52 -3.5t-22.5 -11t-5.5 -22.5v-10q0 -17 7 -25t30.5 -14t75.5 -10q91 -8 136.5 -24t62.5 -46.5t17 -86.5v-17q0 -63 -18.5 -97t-66 -49t-138.5 -15h-23q-101 0 -150.5 13.5zM169 578l-49 54l161 125l161 -125l-49 -54
l-112 66z" />
    <glyph glyph-name="uni0219.sc" horiz-adv-x="558" 
d="M125.5 6.5q-49.5 13.5 -67 45.5t-17.5 94v25h151v-19q0 -19 6 -28t23.5 -13t52.5 -4h16q37 0 53.5 4t21.5 13t5 29v7q0 18 -7.5 27.5t-31.5 16t-75 11.5q-92 9 -136.5 25t-60.5 46t-16 88v15q0 55 19 86.5t64.5 46t127.5 14.5h25q96 0 145 -13.5t66 -43t17 -84.5v-27
h-147v19q0 14 -5 21.5t-20 11.5t-45 4h-17q-35 0 -52 -3.5t-22.5 -11t-5.5 -22.5v-10q0 -17 7 -25t30.5 -14t75.5 -10q91 -8 136.5 -24t62.5 -46.5t17 -86.5v-17q0 -63 -18.5 -97t-66 -49t-138.5 -15h-23q-101 0 -150.5 13.5zM210 -203q33 0 45 9.5t12 34.5v7h-42v103h129
v-97q0 -43 -12 -67t-43 -34.5t-89 -10.5v55z" />
    <glyph glyph-name="germandbls.sc" horiz-adv-x="592" 
d="M495 269.5q34 -14.5 49 -44t15 -77.5q0 -58 -19 -91t-60.5 -47.5t-112.5 -14.5h-21q-40 0 -75 5v113q25 -5 63 -5h18q27 0 37.5 11t10.5 41t-14 40.5t-45 10.5h-70v118l120 55q-2 15 -10.5 22.5t-24 10.5t-43.5 3h-12q-36 0 -55 -4.5t-28 -17t-9 -37.5v-361h-158v349
q0 73 20.5 112.5t72 57t150.5 17.5h21q84 0 134 -16.5t71.5 -50t21.5 -86.5v-28l-140 -69q59 -2 93 -16.5z" />
    <glyph glyph-name="t.sc" horiz-adv-x="491" 
d="M166 0v409h-150v119h459v-119h-150v-409h-159z" />
    <glyph glyph-name="tbar.sc" horiz-adv-x="491" 
d="M166 0v258h-111v83h111v68h-150v119h459v-119h-150v-68h111v-83h-111v-258h-159z" />
    <glyph glyph-name="tcaron.sc" horiz-adv-x="491" 
d="M166 0v409h-150v119h459v-119h-150v-409h-159zM246 563l-161 125l49 54l112 -66l112 66l49 -54z" />
    <glyph glyph-name="u.sc" horiz-adv-x="601" 
d="M140 9.5q-51 16.5 -70 57t-19 120.5v341h159v-328q0 -37 6.5 -54.5t24 -24t54.5 -6.5h12q37 0 54.5 6.5t23.5 24t6 54.5v328h159v-341q0 -80 -19 -120.5t-69.5 -57t-152.5 -16.5h-16q-102 0 -153 16.5z" />
    <glyph glyph-name="uacute.sc" horiz-adv-x="601" 
d="M140 9.5q-51 16.5 -70 57t-19 120.5v341h159v-328q0 -37 6.5 -54.5t24 -24t54.5 -6.5h12q37 0 54.5 6.5t23.5 24t6 54.5v328h159v-341q0 -80 -19 -120.5t-69.5 -57t-152.5 -16.5h-16q-102 0 -153 16.5zM223 570l-37 52l179 140l67 -99z" />
    <glyph glyph-name="ubreve.sc" horiz-adv-x="601" 
d="M140 9.5q-51 16.5 -70 57t-19 120.5v341h159v-328q0 -37 6.5 -54.5t24 -24t54.5 -6.5h12q37 0 54.5 6.5t23.5 24t6 54.5v328h159v-341q0 -80 -19 -120.5t-69.5 -57t-152.5 -16.5h-16q-102 0 -153 16.5zM179 618q-44 37 -44 107h77q5 -30 26 -41.5t62 -11.5q40 0 61 11.5
t27 41.5h77q0 -72 -44 -108t-121 -36t-121 37z" />
    <glyph glyph-name="ucircumflex.sc" horiz-adv-x="601" 
d="M140 9.5q-51 16.5 -70 57t-19 120.5v341h159v-328q0 -37 6.5 -54.5t24 -24t54.5 -6.5h12q37 0 54.5 6.5t23.5 24t6 54.5v328h159v-341q0 -80 -19 -120.5t-69.5 -57t-152.5 -16.5h-16q-102 0 -153 16.5zM188 578l-49 54l161 125l161 -125l-49 -54l-112 66z" />
    <glyph glyph-name="udieresis.sc" horiz-adv-x="601" 
d="M140 9.5q-51 16.5 -70 57t-19 120.5v341h159v-328q0 -37 6.5 -54.5t24 -24t54.5 -6.5h12q37 0 54.5 6.5t23.5 24t6 54.5v328h159v-341q0 -80 -19 -120.5t-69.5 -57t-152.5 -16.5h-16q-102 0 -153 16.5zM124 598v124h134v-124h-134zM342 598v124h134v-124h-134z" />
    <glyph glyph-name="ugrave.sc" horiz-adv-x="601" 
d="M140 9.5q-51 16.5 -70 57t-19 120.5v341h159v-328q0 -37 6.5 -54.5t24 -24t54.5 -6.5h12q37 0 54.5 6.5t23.5 24t6 54.5v328h159v-341q0 -80 -19 -120.5t-69.5 -57t-152.5 -16.5h-16q-102 0 -153 16.5zM381 570l-209 93l66 99l180 -140z" />
    <glyph glyph-name="uhungarumlaut.sc" horiz-adv-x="601" 
d="M140 9.5q-51 16.5 -70 57t-19 120.5v341h159v-328q0 -37 6.5 -54.5t24 -24t54.5 -6.5h12q37 0 54.5 6.5t23.5 24t6 54.5v328h159v-341q0 -80 -19 -120.5t-69.5 -57t-152.5 -16.5h-16q-102 0 -153 16.5zM188 571l-42 50l137 138l66 -71zM375 571l-43 50l142 138l66 -71z
" />
    <glyph glyph-name="umacron.sc" horiz-adv-x="601" 
d="M140 9.5q-51 16.5 -70 57t-19 120.5v341h159v-328q0 -37 6.5 -54.5t24 -24t54.5 -6.5h12q37 0 54.5 6.5t23.5 24t6 54.5v328h159v-341q0 -80 -19 -120.5t-69.5 -57t-152.5 -16.5h-16q-102 0 -153 16.5zM155 614v94h290v-94h-290z" />
    <glyph glyph-name="uogonek.sc" horiz-adv-x="601" 
d="M550 528v-341q0 -68 -12.5 -106t-46 -58t-98.5 -27q-27 -25 -39.5 -45.5t-12.5 -41.5q0 -18 9.5 -25.5t30.5 -7.5q24 0 54 6v-73q-43 -15 -91 -15q-54 0 -83.5 20.5t-29.5 62.5q0 34 16.5 61t53.5 55h-8q-102 0 -153 16.5t-70 57t-19 120.5v341h159v-328q0 -37 6.5 -54.5
t24 -24t54.5 -6.5h12q37 0 54.5 6.5t23.5 24t6 54.5v328h159z" />
    <glyph glyph-name="uring.sc" horiz-adv-x="601" 
d="M140 9.5q-51 16.5 -70 57t-19 120.5v341h159v-328q0 -37 6.5 -54.5t24 -24t54.5 -6.5h12q37 0 54.5 6.5t23.5 24t6 54.5v328h159v-341q0 -80 -19 -120.5t-69.5 -57t-152.5 -16.5h-16q-102 0 -153 16.5zM203 590q-31 24 -31 72v6q0 48 31 71.5t95 23.5h4q64 0 95 -23.5
t31 -71.5v-6q0 -48 -31 -72t-95 -24h-4q-64 0 -95 24zM302 627q24 0 36 8.5t12 25.5v6q0 17 -12 25.5t-36 8.5h-4q-24 0 -36 -8.5t-12 -25.5v-6q0 -17 12 -25.5t36 -8.5h4z" />
    <glyph glyph-name="utilde.sc" horiz-adv-x="601" 
d="M140 9.5q-51 16.5 -70 57t-19 120.5v341h159v-328q0 -37 6.5 -54.5t24 -24t54.5 -6.5h12q37 0 54.5 6.5t23.5 24t6 54.5v328h159v-341q0 -80 -19 -120.5t-69.5 -57t-152.5 -16.5h-16q-102 0 -153 16.5zM152 606q2 56 23.5 88t65.5 32q17 0 31 -5t31 -14t28.5 -14t22.5 -5
q15 0 23.5 10.5t9.5 29.5l61 -13q-2 -59 -23.5 -90.5t-67.5 -31.5q-17 0 -31 4.5t-32 14.5q-14 8 -25.5 12.5t-22.5 4.5q-15 0 -24 -8.5t-11 -28.5z" />
    <glyph glyph-name="v.sc" horiz-adv-x="574" 
d="M187 0l-179 528h168l112 -390h4l114 390h160l-177 -528h-202z" />
    <glyph glyph-name="w.sc" horiz-adv-x="806" 
d="M136 0l-124 528h160l65 -394h2l80 394h172l81 -394h2l65 394h155l-123 -528h-188l-77 376h-3l-77 -376h-190z" />
    <glyph glyph-name="wacute.sc" horiz-adv-x="806" 
d="M328 571l-37 52l179 140l67 -99zM136 0l-124 528h160l65 -394h2l80 394h172l81 -394h2l65 394h155l-123 -528h-188l-77 376h-3l-77 -376h-190z" />
    <glyph glyph-name="wcircumflex.sc" horiz-adv-x="806" 
d="M136 0l-124 528h160l65 -394h2l80 394h172l81 -394h2l65 394h155l-123 -528h-188l-77 376h-3l-77 -376h-190zM291 578l-49 54l161 125l161 -125l-49 -54l-112 66z" />
    <glyph glyph-name="wdieresis.sc" horiz-adv-x="806" 
d="M227 599v124h134v-124h-134zM445 599v124h134v-124h-134zM136 0l-124 528h160l65 -394h2l80 394h172l81 -394h2l65 394h155l-123 -528h-188l-77 376h-3l-77 -376h-190z" />
    <glyph glyph-name="wgrave.sc" horiz-adv-x="806" 
d="M464 571l-209 93l66 99l180 -140zM136 0l-124 528h160l65 -394h2l80 394h172l81 -394h2l65 394h155l-123 -528h-188l-77 376h-3l-77 -376h-190z" />
    <glyph glyph-name="x.sc" horiz-adv-x="582" 
d="M12 0l162 272l-147 256h179l86 -179l86 179h176l-147 -256l163 -272h-185l-94 193l-95 -193h-184z" />
    <glyph glyph-name="y.sc" horiz-adv-x="551" 
d="M196 0v171l-190 357h171l100 -231h2l95 231h171l-190 -357v-171h-159z" />
    <glyph glyph-name="yacute.sc" horiz-adv-x="551" 
d="M196 0v171l-190 357h171l100 -231h2l95 231h171l-190 -357v-171h-159zM218 570l-37 52l179 140l67 -99z" />
    <glyph glyph-name="ycircumflex.sc" horiz-adv-x="551" 
d="M196 0v171l-190 357h171l100 -231h2l95 231h171l-190 -357v-171h-159zM166 578l-49 54l161 125l161 -125l-49 -54l-112 66z" />
    <glyph glyph-name="ydieresis.sc" horiz-adv-x="551" 
d="M196 0v171l-190 357h171l100 -231h2l95 231h171l-190 -357v-171h-159zM102 598v124h134v-124h-134zM320 598v124h134v-124h-134z" />
    <glyph glyph-name="ygrave.sc" horiz-adv-x="551" 
d="M333 571l-209 93l66 99l180 -140zM196 0v171l-190 357h171l100 -231h2l95 231h171l-190 -357v-171h-159z" />
    <glyph glyph-name="z.sc" horiz-adv-x="527" 
d="M39 0v112l252 302v2h-245v112h436v-113l-253 -299v-2h259v-114h-449z" />
    <glyph glyph-name="zacute.sc" horiz-adv-x="527" 
d="M39 0v112l252 302v2h-245v112h436v-113l-253 -299v-2h259v-114h-449zM200 570l-37 52l179 140l67 -99z" />
    <glyph glyph-name="zcaron.sc" horiz-adv-x="527" 
d="M39 0v112l252 302v2h-245v112h436v-113l-253 -299v-2h259v-114h-449zM268 563l-161 125l49 54l112 -66l112 66l49 -54z" />
    <glyph glyph-name="zdotaccent.sc" horiz-adv-x="527" 
d="M39 0v112l252 302v2h-245v112h436v-113l-253 -299v-2h259v-114h-449zM186 598v124h159v-124h-159z" />
    <glyph glyph-name="uni0163.sc" horiz-adv-x="491" 
d="M166 0v409h-150v120h459v-120h-150v-409h-159zM168 -203q33 0 45 9.5t12 34.5v7h-42v103h129v-97q0 -43 -12 -67t-43 -34.5t-89 -10.5v55z" />
    <glyph glyph-name="uni021B.sc" horiz-adv-x="491" 
d="M166 0v409h-150v120h459v-120h-150v-409h-159zM168 -203q33 0 45 9.5t12 34.5v7h-42v103h129v-97q0 -43 -12 -67t-43 -34.5t-89 -10.5v55z" />
    <glyph glyph-name="zero.tf" horiz-adv-x="669" 
d="M153 16.5q-58 24.5 -81 86.5t-23 183v108q0 121 23 183t81 86.5t171 24.5h21q113 0 171 -24.5t81 -86.5t23 -183v-108q0 -121 -23 -183t-81 -86.5t-171 -24.5h-21q-113 0 -171 24.5zM341 131q49 0 72.5 10.5t33 41t9.5 93.5v128q0 63 -9.5 93.5t-33 41t-72.5 10.5h-13
q-49 0 -72.5 -10.5t-33 -41t-9.5 -93.5v-128q0 -63 9.5 -93.5t33 -41t72.5 -10.5h13z" />
    <glyph glyph-name="one.tf" horiz-adv-x="669" 
d="M317 0v526h-3l-151 -131l-82 106l207 179h197v-680h-168z" />
    <glyph glyph-name="two.tf" horiz-adv-x="669" 
d="M62 119q0 86 15.5 130.5t66 72.5t160.5 48q63 11 92 22.5t38.5 29t9.5 51.5v16q0 30 -7 44t-29 20.5t-69 6.5h-13q-50 0 -71.5 -6.5t-28 -24.5t-6.5 -60v-19h-157v14q0 97 19 143t72 63.5t165 17.5h13q116 0 175.5 -17t83 -57.5t23.5 -118.5v-22q0 -79 -18 -120
t-65 -64.5t-145 -42.5q-78 -15 -109 -26t-39 -24.5t-8 -43.5v-21h384v-131h-552v119z" />
    <glyph glyph-name="three.tf" horiz-adv-x="669" 
d="M147.5 8q-53.5 16 -72.5 58t-19 133v31h157v-35q0 -35 7 -49t26.5 -18.5t66.5 -4.5h11q57 0 82.5 4.5t34.5 18t9 42.5v21q0 28 -7 43t-24.5 21t-51.5 6h-105v125h106q28 0 43.5 6t21.5 20.5t6 41.5v22q0 27 -8.5 40t-32.5 18.5t-73 5.5h-11q-47 0 -67 -4.5t-27 -19.5
t-7 -49v-29h-155v27q0 87 19.5 129.5t71 59t158.5 16.5h20q118 0 176.5 -15t81.5 -52.5t23 -113.5v-20q0 -48 -9 -75.5t-29.5 -42.5t-58.5 -25v-3q41 -8 63.5 -22t33.5 -42t11 -79v-27q0 -72 -23.5 -109.5t-83 -53.5t-175.5 -16h-20q-116 0 -169.5 16z" />
    <glyph glyph-name="four.tf" horiz-adv-x="669" 
d="M392 0v137h-352v171l291 372h222v-414h82v-129h-82v-137h-161zM179 266h213v288h-3l-210 -284v-4z" />
    <glyph glyph-name="five.tf" horiz-adv-x="669" 
d="M151.5 8.5q-53.5 16.5 -72.5 56.5t-19 120v17h154v-12q0 -29 8.5 -42t32 -17.5t76.5 -4.5h15q47 0 68.5 7.5t28 25.5t6.5 57v19q0 43 -6.5 61t-29 25t-76.5 7h-19q-40 0 -60 -5t-27 -17t-8 -35h-154v409h522v-131h-366v-145h2q11 20 27.5 31t44 16.5t71.5 5.5h27
q87 0 133.5 -17t65.5 -57t19 -116v-52q0 -92 -22 -138.5t-79.5 -65.5t-172.5 -19h-24q-112 0 -165.5 16.5z" />
    <glyph glyph-name="six.tf" horiz-adv-x="669" 
d="M151.5 12.5q-54.5 20.5 -74.5 75.5t-20 172v145q0 126 21.5 184.5t78.5 78.5t179 20h21q108 0 158 -16t67.5 -55t17.5 -122v-17h-154v12q0 29 -6 42t-25.5 18.5t-62.5 5.5h-12q-56 0 -79 -8t-30.5 -32t-7.5 -82v-54h2q16 25 48.5 38t83.5 13h19q102 0 151.5 -15.5
t68.5 -56.5t19 -124v-34q0 -87 -21.5 -130.5t-78 -61t-169.5 -17.5h-23q-117 0 -171.5 20.5zM341 123q52 0 74.5 6.5t29.5 23.5t7 56v15q0 38 -7 54t-29 22t-75 6h-8q-53 0 -75.5 -6t-29.5 -22t-7 -54v-15q0 -40 7 -57t29.5 -23t75.5 -6h8z" />
    <glyph glyph-name="seven.tf" horiz-adv-x="669" 
d="M151 0l266 538v3h-345v139h533v-124l-267 -556h-187z" />
    <glyph glyph-name="eight.tf" horiz-adv-x="669" 
d="M155.5 4q-55.5 12 -78 46.5t-22.5 107.5v22q0 55 10 88.5t34 52t67 25.5v2q-43 7 -66 22.5t-32 45t-9 83.5v22q0 72 21 106.5t76 47.5t169 13h20q114 0 168.5 -13t75.5 -47.5t21 -106.5v-22q0 -53 -9.5 -82.5t-33 -45t-69.5 -23.5v-2q46 -7 71 -25.5t35.5 -51.5t10.5 -89
v-22q0 -73 -22.5 -107.5t-78 -46.5t-169.5 -12h-20q-114 0 -169.5 12zM339 410q53 0 75.5 5t28.5 17.5t6 42.5v22q0 31 -6 44t-28.5 18.5t-75.5 5.5h-8q-53 0 -75.5 -5.5t-29 -18.5t-6.5 -44v-22q0 -30 6.5 -42.5t29 -17.5t75.5 -5h8zM339 120q53 0 76 4.5t30 18t7 44.5v33
q0 29 -7 42t-30 17.5t-76 4.5h-8q-53 0 -76 -4.5t-30 -17.5t-7 -42v-33q0 -31 7 -44.5t30 -18t76 -4.5h8z" />
    <glyph glyph-name="nine.tf" horiz-adv-x="669" 
d="M153 8q-52 16 -70.5 55.5t-18.5 121.5v17h155v-12q0 -28 7 -41t28 -18t65 -5h12q57 0 79.5 7t29.5 30.5t7 82.5v55h-2q-31 -51 -132 -51h-19q-100 0 -150 16t-69.5 57t-19.5 123v33q0 86 21.5 130t78 61.5t169.5 17.5h23q115 0 170 -21t75.5 -76t20.5 -171v-145
q0 -126 -21.5 -184.5t-78 -78.5t-178.5 -20h-22q-108 0 -160 16zM338 375q52 0 74.5 6.5t29.5 23.5t7 56v15q0 38 -7 54t-29 22t-75 6h-8q-53 0 -75.5 -6t-29.5 -22t-7 -54v-15q0 -40 7 -57t29.5 -23t75.5 -6h8z" />
    <glyph glyph-name="zero.dnom" horiz-adv-x="422" 
d="M96.5 10.5q-34.5 14.5 -47.5 49t-13 102.5v52q0 64 13 98t48 49t105 15h18q70 0 105 -15t48 -49t13 -98v-52q0 -68 -13 -102.5t-48 -49t-105 -14.5h-18q-71 0 -105.5 14.5zM218 78q27 0 40.5 7t18.5 23t5 48v60q0 33 -5 49t-18.5 23t-40.5 7h-14q-27 0 -40.5 -7
t-18.5 -23t-5 -49v-60q0 -32 5 -48t18.5 -23t40.5 -7h14z" />
    <glyph glyph-name="one.dnom" horiz-adv-x="329" 
d="M136 0v275h-2l-78 -60l-47 70l112 87h125v-372h-110z" />
    <glyph glyph-name="two.dnom" horiz-adv-x="408" 
d="M41 73q0 45 13 70.5t44.5 40.5t92.5 25q35 6 50.5 11.5t20 12.5t4.5 20v14q0 13 -4.5 19.5t-18 9t-42.5 2.5h-6q-25 0 -36 -3.5t-14.5 -12t-3.5 -26.5v-14h-101v17q0 48 11.5 72t44 34.5t98.5 10.5h10q71 0 107 -10t49 -32.5t13 -65.5v-10q0 -41 -10 -63t-41 -36t-97 -25
q-34 -6 -51 -11t-23.5 -12.5t-6.5 -19.5v-10h231v-81h-334v73z" />
    <glyph glyph-name="three.dnom" horiz-adv-x="412" 
d="M96 5q-33 9 -45.5 33t-12.5 73v17h100v-18q0 -16 4 -23.5t15.5 -10t37.5 -2.5h6q33 0 47.5 2.5t19 8.5t4.5 20v14q0 13 -3.5 20t-13 10t-27.5 3h-66v70h67q15 0 22.5 3t10.5 9.5t3 19.5v15q0 12 -4.5 18t-18 8.5t-42.5 2.5h-6q-25 0 -36.5 -2.5t-15.5 -9.5t-4 -23v-16
h-98v15q0 48 12.5 72t45 33t97.5 9h12q69 0 103.5 -8t48 -28.5t13.5 -60.5v-9q0 -27 -4.5 -42.5t-14.5 -24t-29 -14.5v-1q30 -6 42.5 -22.5t12.5 -54.5v-14q0 -41 -15 -62.5t-51.5 -30t-104.5 -8.5h-12q-67 0 -100 9z" />
    <glyph glyph-name="four.dnom" horiz-adv-x="433" 
d="M251 0v75h-218v98l177 199h147v-222h49v-75h-49v-75h-106zM122 150h129v149h-4l-125 -148v-1z" />
    <glyph glyph-name="five.dnom" horiz-adv-x="410" 
d="M97.5 5q-32.5 9 -44.5 31t-12 66v13h96v-8q0 -13 4.5 -19.5t16.5 -9.5t35 -3h15q30 0 43 3t17 11t4 28v13q0 21 -4 30.5t-16.5 12.5t-42.5 3h-16q-22 0 -32 -2.5t-13.5 -7.5t-4.5 -15h-98v221h321v-81h-222v-65h1q9 13 28 19t54 6h15q54 0 82 -9.5t39.5 -33.5t11.5 -71
v-19q0 -49 -13.5 -74.5t-48 -36.5t-101.5 -11h-16q-66 0 -98.5 9z" />
    <glyph glyph-name="six.dnom" horiz-adv-x="413" 
d="M95 8q-33 12 -45 43.5t-12 95.5v78q0 65 13 96.5t47 43t105 11.5h19q62 0 93 -8.5t42.5 -30t11.5 -64.5v-11h-99v7q0 13 -4 19.5t-15 9t-33 2.5h-14q-29 0 -41.5 -4.5t-16.5 -16.5t-4 -40v-24h2q8 12 26.5 18t49.5 6h16q58 0 88 -9.5t41.5 -31.5t11.5 -63v-19
q0 -50 -13 -75t-46.5 -35t-101.5 -10h-19q-69 0 -102 12zM214 74q29 0 41 3t15.5 11t3.5 27v9q0 19 -3.5 27t-16 11t-40.5 3h-13q-28 0 -40.5 -3t-16 -11t-3.5 -27v-9q0 -19 3.5 -27t15.5 -11t41 -3h13z" />
    <glyph glyph-name="seven.dnom" horiz-adv-x="391" 
d="M79 0l149 284v2h-195v86h321v-74l-156 -298h-119z" />
    <glyph glyph-name="eight.dnom" horiz-adv-x="404" 
d="M92.5 4q-32.5 8 -44.5 28t-12 59v15q0 36 11 55t38 27v1q-26 8 -37 26t-11 55v14q0 38 11.5 57t44 27t98.5 8h21q66 0 98.5 -8t44.5 -27t12 -57v-14q0 -37 -11 -55t-37 -26v-1q27 -8 38.5 -27.5t11.5 -54.5v-15q0 -39 -12 -59t-45 -28t-100 -8h-20q-67 0 -99.5 8z
M210 225q26 0 37 2.5t14.5 9t3.5 21.5v11q0 15 -3.5 21.5t-14.5 9t-37 2.5h-16q-26 0 -37 -2.5t-14.5 -9t-3.5 -21.5v-11q0 -15 3.5 -21.5t14.5 -9t37 -2.5h16zM211 71q26 0 37.5 2.5t15 9t3.5 21.5v18q0 15 -3.5 21.5t-14.5 8.5t-38 2h-17q-27 0 -38 -2t-14.5 -8.5
t-3.5 -21.5v-18q0 -15 3.5 -21.5t14.5 -9t38 -2.5h17z" />
    <glyph glyph-name="nine.dnom" horiz-adv-x="413" 
d="M93.5 4.5q-31.5 8.5 -43 29.5t-11.5 65v11h100v-7q0 -13 3.5 -19.5t15.5 -9t37 -2.5h13q30 0 42.5 4t16.5 16t4 41v24h-1q-10 -12 -28 -18t-48 -6h-17q-58 0 -88 9.5t-41.5 32t-11.5 65.5v19q0 48 13 72.5t47 34.5t102 10h19q68 0 101 -12t45.5 -43t12.5 -94v-78
q0 -66 -13 -97.5t-47.5 -43.5t-106.5 -12h-19q-65 0 -96.5 8.5zM212 207q28 0 40.5 3t16 11t3.5 27v9q0 19 -4 27t-16 11t-40 3h-13q-28 0 -40 -3t-16 -11t-4 -27v-9q0 -19 4 -27t16 -11t40 -3h13z" />
    <glyph glyph-name="zero.numr" horiz-adv-x="422" 
d="M96.5 318.5q-34.5 14.5 -47.5 49t-13 102.5v52q0 64 13 98t48 49t105 15h18q70 0 105 -15t48 -49t13 -98v-52q0 -68 -13 -102.5t-48 -49t-105 -14.5h-18q-71 0 -105.5 14.5zM218 386q27 0 40.5 7t18.5 23t5 48v60q0 33 -5 49t-18.5 23t-40.5 7h-14q-27 0 -40.5 -7
t-18.5 -23t-5 -49v-60q0 -32 5 -48t18.5 -23t40.5 -7h14z" />
    <glyph glyph-name="one.numr" horiz-adv-x="329" 
d="M136 308v275h-2l-78 -60l-47 70l112 87h125v-372h-110z" />
    <glyph glyph-name="two.numr" horiz-adv-x="408" 
d="M41 381q0 45 13 70.5t44.5 40.5t92.5 25q35 6 50.5 11.5t20 12.5t4.5 20v14q0 13 -4.5 19.5t-18 9t-42.5 2.5h-6q-25 0 -36 -3.5t-14.5 -12t-3.5 -26.5v-14h-101v17q0 48 11.5 72t44 34.5t98.5 10.5h10q71 0 107 -10t49 -32.5t13 -65.5v-10q0 -41 -10 -63t-41 -36
t-97 -25q-34 -6 -51 -11t-23.5 -12.5t-6.5 -19.5v-10h231v-81h-334v73z" />
    <glyph glyph-name="three.numr" horiz-adv-x="412" 
d="M96 313q-33 9 -45.5 33t-12.5 73v17h100v-18q0 -16 4 -23.5t15.5 -10t37.5 -2.5h6q33 0 47.5 2.5t19 8.5t4.5 20v14q0 13 -3.5 20t-13 10t-27.5 3h-66v70h67q15 0 22.5 3t10.5 9.5t3 19.5v15q0 12 -4.5 18t-18 8.5t-42.5 2.5h-6q-25 0 -36.5 -2.5t-15.5 -9.5t-4 -23v-16
h-98v15q0 48 12.5 72t45 33t97.5 9h12q69 0 103.5 -8t48 -28.5t13.5 -60.5v-9q0 -27 -4.5 -42.5t-14.5 -24t-29 -14.5v-1q30 -6 42.5 -22.5t12.5 -54.5v-14q0 -41 -15 -62.5t-51.5 -30t-104.5 -8.5h-12q-67 0 -100 9z" />
    <glyph glyph-name="four.numr" horiz-adv-x="433" 
d="M251 308v75h-218v98l177 199h147v-222h49v-75h-49v-75h-106zM122 458h129v149h-4l-125 -148v-1z" />
    <glyph glyph-name="five.numr" horiz-adv-x="410" 
d="M97.5 313q-32.5 9 -44.5 31t-12 66v13h96v-8q0 -13 4.5 -19.5t16.5 -9.5t35 -3h15q30 0 43 3t17 11t4 28v13q0 21 -4 30.5t-16.5 12.5t-42.5 3h-16q-22 0 -32 -2.5t-13.5 -7.5t-4.5 -15h-98v221h321v-81h-222v-65h1q9 13 28 19t54 6h15q54 0 82 -9.5t39.5 -33.5t11.5 -71
v-19q0 -49 -13.5 -74.5t-48 -36.5t-101.5 -11h-16q-66 0 -98.5 9z" />
    <glyph glyph-name="six.numr" horiz-adv-x="413" 
d="M95 316q-33 12 -45 43.5t-12 95.5v78q0 65 13 96.5t47 43t105 11.5h19q62 0 93 -8.5t42.5 -30t11.5 -64.5v-11h-99v7q0 13 -4 19.5t-15 9t-33 2.5h-14q-29 0 -41.5 -4.5t-16.5 -16.5t-4 -40v-24h2q8 12 26.5 18t49.5 6h16q58 0 88 -9.5t41.5 -31.5t11.5 -63v-19
q0 -50 -13 -75t-46.5 -35t-101.5 -10h-19q-69 0 -102 12zM214 382q29 0 41 3t15.5 11t3.5 27v9q0 19 -3.5 27t-16 11t-40.5 3h-13q-28 0 -40.5 -3t-16 -11t-3.5 -27v-9q0 -19 3.5 -27t15.5 -11t41 -3h13z" />
    <glyph glyph-name="seven.numr" horiz-adv-x="391" 
d="M79 308l149 284v2h-195v86h321v-74l-156 -298h-119z" />
    <glyph glyph-name="eight.numr" horiz-adv-x="404" 
d="M92.5 312q-32.5 8 -44.5 28t-12 59v15q0 36 11 55t38 27v1q-26 8 -37 26t-11 55v14q0 38 11.5 57t44 27t98.5 8h21q66 0 98.5 -8t44.5 -27t12 -57v-14q0 -37 -11 -55t-37 -26v-1q27 -8 38.5 -27.5t11.5 -54.5v-15q0 -39 -12 -59t-45 -28t-100 -8h-20q-67 0 -99.5 8z
M210 533q26 0 37 2.5t14.5 9t3.5 21.5v11q0 15 -3.5 21.5t-14.5 9t-37 2.5h-16q-26 0 -37 -2.5t-14.5 -9t-3.5 -21.5v-11q0 -15 3.5 -21.5t14.5 -9t37 -2.5h16zM211 379q26 0 37.5 2.5t15 9t3.5 21.5v18q0 15 -3.5 21.5t-14.5 8.5t-38 2h-17q-27 0 -38 -2t-14.5 -8.5
t-3.5 -21.5v-18q0 -15 3.5 -21.5t14.5 -9t38 -2.5h17z" />
    <glyph glyph-name="nine.numr" horiz-adv-x="413" 
d="M93.5 312.5q-31.5 8.5 -43 29.5t-11.5 65v11h100v-7q0 -13 3.5 -19.5t15.5 -9t37 -2.5h13q30 0 42.5 4t16.5 16t4 41v24h-1q-10 -12 -28 -18t-48 -6h-17q-58 0 -88 9.5t-41.5 32t-11.5 65.5v19q0 48 13 72.5t47 34.5t102 10h19q68 0 101 -12t45.5 -43t12.5 -94v-78
q0 -66 -13 -97.5t-47.5 -43.5t-106.5 -12h-19q-65 0 -96.5 8.5zM212 515q28 0 40.5 3t16 11t3.5 27v9q0 19 -4 27t-16 11t-40 3h-13q-28 0 -40 -3t-16 -11t-4 -27v-9q0 -19 4 -27t16 -11t40 -3h13z" />
    <glyph glyph-name="zero.sc" horiz-adv-x="569" 
d="M133 11q-48 19 -66.5 66.5t-18.5 139.5v94q0 92 18.5 139.5t66.5 66.5t143 19h17q95 0 143 -19.5t66.5 -66.5t18.5 -139v-94q0 -92 -18.5 -139t-66.5 -66.5t-143 -19.5h-17q-95 0 -143 19zM290 116q35 0 52.5 8t24.5 28.5t7 61.5v104q0 41 -7 61.5t-24.5 28t-52.5 7.5
h-10q-36 0 -53.5 -7.5t-24 -28t-6.5 -61.5v-104q0 -41 6.5 -61.5t24 -28.5t53.5 -8h10z" />
    <glyph glyph-name="one.sc" horiz-adv-x="443" 
d="M202 0v393h-2l-111 -98l-76 83l166 150h174v-528h-151z" />
    <glyph glyph-name="two.sc" horiz-adv-x="551" 
d="M48 93q0 69 15 105t57 57t129 38q49 9 72 17.5t31 20t8 33.5v12q0 20 -6 30t-22.5 14.5t-51.5 4.5h-11q-37 0 -53.5 -5t-22 -17.5t-5.5 -39.5v-20h-138v16q0 75 17 112t61 51t135 14h11q96 0 145.5 -14t68.5 -46t19 -92v-17q0 -56 -14 -88t-54 -53.5t-119 -35.5
q-60 -11 -84.5 -18.5t-31 -17.5t-6.5 -31v-11h310v-112h-460v93z" />
    <glyph glyph-name="three.sc" horiz-adv-x="560" 
d="M125.5 5.5q-46.5 13.5 -62.5 46.5t-16 104v27h140v-24q0 -22 5.5 -33t21 -15.5t47.5 -4.5h10q42 0 62 4t26.5 14t6.5 30v14q0 18 -5.5 28t-18.5 14t-38 4h-91v105h92q21 0 32 4t15.5 13.5t4.5 28.5v16q0 18 -6 27t-24 13t-55 4h-10q-32 0 -48 -4.5t-21.5 -15t-5.5 -31.5
v-24h-138v25q0 68 15 101t58.5 46.5t136.5 13.5h16q100 0 148.5 -12.5t66 -42t17.5 -88.5v-18q0 -47 -13.5 -71t-46.5 -35v-2q36 -11 53 -36t17 -75v-20q0 -57 -18.5 -87.5t-67.5 -43.5t-143 -13h-16q-100 0 -146.5 13.5z" />
    <glyph glyph-name="four.sc" horiz-adv-x="588" 
d="M334 0v105h-288v137l242 286h192v-313h67v-110h-67v-105h-146zM176 215h158v191h-3l-155 -189v-2z" />
    <glyph glyph-name="five.sc" horiz-adv-x="555" 
d="M125 6q-44 14 -60 45t-16 90v24h139v-12q0 -20 6 -30t24 -14t57 -4h12q35 0 50.5 5t20.5 17t5 38v23q0 28 -5 40t-21.5 16t-56.5 4h-16q-30 0 -44.5 -3.5t-19.5 -12t-6 -25.5h-138v321h438v-110h-298v-100h2q14 21 40 30.5t77 9.5h22q72 0 109 -13t52 -44.5t15 -92.5v-49
q0 -68 -19 -103t-68.5 -49.5t-148.5 -14.5h-20q-88 0 -132 14z" />
    <glyph glyph-name="six.sc" horiz-adv-x="561" 
d="M127 9q-46 17 -62.5 60t-16.5 134v110q0 97 17.5 143t64.5 63t145 17h19q94 0 138 -12t59 -42.5t15 -93.5v-17h-140v9q0 18 -4.5 27t-19 13t-45.5 4h-12q-43 0 -60 -5t-22.5 -21t-5.5 -55v-37h2q12 16 38 24t63 8h16q87 0 128.5 -13t56.5 -45t15 -96v-25q0 -67 -18 -102
t-65.5 -50t-140.5 -15h-21q-98 0 -144 17zM289 105q39 0 55 3.5t21 15t5 39.5v11q0 28 -5 39.5t-21 15.5t-55 4h-11q-40 0 -56 -4t-21 -15.5t-5 -39.5v-11q0 -28 5 -39.5t21 -15t56 -3.5h11z" />
    <glyph glyph-name="seven.sc" horiz-adv-x="518" 
d="M96 0l219 406v3h-281v119h448v-108l-220 -420h-166z" />
    <glyph glyph-name="eight.sc" horiz-adv-x="561" 
d="M127 3q-47 11 -64.5 39.5t-17.5 86.5v17q0 53 15 82.5t53 42.5v1q-25 7 -39 19.5t-20 35t-6 59.5v16q0 56 16.5 83.5t63.5 39t144 11.5h16q98 0 144.5 -11.5t63 -39t16.5 -83.5v-16q0 -36 -6 -58t-21 -35.5t-41 -21.5v-1q41 -12 56.5 -41t15.5 -83v-17q0 -58 -17.5 -86.5
t-65 -39.5t-145.5 -11h-16q-98 0 -145 11zM284 324q39 0 55.5 3t21.5 12.5t5 30.5v14q0 22 -5 31t-21.5 12.5t-55.5 3.5h-8q-38 0 -54.5 -3.5t-21.5 -12.5t-5 -31v-14q0 -21 5 -30.5t21 -12.5t55 -3h8zM284 103q39 0 56.5 3.5t23 13t5.5 30.5v20q0 21 -5.5 30.5t-23 13
t-56.5 3.5h-7q-40 0 -57.5 -3.5t-22.5 -13t-5 -30.5v-20q0 -21 5.5 -30.5t23 -13t56.5 -3.5h7z" />
    <glyph glyph-name="nine.sc" horiz-adv-x="561" 
d="M125.5 4.5q-44.5 12.5 -59.5 43t-15 93.5v17h140v-9q0 -19 4.5 -28t20 -12.5t48.5 -3.5h11q43 0 60.5 5t23 21t5.5 55v37h-2q-13 -16 -37.5 -24t-63.5 -8h-16q-87 0 -128.5 13t-56.5 44.5t-15 95.5v25q0 67 18 102t65.5 50t141.5 15h20q99 0 145 -16.5t62.5 -60
t16.5 -134.5v-110q0 -98 -17.5 -144t-64.5 -62.5t-147 -16.5h-19q-96 0 -140.5 12.5zM283 297q40 0 56.5 4t21.5 15.5t5 38.5v12q0 28 -5 39.5t-21.5 15t-56.5 3.5h-11q-39 0 -55 -4t-21 -15t-5 -39v-12q0 -27 5 -38.5t21 -15.5t55 -4h11z" />
    <glyph glyph-name="braceleft.sc" horiz-adv-x="379" 
d="M170 2.5q-29 10.5 -43.5 36t-14.5 70.5v59q0 30 -11 44.5t-40 14.5v78q29 0 40 14.5t11 44.5v55q0 44 14 69.5t43.5 36.5t78.5 11h64v-91h-22q-21 0 -31 -3.5t-14 -11.5t-4 -24v-39q0 -31 -3.5 -50t-15.5 -31.5t-35 -18.5v-3q24 -5 35.5 -17t15 -31t3.5 -51v-43
q0 -15 4 -23t14 -11.5t31 -3.5h22v-92h-64q-49 0 -78 10.5z" />
    <glyph glyph-name="braceright.sc" horiz-adv-x="379" 
d="M67 84h22q21 0 31 3.5t14 11.5t4 23v43q0 32 3.5 51t15.5 31t36 17v3q-23 6 -35 18.5t-16 31.5t-4 50v39q0 16 -4 24t-14 11.5t-31 3.5h-22v91h64q49 0 78.5 -11t43.5 -36.5t14 -69.5v-55q0 -30 11 -44.5t40 -14.5v-78q-29 0 -40 -14.5t-11 -44.5v-59q0 -45 -14.5 -70.5
t-43.5 -36t-78 -10.5h-64v92z" />
    <glyph glyph-name="bracketleft.sc" horiz-adv-x="355" 
d="M75 -8v544h213v-107h-82v-330h82v-107h-213z" />
    <glyph glyph-name="bracketright.sc" horiz-adv-x="355" 
d="M67 -8v107h82v330h-82v107h213v-544h-213z" />
    <glyph glyph-name="exclam.sc" horiz-adv-x="279" 
d="M71 190l-10 338h157l-10 -338h-137zM64 0v135h151v-135h-151z" />
    <glyph glyph-name="exclamdown.sc" horiz-adv-x="279" 
d="M64 393v135h151v-135h-151zM61 0l10 338h137l10 -338h-157z" />
    <glyph glyph-name="parenleft.sc" horiz-adv-x="339" 
d="M136 11q-40 19 -57.5 74t-17.5 168v22q0 113 17.5 168t57.5 74t118 19h18v-115h-13q-24 0 -36.5 -10.5t-18.5 -42t-6 -96.5v-16q0 -65 6 -96.5t18.5 -41.5t36.5 -10h13v-116h-18q-78 0 -118 19z" />
    <glyph glyph-name="parenright.sc" horiz-adv-x="339" 
d="M67 108h13q24 0 36.5 10t18.5 41.5t6 96.5v16q0 65 -6 96.5t-18.5 42t-36.5 10.5h-13v115h18q78 0 118 -19t57.5 -74t17.5 -168v-22q0 -113 -17.5 -168t-57.5 -74t-118 -19h-18v116z" />
    <glyph glyph-name="question.sc" horiz-adv-x="475" 
d="M157 207q0 37 8 58.5t26.5 34.5t53.5 22q28 7 40.5 14.5t16 16.5t3.5 25v6q0 19 -5 28.5t-18.5 13.5t-39.5 4h-11q-30 0 -44 -4.5t-19 -18t-5 -42.5v-21h-129v21q0 75 16.5 110.5t57 48t125.5 12.5h11q81 0 122 -11.5t58.5 -41.5t17.5 -91v-14q0 -41 -9 -66.5
t-30.5 -42.5t-63.5 -31q-23 -6 -32.5 -11.5t-12.5 -13t-3 -21.5v-13h-134v28zM150 0v135h151v-135h-151z" />
    <glyph glyph-name="questiondown.sc" horiz-adv-x="480" 
d="M179 393v135h151v-135h-151zM114 3.5q-41 11.5 -58.5 41.5t-17.5 91v14q0 41 9 66.5t30.5 42.5t63.5 31q23 6 32.5 11.5t12.5 13t3 21.5v13h134v-28q0 -37 -8 -58.5t-26.5 -34.5t-53.5 -22q-28 -7 -40.5 -14.5t-16 -16.5t-3.5 -25v-6q0 -19 5 -28.5t18.5 -13.5t39.5 -4
h11q30 0 44 4.5t19 18t5 42.5v21h129v-21q0 -75 -16.5 -110.5t-57 -48t-125.5 -12.5h-11q-81 0 -122 11.5z" />
    <glyph glyph-name="quotedblleft.sc" horiz-adv-x="478" 
d="M52 360q0 62 13.5 98t48 53t99.5 17v-81q-24 0 -37.5 -7.5t-18.5 -22t-5 -38.5v-10h47v-155h-147v146zM273 360q0 62 13.5 98t48 53t99.5 17v-81q-24 0 -37.5 -7.5t-18.5 -22t-5 -38.5v-10h47v-155h-147v146z" />
    <glyph glyph-name="quotedblright.sc" horiz-adv-x="478" 
d="M46 295q24 0 37.5 7.5t18.5 22t5 38.5v10h-47v155h147v-146q0 -62 -13.5 -98t-48 -53t-99.5 -17v81zM267 295q24 0 37.5 7.5t18.5 22t5 38.5v10h-47v155h147v-146q0 -62 -13.5 -98t-48 -53t-99.5 -17v81z" />
    <glyph glyph-name="quoteleft.sc" horiz-adv-x="257" 
d="M52 360q0 62 13.5 98t48 53t99.5 17v-81q-24 0 -37.5 -7.5t-18.5 -22t-5 -38.5v-10h47v-155h-147v146z" />
    <glyph glyph-name="quoteright.sc" horiz-adv-x="257" 
d="M46 295q24 0 37.5 7.5t18.5 22t5 38.5v10h-47v155h147v-146q0 -62 -13.5 -98t-48 -53t-99.5 -17v81z" />
    <glyph glyph-name="cent.tf" horiz-adv-x="669" 
d="M309 80q-89 1 -135 20t-64.5 63t-18.5 128v75q0 83 19 127t65 63t134 20v104h66v-104q81 -1 125 -17t62 -51.5t18 -98.5v-23h-140v15q0 22 -5 34t-19 18t-41 6v-260q27 0 41 6.5t19 19t5 33.5v15h140v-26q0 -63 -18 -98.5t-62 -51.5t-125 -17v-112h-66v112zM309 458
q-30 -1 -43.5 -8t-18.5 -25.5t-5 -58.5v-75q0 -40 5 -58.5t18.5 -25.5t43.5 -8v259z" />
    <glyph glyph-name="dollar.tf" horiz-adv-x="669" 
d="M527.5 381q53.5 -21 74 -59.5t20.5 -107.5v-19q0 -80 -21.5 -123t-75.5 -61t-157 -19v-73h-67v73q-109 0 -161.5 17.5t-69.5 55t-17 111.5v41h160v-25q0 -29 6.5 -44t25 -21.5t56.5 -7.5v160q-105 14 -157 37t-70.5 62t-18.5 109v16q0 70 22 109.5t74.5 57.5t149.5 18v62
h67v-62q101 -1 151.5 -19t67.5 -55t17 -107v-31h-158v23q0 22 -5.5 35t-22 21t-50.5 9v-148q106 -14 159.5 -35zM221 453.5q6 -11.5 23.5 -17.5t56.5 -12v140q-37 0 -55.5 -6.5t-24.5 -19.5t-6 -37v-13q0 -23 6 -34.5zM461 201q0 24 -7 36.5t-26.5 19.5t-59.5 13v-151
q41 1 60.5 8t26 21.5t6.5 40.5v12z" />
    <glyph glyph-name="Euro.tf" horiz-adv-x="669" 
d="M190 13.5q-57 21.5 -78.5 75.5t-24.5 166h-75v67h75v43h-75v66h76q3 110 25 163t78.5 73.5t172.5 20.5h18q107 0 160.5 -16t73 -51.5t19.5 -104.5v-18h-163v8q0 20 -6.5 31.5t-26 16.5t-57.5 5h-13q-48 0 -69 -8t-29.5 -34t-10.5 -86h240v-66h-241v-43h241v-67h-241
q2 -61 10 -87.5t29.5 -35t69.5 -8.5h13q41 0 61.5 5t28 16.5t7.5 32.5v13h162v-22q0 -68 -21 -105t-76.5 -54.5t-161.5 -17.5h-16q-118 0 -175 21.5z" />
    <glyph glyph-name="sterling.tf" horiz-adv-x="669" 
d="M51 131q30 2 45.5 13.5t23 37.5t9.5 76h-78v116h79v45q1 114 20.5 170t67 77.5t143.5 21.5h25q91 0 137.5 -15t66.5 -56t20 -122v-14h-155v13q0 27 -5.5 40.5t-20.5 19t-47 5.5h-12q-37 0 -54 -7.5t-23.5 -31.5t-6.5 -77v-69h206v-116h-208q-4 -37 -13.5 -60.5
t-27.5 -37.5t-47 -24v-3h423v-133h-568v131z" />
    <glyph glyph-name="yen.tf" horiz-adv-x="669" 
d="M251 0v185h-177v80h175v5l-39 78h-136v80h94l-132 252h180l118 -306h2l118 306h179l-131 -251h93v-81h-136l-40 -78v-5h176v-80h-177v-185h-167z" />
    <glyph glyph-name="ampersand.sc" horiz-adv-x="647" 
d="M559 -5l-58 40q-13 -17 -38.5 -26t-67.5 -13t-109 -4h-12q-99 0 -144 13t-59.5 44.5t-14.5 100.5v15q0 62 20.5 92t62.5 39q-27 23 -37 48t-10 60v9q0 49 17 75t58.5 37t120.5 11h14q90 0 131.5 -12t55.5 -43t14 -97v-11h-126v15q0 20 -5 29t-19.5 13t-45.5 4h-12
q-27 0 -40.5 -3.5t-18 -9.5t-4.5 -17v-7q0 -15 9 -29t38 -36l135 -100v16v47h117v-58q0 -45 -3 -86l99 -66zM358.5 102q21.5 2 31.5 10l-163 114q-18 -3 -26.5 -14t-8.5 -35v-11q0 -30 6.5 -43.5t24 -18t56.5 -4.5h6q52 0 73.5 2z" />
    <glyph glyph-name="cent.sc" horiz-adv-x="509" 
d="M226 62q-72 2 -110 17.5t-54 51t-16 99.5v52q0 64 15.5 99t54 51t110.5 18v78h65v-78q68 -1 105 -14.5t52 -41.5t15 -77v-25h-130v14q0 23 -9 32.5t-33 10.5v-184q24 0 33 9.5t9 32.5v16h130v-28q0 -49 -15.5 -77t-52.5 -41.5t-104 -14.5v-86h-65v86zM226 349
q-18 0 -27.5 -6t-13.5 -19.5t-4 -38.5v-57q0 -27 4 -40t13 -17.5t28 -5.5v184z" />
    <glyph glyph-name="dollar.sc" horiz-adv-x="579" 
d="M265 -7q-93 2 -136.5 15t-58 44t-14.5 95v25h147v-21q0 -20 4.5 -30t17.5 -14.5t40 -5.5v113q-92 13 -135 30t-58 47t-15 88v14q0 53 18.5 83.5t63.5 45t126 14.5v48h65v-48q86 -2 127.5 -16t55 -42.5t13.5 -84.5v-26h-145v21q0 16 -3.5 24.5t-14.5 12.5t-33 5v-105
q90 -12 134.5 -28.5t61.5 -45t17 -82.5v-17q0 -64 -17 -97t-62 -47t-134 -15v-57h-65v57zM265 430q-27 -1 -40 -4.5t-17 -11.5t-4 -24v-14q0 -14 4 -21.5t17 -12.5t40 -8v96zM372.5 106q13.5 4 18 13t4.5 27v14q0 13 -4.5 21t-18 13.5t-42.5 9.5v-103q29 1 42.5 5z" />
    <glyph glyph-name="Euro.sc" horiz-adv-x="633" 
d="M198.5 8.5q-47.5 15.5 -66.5 57.5t-21 129h-64v57h63v30h-63v58h64q2 85 21.5 125.5t67.5 55.5t146 15h15q91 0 136.5 -12.5t62 -41t16.5 -83.5v-20h-147v9q0 14 -6.5 21.5t-22 11t-44.5 3.5h-10q-36 0 -50.5 -5t-20.5 -21.5t-8 -57.5h189v-58h-190v-30h190v-57h-190
q2 -42 8.5 -60t21.5 -23t51 -5h11q29 0 45 3.5t23 11.5t7 23v12h148v-23q0 -54 -18 -83.5t-65 -43.5t-138 -14h-15q-99 0 -146.5 15.5z" />
    <glyph glyph-name="percent.sc" horiz-adv-x="690" 
d="M94 273q-25 11 -35.5 37.5t-10.5 74.5v22q0 48 10.5 74.5t35.5 37.5t70 11h13q45 0 70 -11t35.5 -37.5t10.5 -74.5v-22q0 -48 -10.5 -74.5t-35.5 -37.5t-70 -11h-13q-45 0 -70 11zM190 0l224 528h87l-223 -528h-88zM174 332q12 0 18 4t8.5 14.5t2.5 31.5v29
q0 21 -2.5 31.5t-8.5 14.5t-18 4h-7q-12 0 -18 -4t-8.5 -14.5t-2.5 -31.5v-29q0 -21 2.5 -31.5t8.5 -14.5t18 -4h7zM443 10q-25 11 -35.5 37.5t-10.5 74.5v22q0 48 10.5 74.5t35.5 37.5t70 11h13q45 0 70 -11t35.5 -37.5t10.5 -74.5v-22q0 -48 -10.5 -74.5t-35.5 -37.5
t-70 -11h-13q-45 0 -70 11zM523 69q12 0 18 4t8.5 14.5t2.5 31.5v29q0 21 -2.5 31.5t-8.5 14.5t-18 4h-7q-12 0 -18 -4t-8.5 -14.5t-2.5 -31.5v-29q0 -21 2.5 -31.5t8.5 -14.5t18 -4h7z" />
    <glyph glyph-name="perthousand.sc" horiz-adv-x="978" 
d="M94 273q-25 11 -35.5 37.5t-10.5 74.5v22q0 48 10.5 74.5t35.5 37.5t70 11h13q45 0 70 -11t35.5 -37.5t10.5 -74.5v-22q0 -48 -10.5 -74.5t-35.5 -37.5t-70 -11h-13q-45 0 -70 11zM190 0l224 528h87l-223 -528h-88zM174 332q12 0 18 4t8.5 14.5t2.5 31.5v29
q0 21 -2.5 31.5t-8.5 14.5t-18 4h-7q-12 0 -18 -4t-8.5 -14.5t-2.5 -31.5v-29q0 -21 2.5 -31.5t8.5 -14.5t18 -4h7zM443 10q-25 11 -35.5 37.5t-10.5 74.5v22q0 48 10.5 74.5t35.5 37.5t70 11h13q45 0 70 -11t35.5 -37.5t10.5 -74.5v-22q0 -48 -10.5 -74.5t-35.5 -37.5
t-70 -11h-13q-45 0 -70 11zM731 10q-25 11 -35.5 37.5t-10.5 74.5v22q0 48 10.5 74.5t35.5 37.5t70 11h13q45 0 70 -11t35.5 -37.5t10.5 -74.5v-22q0 -48 -10.5 -74.5t-35.5 -37.5t-70 -11h-13q-45 0 -70 11zM523 69q12 0 18 4t8.5 14.5t2.5 31.5v29q0 21 -2.5 31.5
t-8.5 14.5t-18 4h-7q-12 0 -18 -4t-8.5 -14.5t-2.5 -31.5v-29q0 -21 2.5 -31.5t8.5 -14.5t18 -4h7zM811 69q12 0 18 4t8.5 14.5t2.5 31.5v29q0 21 -2.5 31.5t-8.5 14.5t-18 4h-7q-12 0 -18 -4t-8.5 -14.5t-2.5 -31.5v-29q0 -21 2.5 -31.5t8.5 -14.5t18 -4h7z" />
    <glyph glyph-name="sterling.sc" horiz-adv-x="582" 
d="M54 113q23 1 36 8t18.5 24.5t7.5 50.5h-62v102h64v31q1 85 18.5 128.5t58.5 61t120 17.5h21q80 0 119 -13t53.5 -45t14.5 -95v-18h-137v14q0 19 -4 28.5t-15 13.5t-34 4h-9q-27 0 -39.5 -5.5t-17 -21t-5.5 -51.5v-49h169v-102h-172q-6 -31 -20.5 -49.5t-39.5 -29.5v-3
h336v-114h-481v113z" />
    <glyph glyph-name="yen.sc" horiz-adv-x="578" 
d="M546 528l-108 -189h73v-75h-116l-27 -49h143v-74h-146v-141h-153v141h-146v74h143l-28 49h-115v74h73l-107 190h165l92 -218h2l89 218h166z" />
    <glyph glyph-name="florin.sc" horiz-adv-x="572" 
d="M73.5 -82q-27.5 3 -45.5 7v106q14 -5 34.5 -8.5t36.5 -3.5q29 0 45.5 7t27.5 27t18 59l17 98h-122v106h140l9 49q16 90 64 130.5t140 40.5q44 0 101 -12v-104q-42 10 -78 10q-29 0 -45.5 -8t-26 -28.5t-16.5 -59.5l-3 -18h136v-106h-154l-21 -129q-9 -57 -32 -93
t-65 -54.5t-108 -18.5q-25 0 -52.5 3z" />
    <glyph glyph-name="acute.case" 
d="M134 725l-31 56l197 117l52 -105z" />
    <glyph glyph-name="breve.case" 
d="M93 764.5q-44 36.5 -44 107.5h77q5 -30 26 -41.5t62 -11.5q40 0 61 11.5t27 41.5h77q0 -72 -44 -108t-121 -36t-121 36.5z" />
    <glyph glyph-name="caron.case" 
d="M214 710l-161 124l49 54l112 -66l112 66l49 -54z" />
    <glyph glyph-name="circumflex.case" 
d="M102 728l-49 54l161 124l161 -124l-49 -54l-112 65z" />
    <glyph glyph-name="dieresis.case" 
d="M37 744v124h134v-124h-134zM257 744v124h134v-124h-134z" />
    <glyph glyph-name="dotaccent.case" 
d="M134 744v124h159v-124h-159z" />
    <glyph glyph-name="grave.case" 
d="M296 725l-218 68l52 105l197 -117z" />
    <glyph glyph-name="hungarumlaut.case" 
d="M65 714l-40 51l145 132l62 -75zM256 712l-39 52l149 131l61 -74z" />
    <glyph glyph-name="macron.case" 
d="M69 757v94h290v-94h-290z" />
    <glyph glyph-name="ring.case" 
d="M117 729q-31 24 -31 72v6q0 48 31 71.5t95 23.5h4q64 0 95 -23.5t31 -71.5v-6q0 -48 -31 -72t-95 -24h-4q-64 0 -95 24zM216 766q24 0 36 8.5t12 25.5v6q0 17 -12 25.5t-36 8.5h-4q-24 0 -36 -8.5t-12 -25.5v-6q0 -17 12 -25.5t36 -8.5h4z" />
    <glyph glyph-name="tilde.case" 
d="M66 753q2 56 23.5 88t65.5 32q17 0 31 -5t31 -14t28.5 -14t22.5 -5q15 0 23.5 10.5t9.5 29.5l61 -13q-2 -59 -23.5 -90.5t-67.5 -31.5q-17 0 -31 4.5t-32 14.5q-14 8 -25.5 12.5t-22.5 4.5q-15 0 -24 -8.5t-11 -28.5z" />
    <glyph glyph-name="acute.sc" horiz-adv-x="427" 
d="M140 570l-37 52l179 140l67 -99z" />
    <glyph glyph-name="breve.sc" horiz-adv-x="427" 
d="M93 618q-44 37 -44 107h77q5 -30 26 -41.5t62 -11.5q40 0 61 11.5t27 41.5h77q0 -72 -44 -108t-121 -36t-121 37z" />
    <glyph glyph-name="caron.sc" horiz-adv-x="427" 
d="M214 563l-161 125l49 54l112 -66l112 66l49 -54z" />
    <glyph glyph-name="circumflex.sc" horiz-adv-x="427" 
d="M102 578l-49 54l161 125l161 -125l-49 -54l-112 66z" />
    <glyph glyph-name="dieresis.sc" horiz-adv-x="427" 
d="M38 598v124h134v-124h-134zM256 598v124h134v-124h-134z" />
    <glyph glyph-name="dotaccent.sc" horiz-adv-x="427" 
d="M134 598v124h159v-124h-159z" />
    <glyph glyph-name="grave.sc" horiz-adv-x="427" 
d="M279 570l-209 93l66 99l180 -140z" />
    <glyph glyph-name="hungarumlaut.sc" horiz-adv-x="427" 
d="M70 571l-42 50l137 138l66 -71zM257 571l-43 50l142 138l66 -71z" />
    <glyph glyph-name="macron.sc" horiz-adv-x="427" 
d="M69 614v94h290v-94h-290z" />
    <glyph glyph-name="ring.sc" horiz-adv-x="427" 
d="M117 590q-31 24 -31 72v6q0 48 31 71.5t95 23.5h4q64 0 95 -23.5t31 -71.5v-6q0 -48 -31 -72t-95 -24h-4q-64 0 -95 24zM216 627q24 0 36 8.5t12 25.5v6q0 17 -12 25.5t-36 8.5h-4q-24 0 -36 -8.5t-12 -25.5v-6q0 -17 12 -25.5t36 -8.5h4z" />
    <glyph glyph-name="tilde.sc" horiz-adv-x="427" 
d="M66 606q2 56 23.5 88t65.5 32q17 0 31 -5t31 -14t28.5 -14t22.5 -5q15 0 23.5 10.5t9.5 29.5l61 -13q-2 -59 -23.5 -90.5t-67.5 -31.5q-17 0 -31 4.5t-32 14.5q-14 8 -25.5 12.5t-22.5 4.5q-15 0 -24 -8.5t-11 -28.5z" />
    </font>
</defs>
</svg>
